%TF.GenerationSoftware,KiCad,Pcbnew,7.0.2*%
%TF.CreationDate,2023-04-23T19:59:56+01:00*%
%TF.ProjectId,fan-controller,66616e2d-636f-46e7-9472-6f6c6c65722e,rev?*%
%TF.SameCoordinates,Original*%
%TF.FileFunction,Legend,Bot*%
%TF.FilePolarity,Positive*%
%FSLAX46Y46*%
G04 Gerber Fmt 4.6, Leading zero omitted, Abs format (unit mm)*
G04 Created by KiCad (PCBNEW 7.0.2) date 2023-04-23 19:59:56*
%MOMM*%
%LPD*%
G01*
G04 APERTURE LIST*
G04 Aperture macros list*
%AMRoundRect*
0 Rectangle with rounded corners*
0 $1 Rounding radius*
0 $2 $3 $4 $5 $6 $7 $8 $9 X,Y pos of 4 corners*
0 Add a 4 corners polygon primitive as box body*
4,1,4,$2,$3,$4,$5,$6,$7,$8,$9,$2,$3,0*
0 Add four circle primitives for the rounded corners*
1,1,$1+$1,$2,$3*
1,1,$1+$1,$4,$5*
1,1,$1+$1,$6,$7*
1,1,$1+$1,$8,$9*
0 Add four rect primitives between the rounded corners*
20,1,$1+$1,$2,$3,$4,$5,0*
20,1,$1+$1,$4,$5,$6,$7,0*
20,1,$1+$1,$6,$7,$8,$9,0*
20,1,$1+$1,$8,$9,$2,$3,0*%
G04 Aperture macros list end*
%ADD10C,0.150000*%
%ADD11R,1.524000X1.524000*%
%ADD12C,1.524000*%
%ADD13RoundRect,0.250000X-0.845000X0.620000X-0.845000X-0.620000X0.845000X-0.620000X0.845000X0.620000X0*%
%ADD14O,2.190000X1.740000*%
%ADD15RoundRect,0.250000X0.845000X-0.620000X0.845000X0.620000X-0.845000X0.620000X-0.845000X-0.620000X0*%
%ADD16R,3.500000X3.500000*%
%ADD17RoundRect,0.750000X1.000000X-0.750000X1.000000X0.750000X-1.000000X0.750000X-1.000000X-0.750000X0*%
%ADD18RoundRect,0.875000X0.875000X-0.875000X0.875000X0.875000X-0.875000X0.875000X-0.875000X-0.875000X0*%
G04 APERTURE END LIST*
D10*
X52736761Y-29103619D02*
X52403428Y-30103619D01*
X52403428Y-30103619D02*
X52070095Y-29103619D01*
X51212952Y-30103619D02*
X51784380Y-30103619D01*
X51498666Y-30103619D02*
X51498666Y-29103619D01*
X51498666Y-29103619D02*
X51593904Y-29246476D01*
X51593904Y-29246476D02*
X51689142Y-29341714D01*
X51689142Y-29341714D02*
X51784380Y-29389333D01*
X50784380Y-30008380D02*
X50736761Y-30056000D01*
X50736761Y-30056000D02*
X50784380Y-30103619D01*
X50784380Y-30103619D02*
X50831999Y-30056000D01*
X50831999Y-30056000D02*
X50784380Y-30008380D01*
X50784380Y-30008380D02*
X50784380Y-30103619D01*
X50117714Y-29103619D02*
X50022476Y-29103619D01*
X50022476Y-29103619D02*
X49927238Y-29151238D01*
X49927238Y-29151238D02*
X49879619Y-29198857D01*
X49879619Y-29198857D02*
X49832000Y-29294095D01*
X49832000Y-29294095D02*
X49784381Y-29484571D01*
X49784381Y-29484571D02*
X49784381Y-29722666D01*
X49784381Y-29722666D02*
X49832000Y-29913142D01*
X49832000Y-29913142D02*
X49879619Y-30008380D01*
X49879619Y-30008380D02*
X49927238Y-30056000D01*
X49927238Y-30056000D02*
X50022476Y-30103619D01*
X50022476Y-30103619D02*
X50117714Y-30103619D01*
X50117714Y-30103619D02*
X50212952Y-30056000D01*
X50212952Y-30056000D02*
X50260571Y-30008380D01*
X50260571Y-30008380D02*
X50308190Y-29913142D01*
X50308190Y-29913142D02*
X50355809Y-29722666D01*
X50355809Y-29722666D02*
X50355809Y-29484571D01*
X50355809Y-29484571D02*
X50308190Y-29294095D01*
X50308190Y-29294095D02*
X50260571Y-29198857D01*
X50260571Y-29198857D02*
X50212952Y-29151238D01*
X50212952Y-29151238D02*
X50117714Y-29103619D01*
X49355809Y-30008380D02*
X49308190Y-30056000D01*
X49308190Y-30056000D02*
X49355809Y-30103619D01*
X49355809Y-30103619D02*
X49403428Y-30056000D01*
X49403428Y-30056000D02*
X49355809Y-30008380D01*
X49355809Y-30008380D02*
X49355809Y-30103619D01*
X48593905Y-29103619D02*
X48593905Y-29817904D01*
X48593905Y-29817904D02*
X48641524Y-29960761D01*
X48641524Y-29960761D02*
X48736762Y-30056000D01*
X48736762Y-30056000D02*
X48879619Y-30103619D01*
X48879619Y-30103619D02*
X48974857Y-30103619D01*
X47641524Y-30103619D02*
X48117714Y-30103619D01*
X48117714Y-30103619D02*
X48117714Y-29103619D01*
X46736762Y-30008380D02*
X46784381Y-30056000D01*
X46784381Y-30056000D02*
X46927238Y-30103619D01*
X46927238Y-30103619D02*
X47022476Y-30103619D01*
X47022476Y-30103619D02*
X47165333Y-30056000D01*
X47165333Y-30056000D02*
X47260571Y-29960761D01*
X47260571Y-29960761D02*
X47308190Y-29865523D01*
X47308190Y-29865523D02*
X47355809Y-29675047D01*
X47355809Y-29675047D02*
X47355809Y-29532190D01*
X47355809Y-29532190D02*
X47308190Y-29341714D01*
X47308190Y-29341714D02*
X47260571Y-29246476D01*
X47260571Y-29246476D02*
X47165333Y-29151238D01*
X47165333Y-29151238D02*
X47022476Y-29103619D01*
X47022476Y-29103619D02*
X46927238Y-29103619D01*
X46927238Y-29103619D02*
X46784381Y-29151238D01*
X46784381Y-29151238D02*
X46736762Y-29198857D01*
X46022476Y-29103619D02*
X46022476Y-29817904D01*
X46022476Y-29817904D02*
X46070095Y-29960761D01*
X46070095Y-29960761D02*
X46165333Y-30056000D01*
X46165333Y-30056000D02*
X46308190Y-30103619D01*
X46308190Y-30103619D02*
X46403428Y-30103619D01*
X45070095Y-30103619D02*
X45546285Y-30103619D01*
X45546285Y-30103619D02*
X45546285Y-29103619D01*
X44165333Y-30008380D02*
X44212952Y-30056000D01*
X44212952Y-30056000D02*
X44355809Y-30103619D01*
X44355809Y-30103619D02*
X44451047Y-30103619D01*
X44451047Y-30103619D02*
X44593904Y-30056000D01*
X44593904Y-30056000D02*
X44689142Y-29960761D01*
X44689142Y-29960761D02*
X44736761Y-29865523D01*
X44736761Y-29865523D02*
X44784380Y-29675047D01*
X44784380Y-29675047D02*
X44784380Y-29532190D01*
X44784380Y-29532190D02*
X44736761Y-29341714D01*
X44736761Y-29341714D02*
X44689142Y-29246476D01*
X44689142Y-29246476D02*
X44593904Y-29151238D01*
X44593904Y-29151238D02*
X44451047Y-29103619D01*
X44451047Y-29103619D02*
X44355809Y-29103619D01*
X44355809Y-29103619D02*
X44212952Y-29151238D01*
X44212952Y-29151238D02*
X44165333Y-29198857D01*
X43451047Y-29103619D02*
X43451047Y-29817904D01*
X43451047Y-29817904D02*
X43498666Y-29960761D01*
X43498666Y-29960761D02*
X43593904Y-30056000D01*
X43593904Y-30056000D02*
X43736761Y-30103619D01*
X43736761Y-30103619D02*
X43831999Y-30103619D01*
X42498666Y-30103619D02*
X42974856Y-30103619D01*
X42974856Y-30103619D02*
X42974856Y-29103619D01*
X41593904Y-30008380D02*
X41641523Y-30056000D01*
X41641523Y-30056000D02*
X41784380Y-30103619D01*
X41784380Y-30103619D02*
X41879618Y-30103619D01*
X41879618Y-30103619D02*
X42022475Y-30056000D01*
X42022475Y-30056000D02*
X42117713Y-29960761D01*
X42117713Y-29960761D02*
X42165332Y-29865523D01*
X42165332Y-29865523D02*
X42212951Y-29675047D01*
X42212951Y-29675047D02*
X42212951Y-29532190D01*
X42212951Y-29532190D02*
X42165332Y-29341714D01*
X42165332Y-29341714D02*
X42117713Y-29246476D01*
X42117713Y-29246476D02*
X42022475Y-29151238D01*
X42022475Y-29151238D02*
X41879618Y-29103619D01*
X41879618Y-29103619D02*
X41784380Y-29103619D01*
X41784380Y-29103619D02*
X41641523Y-29151238D01*
X41641523Y-29151238D02*
X41593904Y-29198857D01*
X40879618Y-29103619D02*
X40879618Y-29817904D01*
X40879618Y-29817904D02*
X40927237Y-29960761D01*
X40927237Y-29960761D02*
X41022475Y-30056000D01*
X41022475Y-30056000D02*
X41165332Y-30103619D01*
X41165332Y-30103619D02*
X41260570Y-30103619D01*
X39927237Y-30103619D02*
X40403427Y-30103619D01*
X40403427Y-30103619D02*
X40403427Y-29103619D01*
X39022475Y-30008380D02*
X39070094Y-30056000D01*
X39070094Y-30056000D02*
X39212951Y-30103619D01*
X39212951Y-30103619D02*
X39308189Y-30103619D01*
X39308189Y-30103619D02*
X39451046Y-30056000D01*
X39451046Y-30056000D02*
X39546284Y-29960761D01*
X39546284Y-29960761D02*
X39593903Y-29865523D01*
X39593903Y-29865523D02*
X39641522Y-29675047D01*
X39641522Y-29675047D02*
X39641522Y-29532190D01*
X39641522Y-29532190D02*
X39593903Y-29341714D01*
X39593903Y-29341714D02*
X39546284Y-29246476D01*
X39546284Y-29246476D02*
X39451046Y-29151238D01*
X39451046Y-29151238D02*
X39308189Y-29103619D01*
X39308189Y-29103619D02*
X39212951Y-29103619D01*
X39212951Y-29103619D02*
X39070094Y-29151238D01*
X39070094Y-29151238D02*
X39022475Y-29198857D01*
X53609904Y-27293809D02*
X53276571Y-27293809D01*
X53133714Y-27817619D02*
X53609904Y-27817619D01*
X53609904Y-27817619D02*
X53609904Y-26817619D01*
X53609904Y-26817619D02*
X53133714Y-26817619D01*
X52752761Y-27770000D02*
X52609904Y-27817619D01*
X52609904Y-27817619D02*
X52371809Y-27817619D01*
X52371809Y-27817619D02*
X52276571Y-27770000D01*
X52276571Y-27770000D02*
X52228952Y-27722380D01*
X52228952Y-27722380D02*
X52181333Y-27627142D01*
X52181333Y-27627142D02*
X52181333Y-27531904D01*
X52181333Y-27531904D02*
X52228952Y-27436666D01*
X52228952Y-27436666D02*
X52276571Y-27389047D01*
X52276571Y-27389047D02*
X52371809Y-27341428D01*
X52371809Y-27341428D02*
X52562285Y-27293809D01*
X52562285Y-27293809D02*
X52657523Y-27246190D01*
X52657523Y-27246190D02*
X52705142Y-27198571D01*
X52705142Y-27198571D02*
X52752761Y-27103333D01*
X52752761Y-27103333D02*
X52752761Y-27008095D01*
X52752761Y-27008095D02*
X52705142Y-26912857D01*
X52705142Y-26912857D02*
X52657523Y-26865238D01*
X52657523Y-26865238D02*
X52562285Y-26817619D01*
X52562285Y-26817619D02*
X52324190Y-26817619D01*
X52324190Y-26817619D02*
X52181333Y-26865238D01*
X51752761Y-27817619D02*
X51752761Y-26817619D01*
X51752761Y-26817619D02*
X51371809Y-26817619D01*
X51371809Y-26817619D02*
X51276571Y-26865238D01*
X51276571Y-26865238D02*
X51228952Y-26912857D01*
X51228952Y-26912857D02*
X51181333Y-27008095D01*
X51181333Y-27008095D02*
X51181333Y-27150952D01*
X51181333Y-27150952D02*
X51228952Y-27246190D01*
X51228952Y-27246190D02*
X51276571Y-27293809D01*
X51276571Y-27293809D02*
X51371809Y-27341428D01*
X51371809Y-27341428D02*
X51752761Y-27341428D01*
X50847999Y-26817619D02*
X50228952Y-26817619D01*
X50228952Y-26817619D02*
X50562285Y-27198571D01*
X50562285Y-27198571D02*
X50419428Y-27198571D01*
X50419428Y-27198571D02*
X50324190Y-27246190D01*
X50324190Y-27246190D02*
X50276571Y-27293809D01*
X50276571Y-27293809D02*
X50228952Y-27389047D01*
X50228952Y-27389047D02*
X50228952Y-27627142D01*
X50228952Y-27627142D02*
X50276571Y-27722380D01*
X50276571Y-27722380D02*
X50324190Y-27770000D01*
X50324190Y-27770000D02*
X50419428Y-27817619D01*
X50419428Y-27817619D02*
X50705142Y-27817619D01*
X50705142Y-27817619D02*
X50800380Y-27770000D01*
X50800380Y-27770000D02*
X50847999Y-27722380D01*
X49847999Y-26912857D02*
X49800380Y-26865238D01*
X49800380Y-26865238D02*
X49705142Y-26817619D01*
X49705142Y-26817619D02*
X49467047Y-26817619D01*
X49467047Y-26817619D02*
X49371809Y-26865238D01*
X49371809Y-26865238D02*
X49324190Y-26912857D01*
X49324190Y-26912857D02*
X49276571Y-27008095D01*
X49276571Y-27008095D02*
X49276571Y-27103333D01*
X49276571Y-27103333D02*
X49324190Y-27246190D01*
X49324190Y-27246190D02*
X49895618Y-27817619D01*
X49895618Y-27817619D02*
X49276571Y-27817619D01*
X47752761Y-27293809D02*
X48086094Y-27293809D01*
X48086094Y-27817619D02*
X48086094Y-26817619D01*
X48086094Y-26817619D02*
X47609904Y-26817619D01*
X46800380Y-27817619D02*
X46800380Y-27293809D01*
X46800380Y-27293809D02*
X46847999Y-27198571D01*
X46847999Y-27198571D02*
X46943237Y-27150952D01*
X46943237Y-27150952D02*
X47133713Y-27150952D01*
X47133713Y-27150952D02*
X47228951Y-27198571D01*
X46800380Y-27770000D02*
X46895618Y-27817619D01*
X46895618Y-27817619D02*
X47133713Y-27817619D01*
X47133713Y-27817619D02*
X47228951Y-27770000D01*
X47228951Y-27770000D02*
X47276570Y-27674761D01*
X47276570Y-27674761D02*
X47276570Y-27579523D01*
X47276570Y-27579523D02*
X47228951Y-27484285D01*
X47228951Y-27484285D02*
X47133713Y-27436666D01*
X47133713Y-27436666D02*
X46895618Y-27436666D01*
X46895618Y-27436666D02*
X46800380Y-27389047D01*
X46324189Y-27150952D02*
X46324189Y-27817619D01*
X46324189Y-27246190D02*
X46276570Y-27198571D01*
X46276570Y-27198571D02*
X46181332Y-27150952D01*
X46181332Y-27150952D02*
X46038475Y-27150952D01*
X46038475Y-27150952D02*
X45943237Y-27198571D01*
X45943237Y-27198571D02*
X45895618Y-27293809D01*
X45895618Y-27293809D02*
X45895618Y-27817619D01*
X44086094Y-27722380D02*
X44133713Y-27770000D01*
X44133713Y-27770000D02*
X44276570Y-27817619D01*
X44276570Y-27817619D02*
X44371808Y-27817619D01*
X44371808Y-27817619D02*
X44514665Y-27770000D01*
X44514665Y-27770000D02*
X44609903Y-27674761D01*
X44609903Y-27674761D02*
X44657522Y-27579523D01*
X44657522Y-27579523D02*
X44705141Y-27389047D01*
X44705141Y-27389047D02*
X44705141Y-27246190D01*
X44705141Y-27246190D02*
X44657522Y-27055714D01*
X44657522Y-27055714D02*
X44609903Y-26960476D01*
X44609903Y-26960476D02*
X44514665Y-26865238D01*
X44514665Y-26865238D02*
X44371808Y-26817619D01*
X44371808Y-26817619D02*
X44276570Y-26817619D01*
X44276570Y-26817619D02*
X44133713Y-26865238D01*
X44133713Y-26865238D02*
X44086094Y-26912857D01*
X43514665Y-27817619D02*
X43609903Y-27770000D01*
X43609903Y-27770000D02*
X43657522Y-27722380D01*
X43657522Y-27722380D02*
X43705141Y-27627142D01*
X43705141Y-27627142D02*
X43705141Y-27341428D01*
X43705141Y-27341428D02*
X43657522Y-27246190D01*
X43657522Y-27246190D02*
X43609903Y-27198571D01*
X43609903Y-27198571D02*
X43514665Y-27150952D01*
X43514665Y-27150952D02*
X43371808Y-27150952D01*
X43371808Y-27150952D02*
X43276570Y-27198571D01*
X43276570Y-27198571D02*
X43228951Y-27246190D01*
X43228951Y-27246190D02*
X43181332Y-27341428D01*
X43181332Y-27341428D02*
X43181332Y-27627142D01*
X43181332Y-27627142D02*
X43228951Y-27722380D01*
X43228951Y-27722380D02*
X43276570Y-27770000D01*
X43276570Y-27770000D02*
X43371808Y-27817619D01*
X43371808Y-27817619D02*
X43514665Y-27817619D01*
X42752760Y-27150952D02*
X42752760Y-27817619D01*
X42752760Y-27246190D02*
X42705141Y-27198571D01*
X42705141Y-27198571D02*
X42609903Y-27150952D01*
X42609903Y-27150952D02*
X42467046Y-27150952D01*
X42467046Y-27150952D02*
X42371808Y-27198571D01*
X42371808Y-27198571D02*
X42324189Y-27293809D01*
X42324189Y-27293809D02*
X42324189Y-27817619D01*
X41990855Y-27150952D02*
X41609903Y-27150952D01*
X41847998Y-26817619D02*
X41847998Y-27674761D01*
X41847998Y-27674761D02*
X41800379Y-27770000D01*
X41800379Y-27770000D02*
X41705141Y-27817619D01*
X41705141Y-27817619D02*
X41609903Y-27817619D01*
X41276569Y-27817619D02*
X41276569Y-27150952D01*
X41276569Y-27341428D02*
X41228950Y-27246190D01*
X41228950Y-27246190D02*
X41181331Y-27198571D01*
X41181331Y-27198571D02*
X41086093Y-27150952D01*
X41086093Y-27150952D02*
X40990855Y-27150952D01*
X40514664Y-27817619D02*
X40609902Y-27770000D01*
X40609902Y-27770000D02*
X40657521Y-27722380D01*
X40657521Y-27722380D02*
X40705140Y-27627142D01*
X40705140Y-27627142D02*
X40705140Y-27341428D01*
X40705140Y-27341428D02*
X40657521Y-27246190D01*
X40657521Y-27246190D02*
X40609902Y-27198571D01*
X40609902Y-27198571D02*
X40514664Y-27150952D01*
X40514664Y-27150952D02*
X40371807Y-27150952D01*
X40371807Y-27150952D02*
X40276569Y-27198571D01*
X40276569Y-27198571D02*
X40228950Y-27246190D01*
X40228950Y-27246190D02*
X40181331Y-27341428D01*
X40181331Y-27341428D02*
X40181331Y-27627142D01*
X40181331Y-27627142D02*
X40228950Y-27722380D01*
X40228950Y-27722380D02*
X40276569Y-27770000D01*
X40276569Y-27770000D02*
X40371807Y-27817619D01*
X40371807Y-27817619D02*
X40514664Y-27817619D01*
X39609902Y-27817619D02*
X39705140Y-27770000D01*
X39705140Y-27770000D02*
X39752759Y-27674761D01*
X39752759Y-27674761D02*
X39752759Y-26817619D01*
X39086092Y-27817619D02*
X39181330Y-27770000D01*
X39181330Y-27770000D02*
X39228949Y-27674761D01*
X39228949Y-27674761D02*
X39228949Y-26817619D01*
X38324187Y-27770000D02*
X38419425Y-27817619D01*
X38419425Y-27817619D02*
X38609901Y-27817619D01*
X38609901Y-27817619D02*
X38705139Y-27770000D01*
X38705139Y-27770000D02*
X38752758Y-27674761D01*
X38752758Y-27674761D02*
X38752758Y-27293809D01*
X38752758Y-27293809D02*
X38705139Y-27198571D01*
X38705139Y-27198571D02*
X38609901Y-27150952D01*
X38609901Y-27150952D02*
X38419425Y-27150952D01*
X38419425Y-27150952D02*
X38324187Y-27198571D01*
X38324187Y-27198571D02*
X38276568Y-27293809D01*
X38276568Y-27293809D02*
X38276568Y-27389047D01*
X38276568Y-27389047D02*
X38752758Y-27484285D01*
X37847996Y-27817619D02*
X37847996Y-27150952D01*
X37847996Y-27341428D02*
X37800377Y-27246190D01*
X37800377Y-27246190D02*
X37752758Y-27198571D01*
X37752758Y-27198571D02*
X37657520Y-27150952D01*
X37657520Y-27150952D02*
X37562282Y-27150952D01*
%LPC*%
D11*
%TO.C,U4*%
X33300000Y-29000000D03*
D12*
X33300000Y-31540000D03*
X33300000Y-34080000D03*
X33300000Y-36620000D03*
X33300000Y-39160000D03*
X33300000Y-41700000D03*
X33300000Y-44240000D03*
X33300000Y-46780000D03*
X33300000Y-49320000D03*
X33300000Y-51860000D03*
X33300000Y-54400000D03*
X33300000Y-56940000D03*
X33300000Y-59480000D03*
X33300000Y-62020000D03*
X33300000Y-64560000D03*
X58700000Y-64560000D03*
X58700000Y-62020000D03*
X58700000Y-59480000D03*
X58700000Y-56940000D03*
X58700000Y-54400000D03*
X58700000Y-51860000D03*
X58700000Y-49320000D03*
X58700000Y-46780000D03*
X58700000Y-44240000D03*
X58700000Y-41700000D03*
X58700000Y-39160000D03*
X58700000Y-36620000D03*
X58700000Y-34080000D03*
X58700000Y-31540000D03*
X58700000Y-29000000D03*
%TD*%
D13*
%TO.C,J6*%
X25000000Y-40000000D03*
D14*
X25000000Y-42540000D03*
X25000000Y-45080000D03*
X25000000Y-47620000D03*
%TD*%
D15*
%TO.C,J4*%
X67000000Y-62600000D03*
D14*
X67000000Y-60060000D03*
X67000000Y-57520000D03*
X67000000Y-54980000D03*
%TD*%
D16*
%TO.C,J1*%
X25000000Y-67914000D03*
D17*
X25000000Y-73914000D03*
D18*
X29700000Y-70914000D03*
%TD*%
D13*
%TO.C,J5*%
X25000000Y-25000000D03*
D14*
X25000000Y-27540000D03*
X25000000Y-30080000D03*
X25000000Y-32620000D03*
%TD*%
D15*
%TO.C,J2*%
X67000000Y-32600000D03*
D14*
X67000000Y-30060000D03*
X67000000Y-27520000D03*
X67000000Y-24980000D03*
%TD*%
D15*
%TO.C,J3*%
X67000000Y-47600000D03*
D14*
X67000000Y-45060000D03*
X67000000Y-42520000D03*
X67000000Y-39980000D03*
%TD*%
D13*
%TO.C,J7*%
X25000000Y-55000000D03*
D14*
X25000000Y-57540000D03*
X25000000Y-60080000D03*
X25000000Y-62620000D03*
%TD*%
%LPD*%
M02*
