%TF.GenerationSoftware,KiCad,Pcbnew,7.0.2*%
%TF.CreationDate,2023-05-06T12:51:57+01:00*%
%TF.ProjectId,fan-controller,66616e2d-636f-46e7-9472-6f6c6c65722e,rev?*%
%TF.SameCoordinates,Original*%
%TF.FileFunction,Copper,L2,Bot*%
%TF.FilePolarity,Positive*%
%FSLAX46Y46*%
G04 Gerber Fmt 4.6, Leading zero omitted, Abs format (unit mm)*
G04 Created by KiCad (PCBNEW 7.0.2) date 2023-05-06 12:51:57*
%MOMM*%
%LPD*%
G01*
G04 APERTURE LIST*
G04 Aperture macros list*
%AMRoundRect*
0 Rectangle with rounded corners*
0 $1 Rounding radius*
0 $2 $3 $4 $5 $6 $7 $8 $9 X,Y pos of 4 corners*
0 Add a 4 corners polygon primitive as box body*
4,1,4,$2,$3,$4,$5,$6,$7,$8,$9,$2,$3,0*
0 Add four circle primitives for the rounded corners*
1,1,$1+$1,$2,$3*
1,1,$1+$1,$4,$5*
1,1,$1+$1,$6,$7*
1,1,$1+$1,$8,$9*
0 Add four rect primitives between the rounded corners*
20,1,$1+$1,$2,$3,$4,$5,0*
20,1,$1+$1,$4,$5,$6,$7,0*
20,1,$1+$1,$6,$7,$8,$9,0*
20,1,$1+$1,$8,$9,$2,$3,0*%
G04 Aperture macros list end*
%TA.AperFunction,ComponentPad*%
%ADD10C,1.524000*%
%TD*%
%TA.AperFunction,ComponentPad*%
%ADD11R,1.524000X1.524000*%
%TD*%
%TA.AperFunction,ComponentPad*%
%ADD12RoundRect,0.250000X-0.845000X0.620000X-0.845000X-0.620000X0.845000X-0.620000X0.845000X0.620000X0*%
%TD*%
%TA.AperFunction,ComponentPad*%
%ADD13O,2.190000X1.740000*%
%TD*%
%TA.AperFunction,ComponentPad*%
%ADD14RoundRect,0.250000X0.845000X-0.620000X0.845000X0.620000X-0.845000X0.620000X-0.845000X-0.620000X0*%
%TD*%
%TA.AperFunction,ComponentPad*%
%ADD15R,3.500000X3.500000*%
%TD*%
%TA.AperFunction,ComponentPad*%
%ADD16RoundRect,0.750000X1.000000X-0.750000X1.000000X0.750000X-1.000000X0.750000X-1.000000X-0.750000X0*%
%TD*%
%TA.AperFunction,ComponentPad*%
%ADD17RoundRect,0.875000X0.875000X-0.875000X0.875000X0.875000X-0.875000X0.875000X-0.875000X-0.875000X0*%
%TD*%
%TA.AperFunction,ComponentPad*%
%ADD18C,0.600000*%
%TD*%
%TA.AperFunction,SMDPad,CuDef*%
%ADD19R,2.950000X4.500000*%
%TD*%
%TA.AperFunction,ViaPad*%
%ADD20C,0.800000*%
%TD*%
%TA.AperFunction,Conductor*%
%ADD21C,0.250000*%
%TD*%
%TA.AperFunction,Conductor*%
%ADD22C,0.254000*%
%TD*%
G04 APERTURE END LIST*
D10*
%TO.P,U4,30,IO23*%
%TO.N,unconnected-(U4-IO23-Pad30)*%
X33300000Y-65000000D03*
%TO.P,U4,29,IO22*%
%TO.N,SCL*%
X33300000Y-62460000D03*
%TO.P,U4,28,TXD0/IO1*%
%TO.N,unconnected-(U4-TXD0{slash}IO1-Pad28)*%
X33300000Y-59920000D03*
%TO.P,U4,27,RXD0/IO3*%
%TO.N,unconnected-(U4-RXD0{slash}IO3-Pad27)*%
X33300000Y-57380000D03*
%TO.P,U4,26,IO21*%
%TO.N,SDA*%
X33300000Y-54840000D03*
%TO.P,U4,25,IO19*%
%TO.N,unconnected-(U4-IO19-Pad25)*%
X33300000Y-52300000D03*
%TO.P,U4,24,IO18*%
%TO.N,unconnected-(U4-IO18-Pad24)*%
X33300000Y-49760000D03*
%TO.P,U4,23,IO5*%
%TO.N,unconnected-(U4-IO5-Pad23)*%
X33300000Y-47220000D03*
%TO.P,U4,22,IO17*%
%TO.N,TACO_6*%
X33300000Y-44680000D03*
%TO.P,U4,21,IO16*%
%TO.N,TACO_5*%
X33300000Y-42140000D03*
%TO.P,U4,20,IO4*%
%TO.N,TACO_4*%
X33300000Y-39600000D03*
%TO.P,U4,19,IO2*%
%TO.N,unconnected-(U4-IO2-Pad19)*%
X33300000Y-37060000D03*
%TO.P,U4,18,IO15*%
%TO.N,unconnected-(U4-IO15-Pad18)*%
X33300000Y-34520000D03*
%TO.P,U4,17,GND*%
%TO.N,GND*%
X33300000Y-31980000D03*
%TO.P,U4,16,3V3*%
%TO.N,+3.3V*%
X33300000Y-29440000D03*
%TO.P,U4,15,VIN*%
%TO.N,+5V*%
X58700000Y-29440000D03*
%TO.P,U4,14,GND*%
%TO.N,GND*%
X58700000Y-31980000D03*
%TO.P,U4,13,IO13*%
%TO.N,PWM_1*%
X58700000Y-34520000D03*
%TO.P,U4,12,IO12*%
%TO.N,unconnected-(U4-IO12-Pad12)*%
X58700000Y-37060000D03*
%TO.P,U4,11,IO14*%
%TO.N,TACO_1*%
X58700000Y-39600000D03*
%TO.P,U4,10,IO27*%
%TO.N,TACO_2*%
X58700000Y-42140000D03*
%TO.P,U4,9,IO26*%
%TO.N,TACO_3*%
X58700000Y-44680000D03*
%TO.P,U4,8,IO25*%
%TO.N,unconnected-(U4-IO25-Pad8)*%
X58700000Y-47220000D03*
%TO.P,U4,7,IO33*%
%TO.N,unconnected-(U4-IO33-Pad7)*%
X58700000Y-49760000D03*
%TO.P,U4,6,IO32*%
%TO.N,unconnected-(U4-IO32-Pad6)*%
X58700000Y-52300000D03*
%TO.P,U4,5,IO35*%
%TO.N,unconnected-(U4-IO35-Pad5)*%
X58700000Y-54840000D03*
%TO.P,U4,4,IO34*%
%TO.N,unconnected-(U4-IO34-Pad4)*%
X58700000Y-57380000D03*
%TO.P,U4,3,SENSOR_VN*%
%TO.N,unconnected-(U4-SENSOR_VN-Pad3)*%
X58700000Y-59920000D03*
%TO.P,U4,2,SENSOR_VP*%
%TO.N,unconnected-(U4-SENSOR_VP-Pad2)*%
X58700000Y-62460000D03*
D11*
%TO.P,U4,1,EN*%
%TO.N,unconnected-(U4-EN-Pad1)*%
X58700000Y-65000000D03*
%TD*%
D12*
%TO.P,J6,1,Pin_1*%
%TO.N,GND*%
X25000000Y-40000000D03*
D13*
%TO.P,J6,2,Pin_2*%
%TO.N,+12V*%
X25000000Y-42540000D03*
%TO.P,J6,3,Pin_3*%
%TO.N,Net-(D5-K)*%
X25000000Y-45080000D03*
%TO.P,J6,4,Pin_4*%
%TO.N,PWM_OUT*%
X25000000Y-47620000D03*
%TD*%
D14*
%TO.P,J4,1,Pin_1*%
%TO.N,GND*%
X67000000Y-62600000D03*
D13*
%TO.P,J4,2,Pin_2*%
%TO.N,+12V*%
X67000000Y-60060000D03*
%TO.P,J4,3,Pin_3*%
%TO.N,Net-(D3-K)*%
X67000000Y-57520000D03*
%TO.P,J4,4,Pin_4*%
%TO.N,PWM_OUT*%
X67000000Y-54980000D03*
%TD*%
D15*
%TO.P,J1,1*%
%TO.N,+12V*%
X25000000Y-67914000D03*
D16*
%TO.P,J1,2*%
%TO.N,GND*%
X25000000Y-73914000D03*
D17*
%TO.P,J1,3*%
%TO.N,N/C*%
X29700000Y-70914000D03*
%TD*%
D18*
%TO.P,U1,9,GNDPAD*%
%TO.N,GND*%
X47682000Y-37198000D03*
X47682000Y-36098000D03*
X47682000Y-34798000D03*
X47682000Y-33598000D03*
D19*
X47082000Y-35398000D03*
D18*
X46482000Y-37198000D03*
X46482000Y-36098000D03*
X46482000Y-34798000D03*
X46482000Y-33598000D03*
%TD*%
D12*
%TO.P,J5,1,Pin_1*%
%TO.N,GND*%
X25000000Y-25000000D03*
D13*
%TO.P,J5,2,Pin_2*%
%TO.N,+12V*%
X25000000Y-27540000D03*
%TO.P,J5,3,Pin_3*%
%TO.N,Net-(D4-K)*%
X25000000Y-30080000D03*
%TO.P,J5,4,Pin_4*%
%TO.N,PWM_OUT*%
X25000000Y-32620000D03*
%TD*%
D14*
%TO.P,J2,1,Pin_1*%
%TO.N,GND*%
X67000000Y-32600000D03*
D13*
%TO.P,J2,2,Pin_2*%
%TO.N,+12V*%
X67000000Y-30060000D03*
%TO.P,J2,3,Pin_3*%
%TO.N,Net-(D1-K)*%
X67000000Y-27520000D03*
%TO.P,J2,4,Pin_4*%
%TO.N,PWM_OUT*%
X67000000Y-24980000D03*
%TD*%
D14*
%TO.P,J3,1,Pin_1*%
%TO.N,GND*%
X67000000Y-47600000D03*
D13*
%TO.P,J3,2,Pin_2*%
%TO.N,+12V*%
X67000000Y-45060000D03*
%TO.P,J3,3,Pin_3*%
%TO.N,Net-(D2-K)*%
X67000000Y-42520000D03*
%TO.P,J3,4,Pin_4*%
%TO.N,PWM_OUT*%
X67000000Y-39980000D03*
%TD*%
D12*
%TO.P,J7,1,Pin_1*%
%TO.N,GND*%
X25000000Y-55000000D03*
D13*
%TO.P,J7,2,Pin_2*%
%TO.N,+12V*%
X25000000Y-57540000D03*
%TO.P,J7,3,Pin_3*%
%TO.N,Net-(D6-K)*%
X25000000Y-60080000D03*
%TO.P,J7,4,Pin_4*%
%TO.N,PWM_OUT*%
X25000000Y-62620000D03*
%TD*%
D20*
%TO.N,PWM_1*%
X54864000Y-25938500D03*
%TO.N,+3.3V*%
X52832000Y-24892000D03*
X50800000Y-28702000D03*
%TO.N,+5V*%
X60960000Y-25400000D03*
%TO.N,PWM_OUT*%
X59690000Y-22098000D03*
%TO.N,+3.3V*%
X58166000Y-73406000D03*
X58166000Y-74930000D03*
%TO.N,GND*%
X53340000Y-37846000D03*
X53340000Y-39370000D03*
X51816000Y-39370000D03*
X50546000Y-39370000D03*
X49022000Y-39370000D03*
X47498000Y-39370000D03*
X45974000Y-39370000D03*
X44450000Y-39370000D03*
X65424062Y-75845337D03*
%TO.N,TACO_1*%
X63878446Y-21649191D03*
%TO.N,TACO_2*%
X63542472Y-36158520D03*
%TO.N,TACO_3*%
X63868556Y-51544691D03*
%TO.N,TACO_4*%
X28099487Y-21542657D03*
%TO.N,TACO_5*%
X28000000Y-36356683D03*
%TO.N,TACO_6*%
X27910567Y-51375374D03*
%TD*%
D21*
%TO.N,TACO_6*%
X27910567Y-51375374D02*
X27910567Y-50069433D01*
X27910567Y-50069433D02*
X33300000Y-44680000D01*
%TO.N,TACO_5*%
X28000000Y-36840000D02*
X33300000Y-42140000D01*
X28000000Y-36356683D02*
X28000000Y-36840000D01*
%TO.N,TACO_4*%
X31496000Y-24939170D02*
X31496000Y-37796000D01*
X31496000Y-37796000D02*
X33300000Y-39600000D01*
X28099487Y-21542657D02*
X31496000Y-24939170D01*
%TO.N,TACO_2*%
X63542472Y-37297528D02*
X58700000Y-42140000D01*
X63542472Y-36158520D02*
X63542472Y-37297528D01*
%TO.N,TACO_3*%
X61444000Y-44680000D02*
X58700000Y-44680000D01*
X63868556Y-47104556D02*
X61444000Y-44680000D01*
X63868556Y-51544691D02*
X63868556Y-47104556D01*
%TO.N,TACO_1*%
X60198000Y-28194000D02*
X60198000Y-38102000D01*
X60198000Y-38102000D02*
X58700000Y-39600000D01*
X63878446Y-24513554D02*
X60198000Y-28194000D01*
X63878446Y-21649191D02*
X63878446Y-24513554D01*
%TO.N,PWM_1*%
X54864000Y-30684000D02*
X58700000Y-34520000D01*
X54864000Y-25938500D02*
X54864000Y-30684000D01*
%TO.N,+3.3V*%
X52832000Y-26670000D02*
X52832000Y-24892000D01*
X50800000Y-28702000D02*
X52832000Y-26670000D01*
%TO.N,+5V*%
X58700000Y-29440000D02*
X58700000Y-27660000D01*
X58700000Y-27660000D02*
X60960000Y-25400000D01*
%TO.N,PWM_OUT*%
X59690000Y-22098000D02*
X59690000Y-20924191D01*
X59690000Y-20924191D02*
X65924191Y-20924191D01*
X48610191Y-20924191D02*
X59690000Y-20924191D01*
X28194000Y-20817657D02*
X42936343Y-20817657D01*
X26307343Y-20817657D02*
X28194000Y-20817657D01*
X48260000Y-20574000D02*
X48610191Y-20924191D01*
X43180000Y-20574000D02*
X48260000Y-20574000D01*
X65924191Y-20924191D02*
X68000000Y-23000000D01*
X42936343Y-20817657D02*
X43180000Y-20574000D01*
X23125000Y-24000000D02*
X26307343Y-20817657D01*
X23125000Y-32000000D02*
X23125000Y-24000000D01*
%TO.N,+3.3V*%
X58166000Y-74930000D02*
X58166000Y-73406000D01*
D22*
%TO.N,GND*%
X59944000Y-67818000D02*
X61468000Y-66294000D01*
X59944000Y-72390000D02*
X59944000Y-67818000D01*
X63399337Y-75845337D02*
X59944000Y-72390000D01*
X65424062Y-75845337D02*
X63399337Y-75845337D01*
D21*
%TO.N,PWM_OUT*%
X69000000Y-37000000D02*
X69000000Y-24000000D01*
X68000000Y-23980000D02*
X68000000Y-23000000D01*
X23125000Y-45745000D02*
X23125000Y-45000000D01*
X67000000Y-54980000D02*
X69000000Y-52980000D01*
X25000000Y-47620000D02*
X23125000Y-45745000D01*
X25000000Y-62620000D02*
X23125000Y-60745000D01*
X69000000Y-52980000D02*
X69000000Y-37000000D01*
X69000000Y-37980000D02*
X69000000Y-37000000D01*
X23125000Y-45000000D02*
X23125000Y-32000000D01*
X23745000Y-32620000D02*
X23125000Y-32000000D01*
X67000000Y-24980000D02*
X68000000Y-23980000D01*
X67000000Y-39980000D02*
X69000000Y-37980000D01*
X23125000Y-60745000D02*
X23125000Y-45000000D01*
X69000000Y-24000000D02*
X68000000Y-23000000D01*
X25000000Y-32620000D02*
X23745000Y-32620000D01*
%TD*%
%TA.AperFunction,Conductor*%
%TO.N,GND*%
G36*
X71942539Y-20020185D02*
G01*
X71988294Y-20072989D01*
X71999500Y-20124500D01*
X71999500Y-66424000D01*
X71979815Y-66491039D01*
X71927011Y-66536794D01*
X71875500Y-66548000D01*
X35306000Y-66548000D01*
X35554974Y-78000805D01*
X35536751Y-78068256D01*
X35484954Y-78115148D01*
X35431003Y-78127500D01*
X20190000Y-78127500D01*
X20122961Y-78107815D01*
X20077206Y-78055011D01*
X20066000Y-78003500D01*
X20066000Y-77978000D01*
X20029731Y-69708578D01*
X22749500Y-69708578D01*
X22749501Y-69711872D01*
X22749853Y-69715152D01*
X22749854Y-69715159D01*
X22755909Y-69771484D01*
X22764143Y-69793559D01*
X22806204Y-69906331D01*
X22892454Y-70021546D01*
X23007669Y-70107796D01*
X23142517Y-70158091D01*
X23202127Y-70164500D01*
X26797872Y-70164499D01*
X26857483Y-70158091D01*
X26992331Y-70107796D01*
X27107546Y-70021546D01*
X27193796Y-69906331D01*
X27211427Y-69859057D01*
X27253296Y-69803126D01*
X27318760Y-69778708D01*
X27387033Y-69793559D01*
X27436439Y-69842963D01*
X27451434Y-69908966D01*
X27449500Y-69945378D01*
X27449500Y-71882622D01*
X27449586Y-71884247D01*
X27449587Y-71884272D01*
X27452067Y-71930959D01*
X27452067Y-71930966D01*
X27452295Y-71935241D01*
X27453107Y-71939440D01*
X27453108Y-71939447D01*
X27478265Y-72069522D01*
X27496755Y-72165126D01*
X27579426Y-72384190D01*
X27697930Y-72586132D01*
X27848858Y-72765142D01*
X28027868Y-72916070D01*
X28229810Y-73034574D01*
X28448874Y-73117245D01*
X28678759Y-73161705D01*
X28731378Y-73164500D01*
X28733022Y-73164500D01*
X30666978Y-73164500D01*
X30668622Y-73164500D01*
X30721241Y-73161705D01*
X30951126Y-73117245D01*
X31170190Y-73034574D01*
X31372132Y-72916070D01*
X31551142Y-72765142D01*
X31702070Y-72586132D01*
X31820574Y-72384190D01*
X31903245Y-72165126D01*
X31947705Y-71935241D01*
X31950500Y-71882622D01*
X31950500Y-69945378D01*
X31947705Y-69892759D01*
X31903245Y-69662874D01*
X31820574Y-69443810D01*
X31702070Y-69241868D01*
X31551142Y-69062858D01*
X31372132Y-68911930D01*
X31170190Y-68793426D01*
X30951126Y-68710755D01*
X30951123Y-68710754D01*
X30951122Y-68710754D01*
X30725447Y-68667108D01*
X30725440Y-68667107D01*
X30721241Y-68666295D01*
X30716966Y-68666067D01*
X30716959Y-68666067D01*
X30670272Y-68663587D01*
X30670247Y-68663586D01*
X30668622Y-68663500D01*
X28731378Y-68663500D01*
X28729753Y-68663586D01*
X28729727Y-68663587D01*
X28683040Y-68666067D01*
X28683031Y-68666068D01*
X28678759Y-68666295D01*
X28674561Y-68667106D01*
X28674552Y-68667108D01*
X28448877Y-68710754D01*
X28229807Y-68793427D01*
X28027868Y-68911930D01*
X27848858Y-69062858D01*
X27697930Y-69241868D01*
X27579427Y-69443807D01*
X27496752Y-69662882D01*
X27496241Y-69665526D01*
X27494435Y-69669022D01*
X27493029Y-69672749D01*
X27492595Y-69672585D01*
X27464181Y-69727605D01*
X27403647Y-69762497D01*
X27333858Y-69759122D01*
X27276973Y-69718553D01*
X27251052Y-69653669D01*
X27250499Y-69641991D01*
X27250499Y-66116128D01*
X27244091Y-66056517D01*
X27193796Y-65921669D01*
X27107546Y-65806454D01*
X26992331Y-65720204D01*
X26857483Y-65669909D01*
X26797873Y-65663500D01*
X26794550Y-65663500D01*
X23205439Y-65663500D01*
X23205420Y-65663500D01*
X23202128Y-65663501D01*
X23198848Y-65663853D01*
X23198840Y-65663854D01*
X23142515Y-65669909D01*
X23007669Y-65720204D01*
X22892454Y-65806454D01*
X22806204Y-65921668D01*
X22755910Y-66056515D01*
X22755909Y-66056517D01*
X22749500Y-66116127D01*
X22749500Y-66119448D01*
X22749500Y-66119449D01*
X22749500Y-69708560D01*
X22749500Y-69708578D01*
X20029731Y-69708578D01*
X20000500Y-63043999D01*
X20000500Y-41623589D01*
X20000500Y-20188479D01*
X20020184Y-20121444D01*
X20072988Y-20075689D01*
X20123889Y-20064485D01*
X25936434Y-20036269D01*
X26003567Y-20055628D01*
X26049578Y-20108210D01*
X26059857Y-20177319D01*
X26031141Y-20241015D01*
X26009918Y-20260588D01*
X25968275Y-20290842D01*
X25958517Y-20297252D01*
X25920923Y-20319486D01*
X25906756Y-20333653D01*
X25891967Y-20346283D01*
X25875756Y-20358061D01*
X25847915Y-20391715D01*
X25840054Y-20400354D01*
X22741208Y-23499199D01*
X22725110Y-23512096D01*
X22677096Y-23563225D01*
X22674392Y-23566016D01*
X22657628Y-23582780D01*
X22657621Y-23582787D01*
X22654880Y-23585529D01*
X22652499Y-23588597D01*
X22652490Y-23588608D01*
X22652411Y-23588711D01*
X22644842Y-23597572D01*
X22614935Y-23629420D01*
X22605285Y-23646974D01*
X22594609Y-23663228D01*
X22582326Y-23679063D01*
X22564975Y-23719158D01*
X22559838Y-23729644D01*
X22538802Y-23767907D01*
X22533821Y-23787309D01*
X22527520Y-23805711D01*
X22519561Y-23824102D01*
X22512728Y-23867242D01*
X22510360Y-23878674D01*
X22499500Y-23920977D01*
X22499500Y-23941016D01*
X22497972Y-23960414D01*
X22494840Y-23980196D01*
X22498950Y-24023673D01*
X22499500Y-24035343D01*
X22499500Y-31917256D01*
X22497235Y-31937766D01*
X22499439Y-32007872D01*
X22499500Y-32011767D01*
X22499500Y-45662256D01*
X22497235Y-45682766D01*
X22499439Y-45752872D01*
X22499500Y-45756767D01*
X22499500Y-60662256D01*
X22497235Y-60682766D01*
X22499439Y-60752872D01*
X22499500Y-60756767D01*
X22499500Y-60784350D01*
X22499988Y-60788219D01*
X22499989Y-60788225D01*
X22500004Y-60788343D01*
X22500918Y-60799967D01*
X22502290Y-60843626D01*
X22507879Y-60862860D01*
X22511825Y-60881916D01*
X22514335Y-60901792D01*
X22530414Y-60942404D01*
X22534197Y-60953451D01*
X22546382Y-60995391D01*
X22556580Y-61012635D01*
X22565136Y-61030100D01*
X22572514Y-61048732D01*
X22572515Y-61048733D01*
X22598180Y-61084059D01*
X22604593Y-61093822D01*
X22626826Y-61131416D01*
X22626829Y-61131419D01*
X22626830Y-61131420D01*
X22640995Y-61145585D01*
X22653627Y-61160375D01*
X22665406Y-61176587D01*
X22699058Y-61204426D01*
X22707699Y-61212289D01*
X23470360Y-61974951D01*
X23503845Y-62036274D01*
X23501244Y-62098941D01*
X23430417Y-62330217D01*
X23400784Y-62561627D01*
X23410685Y-62794704D01*
X23459836Y-63022767D01*
X23546819Y-63239231D01*
X23546821Y-63239235D01*
X23664788Y-63430826D01*
X23669139Y-63437892D01*
X23823270Y-63613019D01*
X24004776Y-63759576D01*
X24208448Y-63873354D01*
X24428418Y-63951074D01*
X24658351Y-63990500D01*
X24658353Y-63990500D01*
X25280585Y-63990500D01*
X25283216Y-63990500D01*
X25457453Y-63975670D01*
X25607963Y-63936479D01*
X25683220Y-63916885D01*
X25848041Y-63842381D01*
X25895802Y-63820792D01*
X26089088Y-63690153D01*
X26257516Y-63528728D01*
X26396240Y-63341161D01*
X26501270Y-63132847D01*
X26569583Y-62909780D01*
X26599216Y-62678376D01*
X26589314Y-62445293D01*
X26540164Y-62217235D01*
X26453179Y-62000765D01*
X26330862Y-61802109D01*
X26176731Y-61626982D01*
X26176729Y-61626980D01*
X25995221Y-61480421D01*
X25954897Y-61457895D01*
X25905971Y-61408015D01*
X25891779Y-61339602D01*
X25916827Y-61274376D01*
X25945931Y-61246910D01*
X26089088Y-61150153D01*
X26257516Y-60988728D01*
X26396240Y-60801161D01*
X26501270Y-60592847D01*
X26569583Y-60369780D01*
X26599216Y-60138376D01*
X26589314Y-59905293D01*
X26540164Y-59677235D01*
X26453179Y-59460765D01*
X26330862Y-59262109D01*
X26176731Y-59086982D01*
X26176729Y-59086980D01*
X25995221Y-58940421D01*
X25954897Y-58917895D01*
X25905971Y-58868015D01*
X25891779Y-58799602D01*
X25916827Y-58734376D01*
X25945931Y-58706910D01*
X26089088Y-58610153D01*
X26257516Y-58448728D01*
X26396240Y-58261161D01*
X26501270Y-58052847D01*
X26569583Y-57829780D01*
X26599216Y-57598376D01*
X26589314Y-57365293D01*
X26540164Y-57137235D01*
X26453179Y-56920765D01*
X26330862Y-56722109D01*
X26176731Y-56546982D01*
X26176729Y-56546980D01*
X25995223Y-56400423D01*
X25791551Y-56286645D01*
X25571581Y-56208925D01*
X25341649Y-56169500D01*
X25341647Y-56169500D01*
X24716784Y-56169500D01*
X24714168Y-56169722D01*
X24714159Y-56169723D01*
X24542548Y-56184329D01*
X24316779Y-56243114D01*
X24104198Y-56339207D01*
X23943937Y-56447525D01*
X23877371Y-56468757D01*
X23809894Y-56450630D01*
X23762929Y-56398899D01*
X23750500Y-56344790D01*
X23750500Y-48813760D01*
X23770185Y-48746721D01*
X23822989Y-48700966D01*
X23892147Y-48691022D01*
X23952400Y-48717284D01*
X24004780Y-48759578D01*
X24208448Y-48873354D01*
X24428418Y-48951074D01*
X24658351Y-48990500D01*
X24658353Y-48990500D01*
X25280585Y-48990500D01*
X25283216Y-48990500D01*
X25457453Y-48975670D01*
X25607963Y-48936480D01*
X25683220Y-48916885D01*
X25789510Y-48868838D01*
X25895802Y-48820792D01*
X26089088Y-48690153D01*
X26257516Y-48528728D01*
X26396240Y-48341161D01*
X26501270Y-48132847D01*
X26569583Y-47909780D01*
X26599216Y-47678376D01*
X26589314Y-47445293D01*
X26540164Y-47217235D01*
X26453179Y-47000765D01*
X26330862Y-46802109D01*
X26176731Y-46626982D01*
X26176729Y-46626980D01*
X25995221Y-46480421D01*
X25954897Y-46457895D01*
X25905971Y-46408015D01*
X25891779Y-46339602D01*
X25916827Y-46274376D01*
X25945931Y-46246910D01*
X26089088Y-46150153D01*
X26257516Y-45988728D01*
X26396240Y-45801161D01*
X26501270Y-45592847D01*
X26569583Y-45369780D01*
X26599216Y-45138376D01*
X26589314Y-44905293D01*
X26540164Y-44677235D01*
X26453179Y-44460765D01*
X26330862Y-44262109D01*
X26176731Y-44086982D01*
X26171204Y-44082519D01*
X25995221Y-43940421D01*
X25954897Y-43917895D01*
X25905971Y-43868015D01*
X25891779Y-43799602D01*
X25916827Y-43734376D01*
X25945931Y-43706910D01*
X26089088Y-43610153D01*
X26257516Y-43448728D01*
X26396240Y-43261161D01*
X26501270Y-43052847D01*
X26569583Y-42829780D01*
X26599216Y-42598376D01*
X26589314Y-42365293D01*
X26540164Y-42137235D01*
X26453179Y-41920765D01*
X26330862Y-41722109D01*
X26176731Y-41546982D01*
X26176729Y-41546980D01*
X25995223Y-41400423D01*
X25791551Y-41286645D01*
X25571581Y-41208925D01*
X25341649Y-41169500D01*
X25341647Y-41169500D01*
X24716784Y-41169500D01*
X24714168Y-41169722D01*
X24714159Y-41169723D01*
X24542548Y-41184329D01*
X24316779Y-41243114D01*
X24104198Y-41339207D01*
X23943937Y-41447525D01*
X23877371Y-41468757D01*
X23809894Y-41450630D01*
X23762929Y-41398899D01*
X23750500Y-41344790D01*
X23750500Y-33813760D01*
X23770185Y-33746721D01*
X23822989Y-33700966D01*
X23892147Y-33691022D01*
X23952400Y-33717284D01*
X24004780Y-33759578D01*
X24208448Y-33873354D01*
X24428418Y-33951074D01*
X24658351Y-33990500D01*
X24658353Y-33990500D01*
X25280585Y-33990500D01*
X25283216Y-33990500D01*
X25457453Y-33975670D01*
X25607963Y-33936479D01*
X25683220Y-33916885D01*
X25789510Y-33868838D01*
X25895802Y-33820792D01*
X26089088Y-33690153D01*
X26257516Y-33528728D01*
X26396240Y-33341161D01*
X26501270Y-33132847D01*
X26569583Y-32909780D01*
X26599216Y-32678376D01*
X26589314Y-32445293D01*
X26540164Y-32217235D01*
X26453179Y-32000765D01*
X26330862Y-31802109D01*
X26176731Y-31626982D01*
X26176729Y-31626980D01*
X25995221Y-31480421D01*
X25954897Y-31457895D01*
X25905971Y-31408015D01*
X25891779Y-31339602D01*
X25916827Y-31274376D01*
X25945931Y-31246910D01*
X26089088Y-31150153D01*
X26257516Y-30988728D01*
X26396240Y-30801161D01*
X26501270Y-30592847D01*
X26569583Y-30369780D01*
X26599216Y-30138376D01*
X26589314Y-29905293D01*
X26540164Y-29677235D01*
X26453179Y-29460765D01*
X26330862Y-29262109D01*
X26176731Y-29086982D01*
X26176729Y-29086980D01*
X25995221Y-28940421D01*
X25954897Y-28917895D01*
X25905971Y-28868015D01*
X25891779Y-28799602D01*
X25916827Y-28734376D01*
X25945931Y-28706910D01*
X26089088Y-28610153D01*
X26257516Y-28448728D01*
X26396240Y-28261161D01*
X26501270Y-28052847D01*
X26569583Y-27829780D01*
X26599216Y-27598376D01*
X26589314Y-27365293D01*
X26540164Y-27137235D01*
X26527931Y-27106793D01*
X26487892Y-27007152D01*
X26453179Y-26920765D01*
X26330862Y-26722109D01*
X26176731Y-26546982D01*
X26176729Y-26546980D01*
X25995223Y-26400423D01*
X25791551Y-26286645D01*
X25571581Y-26208925D01*
X25341649Y-26169500D01*
X25341647Y-26169500D01*
X24716784Y-26169500D01*
X24714168Y-26169722D01*
X24714159Y-26169723D01*
X24542548Y-26184329D01*
X24316779Y-26243114D01*
X24104198Y-26339207D01*
X23943937Y-26447525D01*
X23877371Y-26468757D01*
X23809894Y-26450630D01*
X23762929Y-26398899D01*
X23750500Y-26344790D01*
X23750500Y-24310452D01*
X23770185Y-24243413D01*
X23786819Y-24222771D01*
X26530114Y-21479476D01*
X26591437Y-21445991D01*
X26617795Y-21443157D01*
X27071919Y-21443157D01*
X27138958Y-21462842D01*
X27184713Y-21515646D01*
X27195239Y-21554194D01*
X27202385Y-21622180D01*
X27213813Y-21730914D01*
X27272307Y-21910941D01*
X27366953Y-22074873D01*
X27493616Y-22215546D01*
X27646756Y-22326808D01*
X27819684Y-22403801D01*
X28004839Y-22443157D01*
X28004841Y-22443157D01*
X28064035Y-22443157D01*
X28131074Y-22462842D01*
X28151716Y-22479476D01*
X30834180Y-25161940D01*
X30867665Y-25223263D01*
X30870499Y-25249621D01*
X30870499Y-37713256D01*
X30868235Y-37733763D01*
X30870439Y-37803872D01*
X30870500Y-37807767D01*
X30870500Y-37835350D01*
X30870988Y-37839219D01*
X30870989Y-37839225D01*
X30871004Y-37839343D01*
X30871918Y-37850967D01*
X30873290Y-37894626D01*
X30878879Y-37913860D01*
X30882825Y-37932916D01*
X30885335Y-37952792D01*
X30901414Y-37993404D01*
X30905197Y-38004451D01*
X30917382Y-38046391D01*
X30927580Y-38063635D01*
X30936136Y-38081100D01*
X30943514Y-38099732D01*
X30943515Y-38099733D01*
X30969180Y-38135059D01*
X30975593Y-38144822D01*
X30997826Y-38182416D01*
X30997829Y-38182419D01*
X30997830Y-38182420D01*
X31011995Y-38196585D01*
X31024627Y-38211375D01*
X31036406Y-38227587D01*
X31070058Y-38255426D01*
X31078699Y-38263289D01*
X32031613Y-39216204D01*
X32065098Y-39277527D01*
X32063707Y-39335978D01*
X32051929Y-39379933D01*
X32032676Y-39600000D01*
X32040191Y-39685904D01*
X32026424Y-39754404D01*
X31977808Y-39804586D01*
X31909779Y-39820519D01*
X31843936Y-39797143D01*
X31828982Y-39784391D01*
X28866779Y-36822188D01*
X28833294Y-36760865D01*
X28836528Y-36696191D01*
X28885674Y-36544939D01*
X28905460Y-36356683D01*
X28885674Y-36168427D01*
X28855332Y-36075046D01*
X28827179Y-35988398D01*
X28732533Y-35824466D01*
X28605870Y-35683793D01*
X28452730Y-35572531D01*
X28279802Y-35495538D01*
X28094648Y-35456183D01*
X28094646Y-35456183D01*
X27905354Y-35456183D01*
X27905352Y-35456183D01*
X27720197Y-35495538D01*
X27547269Y-35572531D01*
X27394129Y-35683793D01*
X27267466Y-35824466D01*
X27172820Y-35988398D01*
X27114326Y-36168425D01*
X27094540Y-36356683D01*
X27114326Y-36544940D01*
X27172820Y-36724967D01*
X27267464Y-36888896D01*
X27267467Y-36888899D01*
X27389275Y-37024180D01*
X27416200Y-37072554D01*
X27421382Y-37090390D01*
X27431580Y-37107635D01*
X27440136Y-37125100D01*
X27447514Y-37143732D01*
X27447515Y-37143733D01*
X27473180Y-37179059D01*
X27479593Y-37188822D01*
X27501826Y-37226416D01*
X27501829Y-37226419D01*
X27501830Y-37226420D01*
X27515995Y-37240585D01*
X27528627Y-37255375D01*
X27540406Y-37271587D01*
X27574058Y-37299426D01*
X27582699Y-37307289D01*
X32031613Y-41756204D01*
X32065098Y-41817527D01*
X32063707Y-41875978D01*
X32051929Y-41919933D01*
X32032676Y-42140000D01*
X32051929Y-42360065D01*
X32053330Y-42365295D01*
X32109106Y-42573450D01*
X32202466Y-42773662D01*
X32329174Y-42954620D01*
X32485380Y-43110826D01*
X32666338Y-43237534D01*
X32785748Y-43293215D01*
X32795189Y-43297618D01*
X32847628Y-43343790D01*
X32866780Y-43410984D01*
X32846564Y-43477865D01*
X32795189Y-43522382D01*
X32666338Y-43582466D01*
X32485379Y-43709174D01*
X32329174Y-43865379D01*
X32202466Y-44046338D01*
X32109106Y-44246548D01*
X32051929Y-44459934D01*
X32032676Y-44679999D01*
X32051929Y-44900064D01*
X32063707Y-44944019D01*
X32062044Y-45013869D01*
X32031613Y-45063794D01*
X27526775Y-49568632D01*
X27510677Y-49581529D01*
X27462663Y-49632658D01*
X27459959Y-49635449D01*
X27443195Y-49652213D01*
X27443188Y-49652220D01*
X27440447Y-49654962D01*
X27438066Y-49658030D01*
X27438057Y-49658041D01*
X27437978Y-49658144D01*
X27430409Y-49667005D01*
X27400502Y-49698853D01*
X27390852Y-49716407D01*
X27380176Y-49732661D01*
X27367893Y-49748496D01*
X27350542Y-49788591D01*
X27345405Y-49799077D01*
X27324369Y-49837340D01*
X27319388Y-49856742D01*
X27313087Y-49875144D01*
X27305128Y-49893535D01*
X27298295Y-49936675D01*
X27295927Y-49948107D01*
X27285067Y-49990410D01*
X27285067Y-50010449D01*
X27283540Y-50029847D01*
X27280407Y-50049627D01*
X27284517Y-50093106D01*
X27285067Y-50104776D01*
X27285067Y-50676686D01*
X27265382Y-50743725D01*
X27253217Y-50759658D01*
X27178033Y-50843157D01*
X27083387Y-51007089D01*
X27024893Y-51187116D01*
X27005107Y-51375374D01*
X27024893Y-51563631D01*
X27083387Y-51743658D01*
X27178033Y-51907590D01*
X27304696Y-52048263D01*
X27457836Y-52159525D01*
X27630764Y-52236518D01*
X27815919Y-52275874D01*
X27815921Y-52275874D01*
X28005215Y-52275874D01*
X28128651Y-52249636D01*
X28190370Y-52236518D01*
X28363297Y-52159525D01*
X28472848Y-52079932D01*
X28516437Y-52048263D01*
X28643100Y-51907590D01*
X28737746Y-51743658D01*
X28741226Y-51732947D01*
X28796241Y-51563630D01*
X28816027Y-51375374D01*
X28796241Y-51187118D01*
X28765899Y-51093737D01*
X28737746Y-51007089D01*
X28643100Y-50843157D01*
X28567917Y-50759658D01*
X28537687Y-50696667D01*
X28536067Y-50676686D01*
X28536067Y-50379884D01*
X28555752Y-50312845D01*
X28572381Y-50292208D01*
X31828983Y-47035605D01*
X31890306Y-47002121D01*
X31959998Y-47007105D01*
X32015931Y-47048977D01*
X32040348Y-47114441D01*
X32040192Y-47134094D01*
X32032676Y-47219999D01*
X32051929Y-47440065D01*
X32053330Y-47445295D01*
X32109106Y-47653450D01*
X32202466Y-47853662D01*
X32329174Y-48034620D01*
X32485380Y-48190826D01*
X32666338Y-48317534D01*
X32785748Y-48373215D01*
X32795189Y-48377618D01*
X32847628Y-48423790D01*
X32866780Y-48490984D01*
X32846564Y-48557865D01*
X32795189Y-48602382D01*
X32666338Y-48662466D01*
X32485379Y-48789174D01*
X32329174Y-48945379D01*
X32202466Y-49126338D01*
X32109106Y-49326548D01*
X32051929Y-49539934D01*
X32032676Y-49760000D01*
X32051929Y-49980065D01*
X32109106Y-50193451D01*
X32172091Y-50328523D01*
X32202466Y-50393662D01*
X32329174Y-50574620D01*
X32485380Y-50730826D01*
X32666338Y-50857534D01*
X32743689Y-50893603D01*
X32795189Y-50917618D01*
X32847628Y-50963790D01*
X32866780Y-51030984D01*
X32846564Y-51097865D01*
X32795189Y-51142382D01*
X32666338Y-51202466D01*
X32485379Y-51329174D01*
X32329174Y-51485379D01*
X32202466Y-51666338D01*
X32109106Y-51866548D01*
X32051929Y-52079934D01*
X32032676Y-52300000D01*
X32051929Y-52520065D01*
X32109106Y-52733451D01*
X32202466Y-52933661D01*
X32202466Y-52933662D01*
X32329174Y-53114620D01*
X32485380Y-53270826D01*
X32666338Y-53397534D01*
X32704575Y-53415364D01*
X32795189Y-53457618D01*
X32847628Y-53503790D01*
X32866780Y-53570984D01*
X32846564Y-53637865D01*
X32795189Y-53682382D01*
X32666338Y-53742466D01*
X32485379Y-53869174D01*
X32329174Y-54025379D01*
X32202466Y-54206338D01*
X32109106Y-54406548D01*
X32051929Y-54619934D01*
X32032676Y-54840000D01*
X32051929Y-55060065D01*
X32108122Y-55269780D01*
X32109106Y-55273450D01*
X32202466Y-55473662D01*
X32329174Y-55654620D01*
X32485380Y-55810826D01*
X32666338Y-55937534D01*
X32785748Y-55993215D01*
X32795189Y-55997618D01*
X32847628Y-56043790D01*
X32866780Y-56110984D01*
X32846564Y-56177865D01*
X32795189Y-56222382D01*
X32666338Y-56282466D01*
X32485379Y-56409174D01*
X32329174Y-56565379D01*
X32202466Y-56746338D01*
X32109106Y-56946548D01*
X32051929Y-57159934D01*
X32032676Y-57380000D01*
X32051929Y-57600065D01*
X32109106Y-57813451D01*
X32160080Y-57922765D01*
X32202466Y-58013662D01*
X32329174Y-58194620D01*
X32485380Y-58350826D01*
X32666338Y-58477534D01*
X32785324Y-58533018D01*
X32795189Y-58537618D01*
X32847628Y-58583790D01*
X32866780Y-58650984D01*
X32846564Y-58717865D01*
X32795189Y-58762382D01*
X32666338Y-58822466D01*
X32485379Y-58949174D01*
X32329174Y-59105379D01*
X32202466Y-59286338D01*
X32109106Y-59486548D01*
X32051929Y-59699934D01*
X32032676Y-59920000D01*
X32051929Y-60140065D01*
X32109106Y-60353451D01*
X32160080Y-60462765D01*
X32202466Y-60553662D01*
X32329174Y-60734620D01*
X32485380Y-60890826D01*
X32666338Y-61017534D01*
X32785748Y-61073215D01*
X32795189Y-61077618D01*
X32847628Y-61123790D01*
X32866780Y-61190984D01*
X32846564Y-61257865D01*
X32795189Y-61302382D01*
X32666338Y-61362466D01*
X32485379Y-61489174D01*
X32329174Y-61645379D01*
X32202466Y-61826338D01*
X32109106Y-62026548D01*
X32051929Y-62239934D01*
X32032676Y-62460000D01*
X32051929Y-62680065D01*
X32109106Y-62893451D01*
X32169406Y-63022765D01*
X32202466Y-63093662D01*
X32329174Y-63274620D01*
X32485380Y-63430826D01*
X32666338Y-63557534D01*
X32748514Y-63595853D01*
X32795189Y-63617618D01*
X32847628Y-63663790D01*
X32866780Y-63730984D01*
X32846564Y-63797865D01*
X32795189Y-63842382D01*
X32666338Y-63902466D01*
X32485379Y-64029174D01*
X32329174Y-64185379D01*
X32202466Y-64366338D01*
X32109106Y-64566548D01*
X32051929Y-64779934D01*
X32032676Y-65000000D01*
X32051929Y-65220065D01*
X32051930Y-65220068D01*
X32109106Y-65433450D01*
X32202466Y-65633662D01*
X32329174Y-65814620D01*
X32485380Y-65970826D01*
X32666338Y-66097534D01*
X32866550Y-66190894D01*
X33079932Y-66248070D01*
X33300000Y-66267323D01*
X33520068Y-66248070D01*
X33733450Y-66190894D01*
X33933662Y-66097534D01*
X34114620Y-65970826D01*
X34270826Y-65814620D01*
X34397534Y-65633662D01*
X34490894Y-65433450D01*
X34548070Y-65220068D01*
X34567323Y-65000000D01*
X34548070Y-64779932D01*
X34490894Y-64566550D01*
X34397534Y-64366339D01*
X34270826Y-64185380D01*
X34114620Y-64029174D01*
X33933662Y-63902466D01*
X33933661Y-63902465D01*
X33804811Y-63842381D01*
X33752372Y-63796208D01*
X33733220Y-63729015D01*
X33753436Y-63662133D01*
X33804810Y-63617618D01*
X33933662Y-63557534D01*
X34114620Y-63430826D01*
X34270826Y-63274620D01*
X34397534Y-63093662D01*
X34490894Y-62893450D01*
X34548070Y-62680068D01*
X34567323Y-62460000D01*
X34548070Y-62239932D01*
X34490894Y-62026550D01*
X34397534Y-61826339D01*
X34270826Y-61645380D01*
X34114620Y-61489174D01*
X33933662Y-61362466D01*
X33804811Y-61302382D01*
X33752372Y-61256210D01*
X33733220Y-61189016D01*
X33753436Y-61122135D01*
X33804811Y-61077618D01*
X33810027Y-61075185D01*
X33933662Y-61017534D01*
X34114620Y-60890826D01*
X34270826Y-60734620D01*
X34397534Y-60553662D01*
X34490894Y-60353450D01*
X34548070Y-60140068D01*
X34567323Y-59920000D01*
X34548070Y-59699932D01*
X34490894Y-59486550D01*
X34397534Y-59286339D01*
X34270826Y-59105380D01*
X34114620Y-58949174D01*
X33933662Y-58822466D01*
X33929223Y-58820396D01*
X33804811Y-58762381D01*
X33752372Y-58716208D01*
X33733220Y-58649015D01*
X33753436Y-58582133D01*
X33804810Y-58537618D01*
X33933662Y-58477534D01*
X34114620Y-58350826D01*
X34270826Y-58194620D01*
X34397534Y-58013662D01*
X34490894Y-57813450D01*
X34548070Y-57600068D01*
X34567323Y-57380000D01*
X34548070Y-57159932D01*
X34490894Y-56946550D01*
X34397534Y-56746339D01*
X34270826Y-56565380D01*
X34114620Y-56409174D01*
X33933662Y-56282466D01*
X33849271Y-56243114D01*
X33804811Y-56222382D01*
X33752372Y-56176210D01*
X33733220Y-56109016D01*
X33753436Y-56042135D01*
X33804811Y-55997618D01*
X33810027Y-55995185D01*
X33933662Y-55937534D01*
X34114620Y-55810826D01*
X34270826Y-55654620D01*
X34397534Y-55473662D01*
X34490894Y-55273450D01*
X34548070Y-55060068D01*
X34567323Y-54840000D01*
X34548070Y-54619932D01*
X34490894Y-54406550D01*
X34397534Y-54206339D01*
X34270826Y-54025380D01*
X34114620Y-53869174D01*
X33933662Y-53742466D01*
X33933661Y-53742466D01*
X33804811Y-53682381D01*
X33752372Y-53636208D01*
X33733220Y-53569015D01*
X33753436Y-53502133D01*
X33804810Y-53457618D01*
X33933662Y-53397534D01*
X34114620Y-53270826D01*
X34270826Y-53114620D01*
X34397534Y-52933662D01*
X34490894Y-52733450D01*
X34548070Y-52520068D01*
X34567323Y-52300000D01*
X34548070Y-52079932D01*
X34490894Y-51866550D01*
X34397534Y-51666339D01*
X34270826Y-51485380D01*
X34114620Y-51329174D01*
X33933662Y-51202466D01*
X33804811Y-51142382D01*
X33752372Y-51096210D01*
X33733220Y-51029016D01*
X33753436Y-50962135D01*
X33804811Y-50917618D01*
X33856311Y-50893603D01*
X33933662Y-50857534D01*
X34114620Y-50730826D01*
X34270826Y-50574620D01*
X34397534Y-50393662D01*
X34490894Y-50193450D01*
X34548070Y-49980068D01*
X34567323Y-49760000D01*
X34548070Y-49539932D01*
X34490894Y-49326550D01*
X34397534Y-49126339D01*
X34270826Y-48945380D01*
X34114620Y-48789174D01*
X33933662Y-48662466D01*
X33804811Y-48602382D01*
X33752372Y-48556210D01*
X33733220Y-48489016D01*
X33753436Y-48422135D01*
X33804811Y-48377618D01*
X33810027Y-48375185D01*
X33933662Y-48317534D01*
X34114620Y-48190826D01*
X34270826Y-48034620D01*
X34397534Y-47853662D01*
X34490894Y-47653450D01*
X34548070Y-47440068D01*
X34567323Y-47220000D01*
X34548070Y-46999932D01*
X34490894Y-46786550D01*
X34397534Y-46586339D01*
X34270826Y-46405380D01*
X34114620Y-46249174D01*
X33933662Y-46122466D01*
X33804811Y-46062382D01*
X33752372Y-46016210D01*
X33733220Y-45949016D01*
X33753436Y-45882135D01*
X33804811Y-45837618D01*
X33810027Y-45835185D01*
X33933662Y-45777534D01*
X34114620Y-45650826D01*
X34270826Y-45494620D01*
X34397534Y-45313662D01*
X34490894Y-45113450D01*
X34548070Y-44900068D01*
X34567323Y-44680000D01*
X34548070Y-44459932D01*
X34490894Y-44246550D01*
X34397534Y-44046339D01*
X34270826Y-43865380D01*
X34114620Y-43709174D01*
X33933662Y-43582466D01*
X33804811Y-43522382D01*
X33752372Y-43476210D01*
X33733220Y-43409016D01*
X33753436Y-43342135D01*
X33804811Y-43297618D01*
X33810027Y-43295185D01*
X33933662Y-43237534D01*
X34114620Y-43110826D01*
X34270826Y-42954620D01*
X34397534Y-42773662D01*
X34490894Y-42573450D01*
X34548070Y-42360068D01*
X34567323Y-42140000D01*
X34548070Y-41919932D01*
X34490894Y-41706550D01*
X34397534Y-41506339D01*
X34270826Y-41325380D01*
X34114620Y-41169174D01*
X33933662Y-41042466D01*
X33804811Y-40982382D01*
X33752372Y-40936210D01*
X33733220Y-40869016D01*
X33753436Y-40802135D01*
X33804811Y-40757618D01*
X33810027Y-40755185D01*
X33933662Y-40697534D01*
X34114620Y-40570826D01*
X34270826Y-40414620D01*
X34397534Y-40233662D01*
X34490894Y-40033450D01*
X34548070Y-39820068D01*
X34567323Y-39600000D01*
X34548070Y-39379932D01*
X34490894Y-39166550D01*
X34397534Y-38966339D01*
X34270826Y-38785380D01*
X34114620Y-38629174D01*
X33933662Y-38502466D01*
X33804811Y-38442382D01*
X33752372Y-38396210D01*
X33733220Y-38329016D01*
X33753436Y-38262135D01*
X33804811Y-38217618D01*
X33849929Y-38196579D01*
X33933662Y-38157534D01*
X34114620Y-38030826D01*
X34270826Y-37874620D01*
X34397534Y-37693662D01*
X34490894Y-37493450D01*
X34548070Y-37280068D01*
X34567323Y-37060000D01*
X34548070Y-36839932D01*
X34490894Y-36626550D01*
X34397534Y-36426339D01*
X34270826Y-36245380D01*
X34114620Y-36089174D01*
X33933662Y-35962466D01*
X33804811Y-35902382D01*
X33752372Y-35856210D01*
X33733220Y-35789016D01*
X33753436Y-35722135D01*
X33804811Y-35677618D01*
X33810027Y-35675185D01*
X33933662Y-35617534D01*
X34114620Y-35490826D01*
X34270826Y-35334620D01*
X34397534Y-35153662D01*
X34490894Y-34953450D01*
X34548070Y-34740068D01*
X34567323Y-34520000D01*
X34548070Y-34299932D01*
X34490894Y-34086550D01*
X34397534Y-33886339D01*
X34270826Y-33705380D01*
X34114620Y-33549174D01*
X33933662Y-33422466D01*
X33925238Y-33418538D01*
X33733451Y-33329106D01*
X33520065Y-33271929D01*
X33300000Y-33252676D01*
X33079934Y-33271929D01*
X32866548Y-33329106D01*
X32666338Y-33422466D01*
X32485379Y-33549174D01*
X32333181Y-33701373D01*
X32271858Y-33734858D01*
X32202166Y-33729874D01*
X32146233Y-33688002D01*
X32121816Y-33622538D01*
X32121500Y-33613692D01*
X32121500Y-30346308D01*
X32141185Y-30279269D01*
X32193989Y-30233514D01*
X32263147Y-30223570D01*
X32326703Y-30252595D01*
X32333181Y-30258627D01*
X32485380Y-30410826D01*
X32666338Y-30537534D01*
X32866550Y-30630894D01*
X33079932Y-30688070D01*
X33300000Y-30707323D01*
X33520068Y-30688070D01*
X33733450Y-30630894D01*
X33933662Y-30537534D01*
X34114620Y-30410826D01*
X34270826Y-30254620D01*
X34397534Y-30073662D01*
X34490894Y-29873450D01*
X34548070Y-29660068D01*
X34567323Y-29440000D01*
X34548070Y-29219932D01*
X34490894Y-29006550D01*
X34397534Y-28806339D01*
X34324476Y-28702000D01*
X49894540Y-28702000D01*
X49914326Y-28890257D01*
X49972820Y-29070284D01*
X50067466Y-29234216D01*
X50194129Y-29374889D01*
X50347269Y-29486151D01*
X50520197Y-29563144D01*
X50705352Y-29602500D01*
X50705354Y-29602500D01*
X50894648Y-29602500D01*
X51018083Y-29576262D01*
X51079803Y-29563144D01*
X51252730Y-29486151D01*
X51405871Y-29374888D01*
X51532533Y-29234216D01*
X51627179Y-29070284D01*
X51685674Y-28890256D01*
X51703321Y-28722344D01*
X51729904Y-28657734D01*
X51738951Y-28647638D01*
X53215789Y-27170800D01*
X53231885Y-27157906D01*
X53233873Y-27155787D01*
X53233877Y-27155786D01*
X53279949Y-27106723D01*
X53282534Y-27104055D01*
X53302120Y-27084471D01*
X53304585Y-27081292D01*
X53312167Y-27072416D01*
X53342062Y-27040582D01*
X53351712Y-27023027D01*
X53362400Y-27006757D01*
X53374671Y-26990938D01*
X53374673Y-26990936D01*
X53392026Y-26950832D01*
X53397157Y-26940362D01*
X53418197Y-26902092D01*
X53423175Y-26882699D01*
X53429481Y-26864282D01*
X53431018Y-26860728D01*
X53437438Y-26845896D01*
X53444272Y-26802745D01*
X53446634Y-26791335D01*
X53457500Y-26749019D01*
X53457499Y-26728987D01*
X53459025Y-26709591D01*
X53462160Y-26689804D01*
X53458050Y-26646324D01*
X53457500Y-26634655D01*
X53457500Y-25590687D01*
X53477185Y-25523648D01*
X53489350Y-25507714D01*
X53509542Y-25485289D01*
X53564533Y-25424216D01*
X53567612Y-25418884D01*
X53659179Y-25260284D01*
X53693484Y-25154704D01*
X53717674Y-25080256D01*
X53737460Y-24892000D01*
X53717674Y-24703744D01*
X53668613Y-24552750D01*
X53659179Y-24523715D01*
X53564533Y-24359783D01*
X53437870Y-24219110D01*
X53284730Y-24107848D01*
X53111802Y-24030855D01*
X52926648Y-23991500D01*
X52926646Y-23991500D01*
X52737354Y-23991500D01*
X52737352Y-23991500D01*
X52552197Y-24030855D01*
X52379269Y-24107848D01*
X52226129Y-24219110D01*
X52099466Y-24359783D01*
X52004820Y-24523715D01*
X51946326Y-24703742D01*
X51926540Y-24892000D01*
X51946326Y-25080257D01*
X52004820Y-25260284D01*
X52099464Y-25424213D01*
X52126616Y-25454368D01*
X52152771Y-25483416D01*
X52174650Y-25507714D01*
X52204880Y-25570706D01*
X52206500Y-25590687D01*
X52206500Y-26359547D01*
X52186815Y-26426586D01*
X52170181Y-26447228D01*
X50852228Y-27765181D01*
X50790905Y-27798666D01*
X50764547Y-27801500D01*
X50705352Y-27801500D01*
X50520197Y-27840855D01*
X50347269Y-27917848D01*
X50194129Y-28029110D01*
X50067466Y-28169783D01*
X49972820Y-28333715D01*
X49914326Y-28513742D01*
X49894540Y-28702000D01*
X34324476Y-28702000D01*
X34270826Y-28625380D01*
X34114620Y-28469174D01*
X33933662Y-28342466D01*
X33923851Y-28337891D01*
X33733451Y-28249106D01*
X33520065Y-28191929D01*
X33300000Y-28172676D01*
X33079934Y-28191929D01*
X32866548Y-28249106D01*
X32666338Y-28342466D01*
X32485382Y-28469172D01*
X32333181Y-28621373D01*
X32271858Y-28654857D01*
X32202166Y-28649873D01*
X32146233Y-28608001D01*
X32121816Y-28542537D01*
X32121500Y-28533691D01*
X32121500Y-25021913D01*
X32123764Y-25001409D01*
X32121561Y-24931282D01*
X32121500Y-24927388D01*
X32121500Y-24903711D01*
X32121500Y-24899820D01*
X32120998Y-24895853D01*
X32120081Y-24884197D01*
X32120079Y-24884135D01*
X32118710Y-24840543D01*
X32113118Y-24821296D01*
X32109174Y-24802255D01*
X32106664Y-24782378D01*
X32090579Y-24741753D01*
X32086808Y-24730738D01*
X32074618Y-24688780D01*
X32064414Y-24671525D01*
X32055861Y-24654065D01*
X32048486Y-24635439D01*
X32048486Y-24635438D01*
X32022808Y-24600095D01*
X32016401Y-24590341D01*
X32009276Y-24578293D01*
X31994170Y-24552750D01*
X31980006Y-24538586D01*
X31967367Y-24523787D01*
X31955595Y-24507583D01*
X31921941Y-24479743D01*
X31913299Y-24471879D01*
X29096259Y-21654838D01*
X29062774Y-21593515D01*
X29067758Y-21523823D01*
X29109630Y-21467890D01*
X29175094Y-21443473D01*
X29183940Y-21443157D01*
X42853599Y-21443157D01*
X42874105Y-21445421D01*
X42877008Y-21445329D01*
X42877010Y-21445330D01*
X42944215Y-21443218D01*
X42948111Y-21443157D01*
X42971791Y-21443157D01*
X42975693Y-21443157D01*
X42979656Y-21442656D01*
X42991305Y-21441737D01*
X43034970Y-21440366D01*
X43054202Y-21434777D01*
X43073261Y-21430831D01*
X43079539Y-21430038D01*
X43093135Y-21428321D01*
X43133750Y-21412239D01*
X43144787Y-21408460D01*
X43186733Y-21396275D01*
X43203972Y-21386079D01*
X43221445Y-21377519D01*
X43240075Y-21370143D01*
X43275407Y-21344471D01*
X43285173Y-21338057D01*
X43322761Y-21315828D01*
X43322760Y-21315828D01*
X43322763Y-21315827D01*
X43336928Y-21301661D01*
X43351716Y-21289030D01*
X43367930Y-21277251D01*
X43395054Y-21244461D01*
X43452953Y-21205353D01*
X43490600Y-21199500D01*
X44322947Y-21199500D01*
X44389986Y-21219185D01*
X44435741Y-21271989D01*
X44445685Y-21341147D01*
X44416660Y-21404703D01*
X44395832Y-21423818D01*
X44380126Y-21435228D01*
X44380115Y-21435236D01*
X44376970Y-21437522D01*
X44374135Y-21440183D01*
X44374128Y-21440190D01*
X44150447Y-21650241D01*
X44150440Y-21650248D01*
X44147610Y-21652906D01*
X44145135Y-21655897D01*
X44145131Y-21655902D01*
X43949536Y-21892334D01*
X43949526Y-21892346D01*
X43947053Y-21895337D01*
X43944971Y-21898616D01*
X43944962Y-21898630D01*
X43780548Y-22157706D01*
X43780541Y-22157717D01*
X43778463Y-22160993D01*
X43776810Y-22164504D01*
X43776807Y-22164511D01*
X43664206Y-22403801D01*
X43644497Y-22445685D01*
X43643295Y-22449382D01*
X43643293Y-22449389D01*
X43584539Y-22630216D01*
X43547269Y-22744921D01*
X43546540Y-22748741D01*
X43546538Y-22748750D01*
X43489041Y-23050158D01*
X43489038Y-23050174D01*
X43488312Y-23053985D01*
X43468556Y-23368000D01*
X43488312Y-23682015D01*
X43489039Y-23685827D01*
X43489041Y-23685841D01*
X43545193Y-23980196D01*
X43547269Y-23991079D01*
X43548473Y-23994786D01*
X43548474Y-23994788D01*
X43629257Y-24243413D01*
X43644497Y-24290315D01*
X43646153Y-24293834D01*
X43758863Y-24533356D01*
X43778463Y-24575007D01*
X43780545Y-24578288D01*
X43780548Y-24578293D01*
X43944962Y-24837369D01*
X43944966Y-24837375D01*
X43947053Y-24840663D01*
X43949532Y-24843660D01*
X43949536Y-24843665D01*
X44063595Y-24981538D01*
X44147610Y-25083094D01*
X44376970Y-25298478D01*
X44631516Y-25483416D01*
X44907234Y-25634994D01*
X45199775Y-25750819D01*
X45504527Y-25829066D01*
X45816682Y-25868500D01*
X45820577Y-25868500D01*
X46127423Y-25868500D01*
X46131318Y-25868500D01*
X46443473Y-25829066D01*
X46748225Y-25750819D01*
X47040766Y-25634994D01*
X47316484Y-25483416D01*
X47571030Y-25298478D01*
X47800390Y-25083094D01*
X48000947Y-24840663D01*
X48169537Y-24575007D01*
X48303503Y-24290315D01*
X48400731Y-23991079D01*
X48459688Y-23682015D01*
X48479444Y-23368000D01*
X48459688Y-23053985D01*
X48400731Y-22744921D01*
X48303503Y-22445685D01*
X48169537Y-22160993D01*
X48010089Y-21909742D01*
X48003037Y-21898630D01*
X48003035Y-21898627D01*
X48000947Y-21895337D01*
X47800390Y-21652906D01*
X47571030Y-21437522D01*
X47566529Y-21434252D01*
X47552168Y-21423818D01*
X47509502Y-21368488D01*
X47503523Y-21298875D01*
X47536129Y-21237080D01*
X47596967Y-21202723D01*
X47625053Y-21199500D01*
X47949546Y-21199500D01*
X48016585Y-21219185D01*
X48037227Y-21235818D01*
X48109387Y-21307977D01*
X48122284Y-21324076D01*
X48124404Y-21326067D01*
X48124405Y-21326068D01*
X48173434Y-21372108D01*
X48176195Y-21374785D01*
X48195720Y-21394311D01*
X48198900Y-21396778D01*
X48207762Y-21404346D01*
X48239609Y-21434253D01*
X48255806Y-21443157D01*
X48257163Y-21443903D01*
X48273427Y-21454587D01*
X48284070Y-21462842D01*
X48289255Y-21466864D01*
X48314100Y-21477615D01*
X48329343Y-21484212D01*
X48339822Y-21489345D01*
X48378099Y-21510388D01*
X48397497Y-21515368D01*
X48415899Y-21521668D01*
X48434295Y-21529629D01*
X48477452Y-21536464D01*
X48488855Y-21538825D01*
X48531172Y-21549691D01*
X48551207Y-21549691D01*
X48570604Y-21551217D01*
X48590387Y-21554351D01*
X48633865Y-21550241D01*
X48645535Y-21549691D01*
X58751984Y-21549691D01*
X58819023Y-21569376D01*
X58864778Y-21622180D01*
X58874722Y-21691338D01*
X58865841Y-21716994D01*
X58866848Y-21717321D01*
X58804326Y-21909742D01*
X58784540Y-22097999D01*
X58804326Y-22286257D01*
X58862820Y-22466284D01*
X58957466Y-22630216D01*
X59084129Y-22770889D01*
X59237269Y-22882151D01*
X59410197Y-22959144D01*
X59595352Y-22998500D01*
X59595354Y-22998500D01*
X59784648Y-22998500D01*
X59908083Y-22972262D01*
X59969803Y-22959144D01*
X60142730Y-22882151D01*
X60295871Y-22770888D01*
X60422533Y-22630216D01*
X60517179Y-22466284D01*
X60575674Y-22286256D01*
X60595460Y-22098000D01*
X60575674Y-21909744D01*
X60546652Y-21820425D01*
X60513152Y-21717321D01*
X60515951Y-21716411D01*
X60504156Y-21667793D01*
X60527007Y-21601766D01*
X60581928Y-21558574D01*
X60628016Y-21549691D01*
X62850878Y-21549691D01*
X62917917Y-21569376D01*
X62963672Y-21622180D01*
X62974199Y-21660730D01*
X62992772Y-21837448D01*
X63051266Y-22017475D01*
X63145910Y-22181404D01*
X63221096Y-22264905D01*
X63251326Y-22327897D01*
X63252946Y-22347878D01*
X63252946Y-24203100D01*
X63233261Y-24270139D01*
X63216627Y-24290781D01*
X62072298Y-25435109D01*
X62010975Y-25468594D01*
X61941283Y-25463610D01*
X61885350Y-25421738D01*
X61861297Y-25360391D01*
X61845674Y-25211744D01*
X61815332Y-25118363D01*
X61787179Y-25031715D01*
X61692533Y-24867783D01*
X61565870Y-24727110D01*
X61412730Y-24615848D01*
X61239802Y-24538855D01*
X61054648Y-24499500D01*
X61054646Y-24499500D01*
X60865354Y-24499500D01*
X60865352Y-24499500D01*
X60680197Y-24538855D01*
X60507269Y-24615848D01*
X60354129Y-24727110D01*
X60227466Y-24867783D01*
X60132820Y-25031715D01*
X60074326Y-25211742D01*
X60056679Y-25379649D01*
X60030094Y-25444263D01*
X60021039Y-25454368D01*
X58316208Y-27159199D01*
X58300110Y-27172096D01*
X58252096Y-27223225D01*
X58249392Y-27226016D01*
X58232628Y-27242780D01*
X58232621Y-27242787D01*
X58229880Y-27245529D01*
X58227499Y-27248597D01*
X58227490Y-27248608D01*
X58227411Y-27248711D01*
X58219842Y-27257572D01*
X58189935Y-27289420D01*
X58180285Y-27306974D01*
X58169609Y-27323228D01*
X58157326Y-27339063D01*
X58139975Y-27379158D01*
X58134838Y-27389644D01*
X58113802Y-27427907D01*
X58108821Y-27447309D01*
X58102520Y-27465711D01*
X58094561Y-27484102D01*
X58087728Y-27527242D01*
X58085360Y-27538674D01*
X58074500Y-27580977D01*
X58074500Y-27601016D01*
X58072973Y-27620414D01*
X58069840Y-27640194D01*
X58073950Y-27683673D01*
X58074500Y-27695343D01*
X58074500Y-28272201D01*
X58054815Y-28339240D01*
X58021623Y-28373776D01*
X57885379Y-28469174D01*
X57729174Y-28625379D01*
X57602466Y-28806338D01*
X57509106Y-29006548D01*
X57451929Y-29219934D01*
X57432676Y-29440000D01*
X57451929Y-29660065D01*
X57509106Y-29873451D01*
X57602466Y-30073662D01*
X57729174Y-30254620D01*
X57885380Y-30410826D01*
X58066338Y-30537534D01*
X58266550Y-30630894D01*
X58479932Y-30688070D01*
X58700000Y-30707323D01*
X58920068Y-30688070D01*
X59133450Y-30630894D01*
X59333662Y-30537534D01*
X59377377Y-30506924D01*
X59443582Y-30484598D01*
X59511349Y-30501608D01*
X59559162Y-30552556D01*
X59572499Y-30608500D01*
X59572499Y-33351499D01*
X59552814Y-33418538D01*
X59500010Y-33464293D01*
X59430852Y-33474237D01*
X59377377Y-33453075D01*
X59333662Y-33422466D01*
X59133451Y-33329106D01*
X58920065Y-33271929D01*
X58700000Y-33252676D01*
X58479933Y-33271929D01*
X58435978Y-33283707D01*
X58366128Y-33282044D01*
X58316204Y-33251613D01*
X55525818Y-30461227D01*
X55492333Y-30399904D01*
X55489499Y-30373555D01*
X55489500Y-26637187D01*
X55509185Y-26570148D01*
X55521350Y-26554214D01*
X55548874Y-26523646D01*
X55596533Y-26470716D01*
X55608583Y-26449846D01*
X55691179Y-26306784D01*
X55715038Y-26233354D01*
X55749674Y-26126756D01*
X55769460Y-25938500D01*
X55749674Y-25750244D01*
X55700607Y-25599231D01*
X55691179Y-25570215D01*
X55596533Y-25406283D01*
X55469870Y-25265610D01*
X55316730Y-25154348D01*
X55143802Y-25077355D01*
X54958648Y-25038000D01*
X54958646Y-25038000D01*
X54769354Y-25038000D01*
X54769352Y-25038000D01*
X54584197Y-25077355D01*
X54411269Y-25154348D01*
X54258129Y-25265610D01*
X54131466Y-25406283D01*
X54036820Y-25570215D01*
X53978326Y-25750242D01*
X53958540Y-25938500D01*
X53978326Y-26126757D01*
X54036820Y-26306784D01*
X54131464Y-26470713D01*
X54206650Y-26554214D01*
X54236880Y-26617206D01*
X54238500Y-26637187D01*
X54238500Y-30601256D01*
X54236235Y-30621766D01*
X54238439Y-30691872D01*
X54238500Y-30695767D01*
X54238500Y-30723350D01*
X54238988Y-30727219D01*
X54238989Y-30727225D01*
X54239004Y-30727343D01*
X54239918Y-30738967D01*
X54241290Y-30782626D01*
X54246879Y-30801860D01*
X54250825Y-30820916D01*
X54253335Y-30840792D01*
X54269414Y-30881404D01*
X54273197Y-30892451D01*
X54285382Y-30934391D01*
X54295580Y-30951635D01*
X54304136Y-30969100D01*
X54311514Y-30987732D01*
X54311515Y-30987733D01*
X54337180Y-31023059D01*
X54343593Y-31032822D01*
X54365826Y-31070416D01*
X54365829Y-31070419D01*
X54365830Y-31070420D01*
X54379995Y-31084585D01*
X54392627Y-31099375D01*
X54404406Y-31115587D01*
X54438058Y-31143426D01*
X54446699Y-31151289D01*
X57431613Y-34136204D01*
X57465098Y-34197527D01*
X57463707Y-34255978D01*
X57451929Y-34299933D01*
X57432676Y-34520000D01*
X57451929Y-34740065D01*
X57451930Y-34740068D01*
X57509106Y-34953450D01*
X57602466Y-35153662D01*
X57729174Y-35334620D01*
X57885380Y-35490826D01*
X58066338Y-35617534D01*
X58185748Y-35673215D01*
X58195189Y-35677618D01*
X58247628Y-35723790D01*
X58266780Y-35790984D01*
X58246564Y-35857865D01*
X58195189Y-35902382D01*
X58066338Y-35962466D01*
X57885379Y-36089174D01*
X57729174Y-36245379D01*
X57602466Y-36426338D01*
X57509106Y-36626548D01*
X57451929Y-36839934D01*
X57432676Y-37060000D01*
X57451929Y-37280065D01*
X57503739Y-37473423D01*
X57509106Y-37493450D01*
X57602466Y-37693662D01*
X57729174Y-37874620D01*
X57885380Y-38030826D01*
X58066338Y-38157534D01*
X58150071Y-38196579D01*
X58195189Y-38217618D01*
X58247628Y-38263790D01*
X58266780Y-38330984D01*
X58246564Y-38397865D01*
X58195189Y-38442382D01*
X58066338Y-38502466D01*
X57885379Y-38629174D01*
X57729174Y-38785379D01*
X57602466Y-38966338D01*
X57509106Y-39166548D01*
X57451929Y-39379934D01*
X57432676Y-39600000D01*
X57451929Y-39820065D01*
X57509106Y-40033451D01*
X57565647Y-40154704D01*
X57602466Y-40233662D01*
X57729174Y-40414620D01*
X57885380Y-40570826D01*
X58066338Y-40697534D01*
X58185748Y-40753215D01*
X58195189Y-40757618D01*
X58247628Y-40803790D01*
X58266780Y-40870984D01*
X58246564Y-40937865D01*
X58195189Y-40982382D01*
X58066338Y-41042466D01*
X57885379Y-41169174D01*
X57729174Y-41325379D01*
X57602466Y-41506338D01*
X57509106Y-41706548D01*
X57451929Y-41919934D01*
X57432676Y-42140000D01*
X57451929Y-42360065D01*
X57453330Y-42365295D01*
X57509106Y-42573450D01*
X57602466Y-42773662D01*
X57729174Y-42954620D01*
X57885380Y-43110826D01*
X58066338Y-43237534D01*
X58185748Y-43293215D01*
X58195189Y-43297618D01*
X58247628Y-43343790D01*
X58266780Y-43410984D01*
X58246564Y-43477865D01*
X58195189Y-43522382D01*
X58066338Y-43582466D01*
X57885379Y-43709174D01*
X57729174Y-43865379D01*
X57602466Y-44046338D01*
X57509106Y-44246548D01*
X57451929Y-44459934D01*
X57432676Y-44680000D01*
X57451929Y-44900065D01*
X57495800Y-45063794D01*
X57509106Y-45113450D01*
X57602466Y-45313662D01*
X57729174Y-45494620D01*
X57885380Y-45650826D01*
X58066338Y-45777534D01*
X58185748Y-45833215D01*
X58195189Y-45837618D01*
X58247628Y-45883790D01*
X58266780Y-45950984D01*
X58246564Y-46017865D01*
X58195189Y-46062382D01*
X58066338Y-46122466D01*
X57885379Y-46249174D01*
X57729174Y-46405379D01*
X57602466Y-46586338D01*
X57509106Y-46786548D01*
X57451929Y-46999934D01*
X57432676Y-47220000D01*
X57451929Y-47440065D01*
X57453330Y-47445295D01*
X57509106Y-47653450D01*
X57602466Y-47853662D01*
X57729174Y-48034620D01*
X57885380Y-48190826D01*
X58066338Y-48317534D01*
X58185748Y-48373215D01*
X58195189Y-48377618D01*
X58247628Y-48423790D01*
X58266780Y-48490984D01*
X58246564Y-48557865D01*
X58195189Y-48602382D01*
X58066338Y-48662466D01*
X57885379Y-48789174D01*
X57729174Y-48945379D01*
X57602466Y-49126338D01*
X57509106Y-49326548D01*
X57451929Y-49539934D01*
X57432676Y-49760000D01*
X57451929Y-49980065D01*
X57509106Y-50193451D01*
X57572091Y-50328523D01*
X57602466Y-50393662D01*
X57729174Y-50574620D01*
X57885380Y-50730826D01*
X58066338Y-50857534D01*
X58143689Y-50893603D01*
X58195189Y-50917618D01*
X58247628Y-50963790D01*
X58266780Y-51030984D01*
X58246564Y-51097865D01*
X58195189Y-51142382D01*
X58066338Y-51202466D01*
X57885379Y-51329174D01*
X57729174Y-51485379D01*
X57602466Y-51666338D01*
X57509106Y-51866548D01*
X57451929Y-52079934D01*
X57432676Y-52300000D01*
X57451929Y-52520065D01*
X57509106Y-52733451D01*
X57602466Y-52933662D01*
X57729174Y-53114620D01*
X57885380Y-53270826D01*
X58066338Y-53397534D01*
X58104575Y-53415364D01*
X58195189Y-53457618D01*
X58247628Y-53503790D01*
X58266780Y-53570984D01*
X58246564Y-53637865D01*
X58195189Y-53682382D01*
X58066338Y-53742466D01*
X57885379Y-53869174D01*
X57729174Y-54025379D01*
X57602466Y-54206338D01*
X57509106Y-54406548D01*
X57451929Y-54619934D01*
X57432676Y-54840000D01*
X57451929Y-55060065D01*
X57508122Y-55269780D01*
X57509106Y-55273450D01*
X57602466Y-55473662D01*
X57729174Y-55654620D01*
X57885380Y-55810826D01*
X58066338Y-55937534D01*
X58185748Y-55993215D01*
X58195189Y-55997618D01*
X58247628Y-56043790D01*
X58266780Y-56110984D01*
X58246564Y-56177865D01*
X58195189Y-56222382D01*
X58066338Y-56282466D01*
X57885379Y-56409174D01*
X57729174Y-56565379D01*
X57602466Y-56746338D01*
X57509106Y-56946548D01*
X57451929Y-57159934D01*
X57432676Y-57380000D01*
X57451929Y-57600065D01*
X57509106Y-57813451D01*
X57560080Y-57922765D01*
X57602466Y-58013662D01*
X57729174Y-58194620D01*
X57885380Y-58350826D01*
X58066338Y-58477534D01*
X58185324Y-58533018D01*
X58195189Y-58537618D01*
X58247628Y-58583790D01*
X58266780Y-58650984D01*
X58246564Y-58717865D01*
X58195189Y-58762382D01*
X58066338Y-58822466D01*
X57885379Y-58949174D01*
X57729174Y-59105379D01*
X57602466Y-59286338D01*
X57509106Y-59486548D01*
X57451929Y-59699934D01*
X57432676Y-59920000D01*
X57451929Y-60140065D01*
X57509106Y-60353451D01*
X57560080Y-60462765D01*
X57602466Y-60553662D01*
X57729174Y-60734620D01*
X57885380Y-60890826D01*
X58066338Y-61017534D01*
X58185748Y-61073215D01*
X58195189Y-61077618D01*
X58247628Y-61123790D01*
X58266780Y-61190984D01*
X58246564Y-61257865D01*
X58195189Y-61302382D01*
X58066338Y-61362466D01*
X57885379Y-61489174D01*
X57729174Y-61645379D01*
X57602466Y-61826338D01*
X57509106Y-62026548D01*
X57451929Y-62239934D01*
X57432676Y-62460000D01*
X57451929Y-62680065D01*
X57509106Y-62893451D01*
X57569406Y-63022765D01*
X57602466Y-63093662D01*
X57729174Y-63274620D01*
X57885380Y-63430826D01*
X58001204Y-63511927D01*
X58044828Y-63566502D01*
X58052022Y-63636000D01*
X58020499Y-63698355D01*
X57960270Y-63733769D01*
X57930083Y-63737500D01*
X57893440Y-63737500D01*
X57893421Y-63737500D01*
X57890128Y-63737501D01*
X57886848Y-63737853D01*
X57886840Y-63737854D01*
X57830515Y-63743909D01*
X57695669Y-63794204D01*
X57580454Y-63880454D01*
X57494204Y-63995668D01*
X57443910Y-64130515D01*
X57443909Y-64130517D01*
X57437500Y-64190127D01*
X57437500Y-64193448D01*
X57437500Y-64193449D01*
X57437500Y-65806560D01*
X57437500Y-65806578D01*
X57437501Y-65809872D01*
X57443909Y-65869483D01*
X57494204Y-66004331D01*
X57580454Y-66119546D01*
X57695669Y-66205796D01*
X57830517Y-66256091D01*
X57890127Y-66262500D01*
X59509872Y-66262499D01*
X59569483Y-66256091D01*
X59704331Y-66205796D01*
X59819546Y-66119546D01*
X59905796Y-66004331D01*
X59956091Y-65869483D01*
X59962500Y-65809873D01*
X59962499Y-64190128D01*
X59956091Y-64130517D01*
X59905796Y-63995669D01*
X59819546Y-63880454D01*
X59704331Y-63794204D01*
X59569483Y-63743909D01*
X59509873Y-63737500D01*
X59506551Y-63737500D01*
X59469921Y-63737500D01*
X59402882Y-63717815D01*
X59357127Y-63665011D01*
X59347183Y-63595853D01*
X59376208Y-63532297D01*
X59398798Y-63511925D01*
X59514620Y-63430826D01*
X59670826Y-63274620D01*
X59797534Y-63093662D01*
X59890894Y-62893450D01*
X59948070Y-62680068D01*
X59967323Y-62460000D01*
X59948070Y-62239932D01*
X59890894Y-62026550D01*
X59797534Y-61826339D01*
X59670826Y-61645380D01*
X59514620Y-61489174D01*
X59333662Y-61362466D01*
X59204811Y-61302382D01*
X59152372Y-61256210D01*
X59133220Y-61189016D01*
X59153436Y-61122135D01*
X59204811Y-61077618D01*
X59210027Y-61075185D01*
X59333662Y-61017534D01*
X59514620Y-60890826D01*
X59670826Y-60734620D01*
X59797534Y-60553662D01*
X59890894Y-60353450D01*
X59948070Y-60140068D01*
X59967323Y-59920000D01*
X59948070Y-59699932D01*
X59890894Y-59486550D01*
X59797534Y-59286339D01*
X59670826Y-59105380D01*
X59514620Y-58949174D01*
X59333662Y-58822466D01*
X59329223Y-58820396D01*
X59204811Y-58762381D01*
X59152372Y-58716208D01*
X59133220Y-58649015D01*
X59153436Y-58582133D01*
X59204810Y-58537618D01*
X59333662Y-58477534D01*
X59514620Y-58350826D01*
X59670826Y-58194620D01*
X59797534Y-58013662D01*
X59890894Y-57813450D01*
X59948070Y-57600068D01*
X59967323Y-57380000D01*
X59948070Y-57159932D01*
X59890894Y-56946550D01*
X59797534Y-56746339D01*
X59670826Y-56565380D01*
X59514620Y-56409174D01*
X59333662Y-56282466D01*
X59249271Y-56243114D01*
X59204811Y-56222382D01*
X59152372Y-56176210D01*
X59133220Y-56109016D01*
X59153436Y-56042135D01*
X59204811Y-55997618D01*
X59210027Y-55995185D01*
X59333662Y-55937534D01*
X59514620Y-55810826D01*
X59670826Y-55654620D01*
X59797534Y-55473662D01*
X59890894Y-55273450D01*
X59948070Y-55060068D01*
X59967323Y-54840000D01*
X59948070Y-54619932D01*
X59890894Y-54406550D01*
X59797534Y-54206339D01*
X59670826Y-54025380D01*
X59514620Y-53869174D01*
X59333662Y-53742466D01*
X59333661Y-53742466D01*
X59204811Y-53682381D01*
X59152372Y-53636208D01*
X59133220Y-53569015D01*
X59153436Y-53502133D01*
X59204810Y-53457618D01*
X59333662Y-53397534D01*
X59514620Y-53270826D01*
X59670826Y-53114620D01*
X59797534Y-52933662D01*
X59890894Y-52733450D01*
X59948070Y-52520068D01*
X59967323Y-52300000D01*
X59948070Y-52079932D01*
X59890894Y-51866550D01*
X59797534Y-51666339D01*
X59670826Y-51485380D01*
X59514620Y-51329174D01*
X59333662Y-51202466D01*
X59204811Y-51142382D01*
X59152372Y-51096210D01*
X59133220Y-51029016D01*
X59153436Y-50962135D01*
X59204811Y-50917618D01*
X59256311Y-50893603D01*
X59333662Y-50857534D01*
X59514620Y-50730826D01*
X59670826Y-50574620D01*
X59797534Y-50393662D01*
X59890894Y-50193450D01*
X59948070Y-49980068D01*
X59967323Y-49760000D01*
X59948070Y-49539932D01*
X59890894Y-49326550D01*
X59797534Y-49126339D01*
X59670826Y-48945380D01*
X59514620Y-48789174D01*
X59333662Y-48662466D01*
X59204811Y-48602382D01*
X59152372Y-48556210D01*
X59133220Y-48489016D01*
X59153436Y-48422135D01*
X59204811Y-48377618D01*
X59210027Y-48375185D01*
X59333662Y-48317534D01*
X59514620Y-48190826D01*
X59670826Y-48034620D01*
X59797534Y-47853662D01*
X59890894Y-47653450D01*
X59948070Y-47440068D01*
X59967323Y-47220000D01*
X59948070Y-46999932D01*
X59890894Y-46786550D01*
X59797534Y-46586339D01*
X59670826Y-46405380D01*
X59514620Y-46249174D01*
X59333662Y-46122466D01*
X59204811Y-46062382D01*
X59152372Y-46016210D01*
X59133220Y-45949016D01*
X59153436Y-45882135D01*
X59204811Y-45837618D01*
X59210027Y-45835185D01*
X59333662Y-45777534D01*
X59514620Y-45650826D01*
X59670826Y-45494620D01*
X59766224Y-45358376D01*
X59820801Y-45314752D01*
X59867799Y-45305500D01*
X61133548Y-45305500D01*
X61200587Y-45325185D01*
X61221229Y-45341819D01*
X63206737Y-47327327D01*
X63240222Y-47388650D01*
X63243056Y-47415008D01*
X63243056Y-50846003D01*
X63223371Y-50913042D01*
X63211206Y-50928975D01*
X63136022Y-51012474D01*
X63041376Y-51176406D01*
X62982882Y-51356433D01*
X62963096Y-51544690D01*
X62982882Y-51732948D01*
X63041376Y-51912975D01*
X63136022Y-52076907D01*
X63262685Y-52217580D01*
X63415825Y-52328842D01*
X63588753Y-52405835D01*
X63773908Y-52445191D01*
X63773910Y-52445191D01*
X63963204Y-52445191D01*
X64086640Y-52418953D01*
X64148359Y-52405835D01*
X64321286Y-52328842D01*
X64360984Y-52300000D01*
X64474426Y-52217580D01*
X64601089Y-52076907D01*
X64695735Y-51912975D01*
X64710820Y-51866548D01*
X64754230Y-51732947D01*
X64774016Y-51544691D01*
X64754230Y-51356435D01*
X64704202Y-51202466D01*
X64695735Y-51176406D01*
X64601091Y-51012477D01*
X64589034Y-50999087D01*
X64525903Y-50928973D01*
X64495675Y-50865984D01*
X64494055Y-50846015D01*
X64494055Y-47187305D01*
X64496320Y-47166796D01*
X64494117Y-47096681D01*
X64494056Y-47092787D01*
X64494056Y-47069096D01*
X64494056Y-47065206D01*
X64493554Y-47061233D01*
X64492636Y-47049574D01*
X64492197Y-47035606D01*
X64491265Y-47005929D01*
X64485676Y-46986696D01*
X64481730Y-46967638D01*
X64479220Y-46947762D01*
X64463144Y-46907160D01*
X64459360Y-46896109D01*
X64453437Y-46875724D01*
X64447174Y-46854166D01*
X64436970Y-46836911D01*
X64428417Y-46819451D01*
X64421042Y-46800824D01*
X64395364Y-46765481D01*
X64388957Y-46755727D01*
X64366725Y-46718135D01*
X64352562Y-46703972D01*
X64339923Y-46689173D01*
X64328151Y-46672969D01*
X64294497Y-46645129D01*
X64285855Y-46637265D01*
X61944802Y-44296211D01*
X61931906Y-44280113D01*
X61880775Y-44232098D01*
X61877978Y-44229387D01*
X61861227Y-44212636D01*
X61858471Y-44209880D01*
X61855290Y-44207412D01*
X61846422Y-44199837D01*
X61814582Y-44169938D01*
X61797024Y-44160285D01*
X61780764Y-44149604D01*
X61764936Y-44137327D01*
X61724851Y-44119980D01*
X61714361Y-44114841D01*
X61676091Y-44093802D01*
X61656691Y-44088821D01*
X61638284Y-44082519D01*
X61619897Y-44074562D01*
X61576758Y-44067729D01*
X61565324Y-44065361D01*
X61523019Y-44054500D01*
X61502984Y-44054500D01*
X61483586Y-44052973D01*
X61476162Y-44051797D01*
X61463805Y-44049840D01*
X61463804Y-44049840D01*
X61430751Y-44052964D01*
X61420325Y-44053950D01*
X61408656Y-44054500D01*
X59867799Y-44054500D01*
X59800760Y-44034815D01*
X59766224Y-44001623D01*
X59721126Y-43937217D01*
X59670826Y-43865380D01*
X59514620Y-43709174D01*
X59333662Y-43582466D01*
X59204811Y-43522382D01*
X59152372Y-43476210D01*
X59133220Y-43409016D01*
X59153436Y-43342135D01*
X59204811Y-43297618D01*
X59210027Y-43295185D01*
X59333662Y-43237534D01*
X59514620Y-43110826D01*
X59670826Y-42954620D01*
X59797534Y-42773662D01*
X59890894Y-42573450D01*
X59948070Y-42360068D01*
X59967323Y-42140000D01*
X59948070Y-41919932D01*
X59936292Y-41875976D01*
X59937955Y-41806128D01*
X59968384Y-41756204D01*
X63926258Y-37798330D01*
X63942358Y-37785433D01*
X63944346Y-37783315D01*
X63944349Y-37783314D01*
X63990436Y-37734235D01*
X63993021Y-37731567D01*
X64012592Y-37711998D01*
X64015037Y-37708844D01*
X64022626Y-37699957D01*
X64052534Y-37668110D01*
X64062185Y-37650554D01*
X64072865Y-37634295D01*
X64085146Y-37618464D01*
X64102490Y-37578379D01*
X64107632Y-37567884D01*
X64116553Y-37551657D01*
X64128669Y-37529620D01*
X64133650Y-37510216D01*
X64139952Y-37491811D01*
X64147910Y-37473423D01*
X64154742Y-37430276D01*
X64157111Y-37418844D01*
X64167972Y-37376548D01*
X64167972Y-37356511D01*
X64169499Y-37337112D01*
X64172632Y-37317332D01*
X64168519Y-37273831D01*
X64167971Y-37262203D01*
X64167971Y-36857205D01*
X64187656Y-36790167D01*
X64199819Y-36774236D01*
X64275005Y-36690736D01*
X64369651Y-36526804D01*
X64428146Y-36346776D01*
X64447932Y-36158520D01*
X64428146Y-35970264D01*
X64391087Y-35856210D01*
X64369651Y-35790235D01*
X64275005Y-35626303D01*
X64148342Y-35485630D01*
X63995202Y-35374368D01*
X63822274Y-35297375D01*
X63637120Y-35258020D01*
X63637118Y-35258020D01*
X63447826Y-35258020D01*
X63447824Y-35258020D01*
X63262669Y-35297375D01*
X63089741Y-35374368D01*
X62936601Y-35485630D01*
X62809938Y-35626303D01*
X62715292Y-35790235D01*
X62656798Y-35970262D01*
X62637012Y-36158520D01*
X62656798Y-36346777D01*
X62715292Y-36526804D01*
X62809936Y-36690733D01*
X62885122Y-36774234D01*
X62915352Y-36837226D01*
X62916972Y-36857207D01*
X62916972Y-36987074D01*
X62897287Y-37054113D01*
X62880653Y-37074755D01*
X60171017Y-39784391D01*
X60109694Y-39817876D01*
X60040002Y-39812892D01*
X59984069Y-39771020D01*
X59959652Y-39705556D01*
X59959808Y-39685903D01*
X59967323Y-39599999D01*
X59948070Y-39379930D01*
X59936293Y-39335979D01*
X59937954Y-39266129D01*
X59968384Y-39216205D01*
X60581789Y-38602800D01*
X60597885Y-38589906D01*
X60599873Y-38587787D01*
X60599877Y-38587786D01*
X60645949Y-38538723D01*
X60648534Y-38536055D01*
X60668120Y-38516471D01*
X60670585Y-38513292D01*
X60678167Y-38504416D01*
X60679998Y-38502466D01*
X60708062Y-38472582D01*
X60717712Y-38455027D01*
X60728400Y-38438757D01*
X60740671Y-38422938D01*
X60740673Y-38422936D01*
X60758026Y-38382832D01*
X60763157Y-38372362D01*
X60784197Y-38334092D01*
X60789175Y-38314699D01*
X60795481Y-38296282D01*
X60797018Y-38292728D01*
X60803438Y-38277896D01*
X60810272Y-38234745D01*
X60812635Y-38223331D01*
X60823500Y-38181019D01*
X60823500Y-38160983D01*
X60825027Y-38141584D01*
X60825310Y-38139796D01*
X60828160Y-38121804D01*
X60824050Y-38078324D01*
X60823500Y-38066655D01*
X60823500Y-28504450D01*
X60843185Y-28437411D01*
X60859814Y-28416774D01*
X64262232Y-25014356D01*
X64278332Y-25001459D01*
X64280320Y-24999341D01*
X64280323Y-24999340D01*
X64326410Y-24950261D01*
X64328995Y-24947593D01*
X64348566Y-24928024D01*
X64351011Y-24924870D01*
X64358600Y-24915983D01*
X64388508Y-24884136D01*
X64398159Y-24866580D01*
X64408839Y-24850321D01*
X64421120Y-24834490D01*
X64438464Y-24794405D01*
X64443606Y-24783910D01*
X64444449Y-24782377D01*
X64464643Y-24745646D01*
X64469624Y-24726242D01*
X64475926Y-24707837D01*
X64483884Y-24689449D01*
X64490716Y-24646302D01*
X64493085Y-24634869D01*
X64503946Y-24592573D01*
X64503946Y-24590341D01*
X64503945Y-24572541D01*
X64505471Y-24553145D01*
X64508606Y-24533358D01*
X64504496Y-24489878D01*
X64503946Y-24478209D01*
X64503946Y-22347878D01*
X64523631Y-22280839D01*
X64535796Y-22264905D01*
X64610979Y-22181407D01*
X64621112Y-22163857D01*
X64705625Y-22017475D01*
X64740629Y-21909744D01*
X64764120Y-21837447D01*
X64782693Y-21660729D01*
X64809278Y-21596115D01*
X64866575Y-21556130D01*
X64906014Y-21549691D01*
X65613739Y-21549691D01*
X65680778Y-21569376D01*
X65701420Y-21586010D01*
X67338181Y-23222771D01*
X67371666Y-23284094D01*
X67374500Y-23310452D01*
X67374500Y-23485500D01*
X67354815Y-23552539D01*
X67302011Y-23598294D01*
X67250500Y-23609500D01*
X66716784Y-23609500D01*
X66714168Y-23609722D01*
X66714159Y-23609723D01*
X66542548Y-23624329D01*
X66316779Y-23683114D01*
X66104198Y-23779207D01*
X65910912Y-23909846D01*
X65742483Y-24071272D01*
X65603760Y-24258838D01*
X65498730Y-24467152D01*
X65430858Y-24688781D01*
X65430417Y-24690220D01*
X65400962Y-24920238D01*
X65400784Y-24921627D01*
X65410685Y-25154704D01*
X65459836Y-25382767D01*
X65535160Y-25570216D01*
X65546821Y-25599235D01*
X65669138Y-25797891D01*
X65696576Y-25829066D01*
X65823270Y-25973019D01*
X66004776Y-26119576D01*
X66045101Y-26142103D01*
X66094028Y-26191983D01*
X66108220Y-26260396D01*
X66083172Y-26325622D01*
X66054064Y-26353092D01*
X65910912Y-26449846D01*
X65742483Y-26611272D01*
X65603760Y-26798838D01*
X65498730Y-27007152D01*
X65430417Y-27230219D01*
X65428062Y-27248608D01*
X65411345Y-27379158D01*
X65400784Y-27461627D01*
X65410685Y-27694704D01*
X65459836Y-27922767D01*
X65546819Y-28139231D01*
X65546821Y-28139235D01*
X65669138Y-28337891D01*
X65784682Y-28469174D01*
X65823270Y-28513019D01*
X66004776Y-28659576D01*
X66045101Y-28682103D01*
X66094028Y-28731983D01*
X66108220Y-28800396D01*
X66083172Y-28865622D01*
X66054064Y-28893092D01*
X65910912Y-28989846D01*
X65742483Y-29151272D01*
X65603760Y-29338838D01*
X65498730Y-29547152D01*
X65430417Y-29770219D01*
X65400784Y-30001627D01*
X65410685Y-30234704D01*
X65459836Y-30462767D01*
X65546819Y-30679231D01*
X65546821Y-30679235D01*
X65669138Y-30877891D01*
X65681953Y-30892451D01*
X65823270Y-31053019D01*
X66004776Y-31199576D01*
X66208448Y-31313354D01*
X66428418Y-31391074D01*
X66658351Y-31430500D01*
X66658353Y-31430500D01*
X67280585Y-31430500D01*
X67283216Y-31430500D01*
X67457453Y-31415670D01*
X67645732Y-31366646D01*
X67683220Y-31356885D01*
X67826799Y-31291983D01*
X67895802Y-31260792D01*
X68089088Y-31130153D01*
X68164700Y-31057684D01*
X68226719Y-31025509D01*
X68296289Y-31031971D01*
X68351322Y-31075020D01*
X68374344Y-31140988D01*
X68374500Y-31147207D01*
X68374500Y-37669546D01*
X68354815Y-37736585D01*
X68338181Y-37757227D01*
X67510174Y-38585233D01*
X67448851Y-38618718D01*
X67401538Y-38619769D01*
X67388121Y-38617468D01*
X67341647Y-38609500D01*
X66716784Y-38609500D01*
X66714168Y-38609722D01*
X66714159Y-38609723D01*
X66542548Y-38624329D01*
X66316779Y-38683114D01*
X66104198Y-38779207D01*
X65910912Y-38909846D01*
X65742483Y-39071272D01*
X65603760Y-39258838D01*
X65498730Y-39467152D01*
X65431739Y-39685904D01*
X65430417Y-39690220D01*
X65413790Y-39820065D01*
X65400784Y-39921627D01*
X65410685Y-40154704D01*
X65459836Y-40382767D01*
X65535405Y-40570826D01*
X65546821Y-40599235D01*
X65669138Y-40797891D01*
X65792331Y-40937865D01*
X65823270Y-40973019D01*
X66004776Y-41119576D01*
X66045101Y-41142103D01*
X66094028Y-41191983D01*
X66108220Y-41260396D01*
X66083172Y-41325622D01*
X66054064Y-41353092D01*
X65910912Y-41449846D01*
X65742483Y-41611272D01*
X65603760Y-41798838D01*
X65498730Y-42007152D01*
X65498730Y-42007153D01*
X65430417Y-42230220D01*
X65413790Y-42360065D01*
X65400784Y-42461627D01*
X65410685Y-42694704D01*
X65459836Y-42922767D01*
X65535405Y-43110826D01*
X65546821Y-43139235D01*
X65669138Y-43337891D01*
X65792331Y-43477865D01*
X65823270Y-43513019D01*
X66004776Y-43659576D01*
X66045101Y-43682103D01*
X66094028Y-43731983D01*
X66108220Y-43800396D01*
X66083172Y-43865622D01*
X66054064Y-43893092D01*
X65910912Y-43989846D01*
X65742483Y-44151272D01*
X65603760Y-44338838D01*
X65498730Y-44547152D01*
X65458047Y-44679999D01*
X65430417Y-44770220D01*
X65413790Y-44900065D01*
X65400784Y-45001627D01*
X65410685Y-45234704D01*
X65459836Y-45462767D01*
X65535405Y-45650826D01*
X65546821Y-45679235D01*
X65669138Y-45877891D01*
X65792331Y-46017865D01*
X65823270Y-46053019D01*
X66004776Y-46199576D01*
X66208448Y-46313354D01*
X66428418Y-46391074D01*
X66658351Y-46430500D01*
X66658353Y-46430500D01*
X67280585Y-46430500D01*
X67283216Y-46430500D01*
X67457453Y-46415670D01*
X67645732Y-46366646D01*
X67683220Y-46356885D01*
X67789510Y-46308838D01*
X67895802Y-46260792D01*
X68089088Y-46130153D01*
X68164700Y-46057684D01*
X68226719Y-46025509D01*
X68296289Y-46031971D01*
X68351322Y-46075020D01*
X68374344Y-46140988D01*
X68374500Y-46147207D01*
X68374500Y-52669545D01*
X68354815Y-52736584D01*
X68338181Y-52757226D01*
X67510174Y-53585233D01*
X67448851Y-53618718D01*
X67401538Y-53619769D01*
X67388121Y-53617468D01*
X67341647Y-53609500D01*
X66716784Y-53609500D01*
X66714168Y-53609722D01*
X66714159Y-53609723D01*
X66542548Y-53624329D01*
X66316779Y-53683114D01*
X66104198Y-53779207D01*
X65910912Y-53909846D01*
X65742483Y-54071272D01*
X65603760Y-54258838D01*
X65498730Y-54467152D01*
X65430417Y-54690219D01*
X65400784Y-54921627D01*
X65410685Y-55154704D01*
X65459836Y-55382767D01*
X65546819Y-55599231D01*
X65546821Y-55599235D01*
X65669138Y-55797891D01*
X65669139Y-55797892D01*
X65823270Y-55973019D01*
X66004776Y-56119576D01*
X66045101Y-56142103D01*
X66094028Y-56191983D01*
X66108220Y-56260396D01*
X66083172Y-56325622D01*
X66054064Y-56353092D01*
X65910912Y-56449846D01*
X65742483Y-56611272D01*
X65603760Y-56798838D01*
X65498730Y-57007152D01*
X65430417Y-57230219D01*
X65400784Y-57461627D01*
X65410685Y-57694704D01*
X65459836Y-57922767D01*
X65512107Y-58052847D01*
X65546821Y-58139235D01*
X65621894Y-58261161D01*
X65669139Y-58337892D01*
X65823270Y-58513019D01*
X66004776Y-58659576D01*
X66045101Y-58682103D01*
X66094028Y-58731983D01*
X66108220Y-58800396D01*
X66083172Y-58865622D01*
X66054064Y-58893092D01*
X65910912Y-58989846D01*
X65742483Y-59151272D01*
X65603760Y-59338838D01*
X65498730Y-59547152D01*
X65430417Y-59770219D01*
X65400784Y-60001627D01*
X65410685Y-60234704D01*
X65459836Y-60462767D01*
X65512107Y-60592847D01*
X65546821Y-60679235D01*
X65669138Y-60877891D01*
X65672681Y-60881916D01*
X65823270Y-61053019D01*
X66004776Y-61199576D01*
X66208448Y-61313354D01*
X66428418Y-61391074D01*
X66658351Y-61430500D01*
X66658353Y-61430500D01*
X67280585Y-61430500D01*
X67283216Y-61430500D01*
X67457453Y-61415670D01*
X67645732Y-61366646D01*
X67683220Y-61356885D01*
X67803794Y-61302382D01*
X67895802Y-61260792D01*
X68089088Y-61130153D01*
X68257516Y-60968728D01*
X68396240Y-60781161D01*
X68501270Y-60572847D01*
X68569583Y-60349780D01*
X68599216Y-60118376D01*
X68589314Y-59885293D01*
X68540164Y-59657235D01*
X68453179Y-59440765D01*
X68330862Y-59242109D01*
X68176731Y-59066982D01*
X68176729Y-59066980D01*
X67995221Y-58920421D01*
X67954897Y-58897895D01*
X67905971Y-58848015D01*
X67891779Y-58779602D01*
X67916827Y-58714376D01*
X67945931Y-58686910D01*
X68089088Y-58590153D01*
X68257516Y-58428728D01*
X68396240Y-58241161D01*
X68501270Y-58032847D01*
X68569583Y-57809780D01*
X68599216Y-57578376D01*
X68589314Y-57345293D01*
X68540164Y-57117235D01*
X68453179Y-56900765D01*
X68330862Y-56702109D01*
X68176731Y-56526982D01*
X68176729Y-56526980D01*
X67995221Y-56380421D01*
X67954897Y-56357895D01*
X67905971Y-56308015D01*
X67891779Y-56239602D01*
X67916827Y-56174376D01*
X67945931Y-56146910D01*
X68089088Y-56050153D01*
X68257516Y-55888728D01*
X68396240Y-55701161D01*
X68501270Y-55492847D01*
X68569583Y-55269780D01*
X68599216Y-55038376D01*
X68589314Y-54805293D01*
X68540164Y-54577235D01*
X68498235Y-54472891D01*
X68491504Y-54403346D01*
X68523440Y-54341203D01*
X68525570Y-54339019D01*
X69383788Y-53480801D01*
X69399886Y-53467905D01*
X69401874Y-53465787D01*
X69401877Y-53465786D01*
X69447914Y-53416760D01*
X69450601Y-53413989D01*
X69470120Y-53394471D01*
X69472585Y-53391292D01*
X69480167Y-53382416D01*
X69510062Y-53350582D01*
X69519717Y-53333018D01*
X69530394Y-53316764D01*
X69542673Y-53300936D01*
X69560018Y-53260852D01*
X69565160Y-53250356D01*
X69586197Y-53212092D01*
X69591179Y-53192684D01*
X69597481Y-53174280D01*
X69605437Y-53155896D01*
X69612269Y-53112752D01*
X69614633Y-53101338D01*
X69625500Y-53059019D01*
X69625500Y-53038982D01*
X69627027Y-53019584D01*
X69630160Y-52999804D01*
X69626050Y-52956324D01*
X69625500Y-52944655D01*
X69625500Y-38038983D01*
X69627027Y-38019584D01*
X69630160Y-37999804D01*
X69626050Y-37956324D01*
X69625500Y-37944655D01*
X69625500Y-24082743D01*
X69627764Y-24062239D01*
X69626552Y-24023673D01*
X69625561Y-23992112D01*
X69625500Y-23988218D01*
X69625500Y-23964541D01*
X69625500Y-23960650D01*
X69624998Y-23956683D01*
X69624081Y-23945027D01*
X69623955Y-23941016D01*
X69622710Y-23901373D01*
X69617118Y-23882126D01*
X69613174Y-23863085D01*
X69610664Y-23843208D01*
X69594579Y-23802583D01*
X69590808Y-23791568D01*
X69578618Y-23749610D01*
X69568414Y-23732355D01*
X69559861Y-23714895D01*
X69552486Y-23696269D01*
X69552486Y-23696268D01*
X69526808Y-23660925D01*
X69520401Y-23651171D01*
X69517919Y-23646974D01*
X69498170Y-23613580D01*
X69484006Y-23599416D01*
X69471367Y-23584617D01*
X69459595Y-23568413D01*
X69425941Y-23540573D01*
X69417299Y-23532709D01*
X68484006Y-22599415D01*
X68471369Y-22584620D01*
X68459595Y-22568414D01*
X68459594Y-22568413D01*
X68425935Y-22540568D01*
X68417305Y-22532714D01*
X68397031Y-22512440D01*
X68397028Y-22512438D01*
X67414219Y-21529629D01*
X66424993Y-20540402D01*
X66412097Y-20524304D01*
X66360966Y-20476289D01*
X66358169Y-20473578D01*
X66341418Y-20456827D01*
X66338662Y-20454071D01*
X66335481Y-20451603D01*
X66326613Y-20444028D01*
X66294773Y-20414129D01*
X66277215Y-20404476D01*
X66260955Y-20393795D01*
X66245127Y-20381518D01*
X66205042Y-20364171D01*
X66194552Y-20359032D01*
X66156282Y-20337993D01*
X66136882Y-20333012D01*
X66118475Y-20326710D01*
X66100088Y-20318753D01*
X66056949Y-20311920D01*
X66045515Y-20309552D01*
X66003210Y-20298691D01*
X65983175Y-20298691D01*
X65963777Y-20297164D01*
X65949880Y-20294963D01*
X65943996Y-20294031D01*
X65943995Y-20294031D01*
X65917929Y-20296495D01*
X65900516Y-20298141D01*
X65888847Y-20298691D01*
X59760849Y-20298691D01*
X59737615Y-20296495D01*
X59729587Y-20294963D01*
X59674241Y-20298446D01*
X59666455Y-20298691D01*
X48920645Y-20298691D01*
X48853606Y-20279006D01*
X48832965Y-20262373D01*
X48782773Y-20212182D01*
X48749287Y-20150859D01*
X48754271Y-20081168D01*
X48796142Y-20025234D01*
X48861606Y-20000816D01*
X48870453Y-20000500D01*
X71875500Y-20000500D01*
X71942539Y-20020185D01*
G37*
%TD.AperFunction*%
%TD*%
M02*
