%TF.GenerationSoftware,KiCad,Pcbnew,7.0.2*%
%TF.CreationDate,2023-04-23T19:59:56+01:00*%
%TF.ProjectId,fan-controller,66616e2d-636f-46e7-9472-6f6c6c65722e,rev?*%
%TF.SameCoordinates,Original*%
%TF.FileFunction,Soldermask,Bot*%
%TF.FilePolarity,Negative*%
%FSLAX46Y46*%
G04 Gerber Fmt 4.6, Leading zero omitted, Abs format (unit mm)*
G04 Created by KiCad (PCBNEW 7.0.2) date 2023-04-23 19:59:56*
%MOMM*%
%LPD*%
G01*
G04 APERTURE LIST*
G04 Aperture macros list*
%AMRoundRect*
0 Rectangle with rounded corners*
0 $1 Rounding radius*
0 $2 $3 $4 $5 $6 $7 $8 $9 X,Y pos of 4 corners*
0 Add a 4 corners polygon primitive as box body*
4,1,4,$2,$3,$4,$5,$6,$7,$8,$9,$2,$3,0*
0 Add four circle primitives for the rounded corners*
1,1,$1+$1,$2,$3*
1,1,$1+$1,$4,$5*
1,1,$1+$1,$6,$7*
1,1,$1+$1,$8,$9*
0 Add four rect primitives between the rounded corners*
20,1,$1+$1,$2,$3,$4,$5,0*
20,1,$1+$1,$4,$5,$6,$7,0*
20,1,$1+$1,$6,$7,$8,$9,0*
20,1,$1+$1,$8,$9,$2,$3,0*%
G04 Aperture macros list end*
%ADD10R,1.524000X1.524000*%
%ADD11C,1.524000*%
%ADD12RoundRect,0.250000X-0.845000X0.620000X-0.845000X-0.620000X0.845000X-0.620000X0.845000X0.620000X0*%
%ADD13O,2.190000X1.740000*%
%ADD14RoundRect,0.250000X0.845000X-0.620000X0.845000X0.620000X-0.845000X0.620000X-0.845000X-0.620000X0*%
%ADD15R,3.500000X3.500000*%
%ADD16RoundRect,0.750000X1.000000X-0.750000X1.000000X0.750000X-1.000000X0.750000X-1.000000X-0.750000X0*%
%ADD17RoundRect,0.875000X0.875000X-0.875000X0.875000X0.875000X-0.875000X0.875000X-0.875000X-0.875000X0*%
G04 APERTURE END LIST*
D10*
%TO.C,U4*%
X33300000Y-29000000D03*
D11*
X33300000Y-31540000D03*
X33300000Y-34080000D03*
X33300000Y-36620000D03*
X33300000Y-39160000D03*
X33300000Y-41700000D03*
X33300000Y-44240000D03*
X33300000Y-46780000D03*
X33300000Y-49320000D03*
X33300000Y-51860000D03*
X33300000Y-54400000D03*
X33300000Y-56940000D03*
X33300000Y-59480000D03*
X33300000Y-62020000D03*
X33300000Y-64560000D03*
X58700000Y-64560000D03*
X58700000Y-62020000D03*
X58700000Y-59480000D03*
X58700000Y-56940000D03*
X58700000Y-54400000D03*
X58700000Y-51860000D03*
X58700000Y-49320000D03*
X58700000Y-46780000D03*
X58700000Y-44240000D03*
X58700000Y-41700000D03*
X58700000Y-39160000D03*
X58700000Y-36620000D03*
X58700000Y-34080000D03*
X58700000Y-31540000D03*
X58700000Y-29000000D03*
%TD*%
D12*
%TO.C,J6*%
X25000000Y-40000000D03*
D13*
X25000000Y-42540000D03*
X25000000Y-45080000D03*
X25000000Y-47620000D03*
%TD*%
D14*
%TO.C,J4*%
X67000000Y-62600000D03*
D13*
X67000000Y-60060000D03*
X67000000Y-57520000D03*
X67000000Y-54980000D03*
%TD*%
D15*
%TO.C,J1*%
X25000000Y-67914000D03*
D16*
X25000000Y-73914000D03*
D17*
X29700000Y-70914000D03*
%TD*%
D12*
%TO.C,J5*%
X25000000Y-25000000D03*
D13*
X25000000Y-27540000D03*
X25000000Y-30080000D03*
X25000000Y-32620000D03*
%TD*%
D14*
%TO.C,J2*%
X67000000Y-32600000D03*
D13*
X67000000Y-30060000D03*
X67000000Y-27520000D03*
X67000000Y-24980000D03*
%TD*%
D14*
%TO.C,J3*%
X67000000Y-47600000D03*
D13*
X67000000Y-45060000D03*
X67000000Y-42520000D03*
X67000000Y-39980000D03*
%TD*%
D12*
%TO.C,J7*%
X25000000Y-55000000D03*
D13*
X25000000Y-57540000D03*
X25000000Y-60080000D03*
X25000000Y-62620000D03*
%TD*%
M02*
