M48
; DRILL file {KiCad 7.0.2} date Sun Apr 23 19:59:56 2023
; FORMAT={-:-/ absolute / inch / decimal}
; #@! TF.CreationDate,2023-04-23T19:59:56+01:00
; #@! TF.GenerationSoftware,Kicad,Pcbnew,7.0.2
; #@! TF.FileFunction,Plated,1,2,PTH
FMAT,2
INCH
; #@! TA.AperFunction,Plated,PTH,ViaDrill
T1C0.0157
; #@! TA.AperFunction,Plated,PTH,ComponentDrill
T2C0.0300
; #@! TA.AperFunction,Plated,PTH,ComponentDrill
T3C0.0394
; #@! TA.AperFunction,Plated,PTH,ComponentDrill
T4C0.0469
%
G90
G05
T1
X1.0988Y-2.0227
X1.1024Y-1.4314
X1.1063Y-0.8481
X1.6929Y-2.126
X1.7882Y-1.4475
X2.5017Y-1.4236
X2.5145Y-2.0293
X2.5149Y-0.8523
X2.5758Y-2.986
T2
X1.311Y-1.1417
X1.311Y-1.2417
X1.311Y-1.3417
X1.311Y-1.4417
X1.311Y-1.5417
X1.311Y-1.6417
X1.311Y-1.7417
X1.311Y-1.8417
X1.311Y-1.9417
X1.311Y-2.0417
X1.311Y-2.1417
X1.311Y-2.2417
X1.311Y-2.3417
X1.311Y-2.4417
X1.311Y-2.5417
X2.311Y-1.1417
X2.311Y-1.2417
X2.311Y-1.3417
X2.311Y-1.4417
X2.311Y-1.5417
X2.311Y-1.6417
X2.311Y-1.7417
X2.311Y-1.8417
X2.311Y-1.9417
X2.311Y-2.0417
X2.311Y-2.1417
X2.311Y-2.2417
X2.311Y-2.3417
X2.311Y-2.4417
X2.311Y-2.5417
T4
X0.9843Y-0.9843
X0.9843Y-1.0843
X0.9843Y-1.1843
X0.9843Y-1.2843
X0.9843Y-1.5748
X0.9843Y-1.6748
X0.9843Y-1.7748
X0.9843Y-1.8748
X0.9843Y-2.1654
X0.9843Y-2.2654
X0.9843Y-2.3654
X0.9843Y-2.4654
X2.6378Y-0.9835
X2.6378Y-1.0835
X2.6378Y-1.1835
X2.6378Y-1.2835
X2.6378Y-1.574
X2.6378Y-1.674
X2.6378Y-1.774
X2.6378Y-1.874
X2.6378Y-2.1646
X2.6378Y-2.2646
X2.6378Y-2.3646
X2.6378Y-2.4646
T3
G00X0.9449Y-2.6738
M15
G01X1.0236Y-2.6738
M16
G05
G00X0.9449Y-2.91
M15
G01X1.0236Y-2.91
M16
G05
G00X1.1693Y-2.8313
M15
G01X1.1693Y-2.7525
M16
G05
T0
M30
