M48
; DRILL file {KiCad 7.0.2} date Sat May  6 12:51:57 2023
; FORMAT={-:-/ absolute / inch / decimal}
; #@! TF.CreationDate,2023-05-06T12:51:57+01:00
; #@! TF.GenerationSoftware,Kicad,Pcbnew,7.0.2
; #@! TF.FileFunction,Plated,1,2,PTH
FMAT,2
INCH
; #@! TA.AperFunction,Plated,PTH,ComponentDrill
T1C0.0118
; #@! TA.AperFunction,Plated,PTH,ViaDrill
T2C0.0157
; #@! TA.AperFunction,Plated,PTH,ComponentDrill
T3C0.0300
; #@! TA.AperFunction,Plated,PTH,ComponentDrill
T4C0.0394
; #@! TA.AperFunction,Plated,PTH,ComponentDrill
T5C0.0469
%
G90
G05
T1
X1.83Y-1.3228
X1.83Y-1.37
X1.83Y-1.4212
X1.83Y-1.4645
X1.8772Y-1.3228
X1.8772Y-1.37
X1.8772Y-1.4212
X1.8772Y-1.4645
T2
X1.0988Y-2.0227
X1.1024Y-1.4314
X1.1063Y-0.8481
X1.75Y-1.55
X1.81Y-1.55
X1.87Y-1.55
X1.93Y-1.55
X1.99Y-1.55
X2.0Y-1.13
X2.04Y-1.55
X2.08Y-0.98
X2.1Y-1.49
X2.1Y-1.55
X2.16Y-1.0212
X2.29Y-2.89
X2.29Y-2.95
X2.35Y-0.87
X2.4Y-1.0
X2.5017Y-1.4236
X2.5145Y-2.0293
X2.5149Y-0.8523
X2.5758Y-2.986
T3
X1.311Y-1.1591
X1.311Y-1.2591
X1.311Y-1.3591
X1.311Y-1.4591
X1.311Y-1.5591
X1.311Y-1.6591
X1.311Y-1.7591
X1.311Y-1.8591
X1.311Y-1.9591
X1.311Y-2.0591
X1.311Y-2.1591
X1.311Y-2.2591
X1.311Y-2.3591
X1.311Y-2.4591
X1.311Y-2.5591
X2.311Y-1.1591
X2.311Y-1.2591
X2.311Y-1.3591
X2.311Y-1.4591
X2.311Y-1.5591
X2.311Y-1.6591
X2.311Y-1.7591
X2.311Y-1.8591
X2.311Y-1.9591
X2.311Y-2.0591
X2.311Y-2.1591
X2.311Y-2.2591
X2.311Y-2.3591
X2.311Y-2.4591
X2.311Y-2.5591
T5
X0.9843Y-0.9843
X0.9843Y-1.0843
X0.9843Y-1.1843
X0.9843Y-1.2843
X0.9843Y-1.5748
X0.9843Y-1.6748
X0.9843Y-1.7748
X0.9843Y-1.8748
X0.9843Y-2.1654
X0.9843Y-2.2654
X0.9843Y-2.3654
X0.9843Y-2.4654
X2.6378Y-0.9835
X2.6378Y-1.0835
X2.6378Y-1.1835
X2.6378Y-1.2835
X2.6378Y-1.574
X2.6378Y-1.674
X2.6378Y-1.774
X2.6378Y-1.874
X2.6378Y-2.1646
X2.6378Y-2.2646
X2.6378Y-2.3646
X2.6378Y-2.4646
T4
G00X0.9449Y-2.6738
M15
G01X1.0236Y-2.6738
M16
G05
G00X0.9449Y-2.91
M15
G01X1.0236Y-2.91
M16
G05
G00X1.1693Y-2.8313
M15
G01X1.1693Y-2.7525
M16
G05
T0
M30
