%TF.GenerationSoftware,KiCad,Pcbnew,7.0.2*%
%TF.CreationDate,2023-05-06T12:51:57+01:00*%
%TF.ProjectId,fan-controller,66616e2d-636f-46e7-9472-6f6c6c65722e,rev?*%
%TF.SameCoordinates,Original*%
%TF.FileFunction,Copper,L1,Top*%
%TF.FilePolarity,Positive*%
%FSLAX46Y46*%
G04 Gerber Fmt 4.6, Leading zero omitted, Abs format (unit mm)*
G04 Created by KiCad (PCBNEW 7.0.2) date 2023-05-06 12:51:57*
%MOMM*%
%LPD*%
G01*
G04 APERTURE LIST*
G04 Aperture macros list*
%AMRoundRect*
0 Rectangle with rounded corners*
0 $1 Rounding radius*
0 $2 $3 $4 $5 $6 $7 $8 $9 X,Y pos of 4 corners*
0 Add a 4 corners polygon primitive as box body*
4,1,4,$2,$3,$4,$5,$6,$7,$8,$9,$2,$3,0*
0 Add four circle primitives for the rounded corners*
1,1,$1+$1,$2,$3*
1,1,$1+$1,$4,$5*
1,1,$1+$1,$6,$7*
1,1,$1+$1,$8,$9*
0 Add four rect primitives between the rounded corners*
20,1,$1+$1,$2,$3,$4,$5,0*
20,1,$1+$1,$4,$5,$6,$7,0*
20,1,$1+$1,$6,$7,$8,$9,0*
20,1,$1+$1,$8,$9,$2,$3,0*%
G04 Aperture macros list end*
%TA.AperFunction,SMDPad,CuDef*%
%ADD10RoundRect,0.250000X-0.412500X-0.925000X0.412500X-0.925000X0.412500X0.925000X-0.412500X0.925000X0*%
%TD*%
%TA.AperFunction,ComponentPad*%
%ADD11C,1.524000*%
%TD*%
%TA.AperFunction,ComponentPad*%
%ADD12R,1.524000X1.524000*%
%TD*%
%TA.AperFunction,SMDPad,CuDef*%
%ADD13RoundRect,0.200000X-0.200000X-0.275000X0.200000X-0.275000X0.200000X0.275000X-0.200000X0.275000X0*%
%TD*%
%TA.AperFunction,SMDPad,CuDef*%
%ADD14RoundRect,0.225000X-0.225000X-0.375000X0.225000X-0.375000X0.225000X0.375000X-0.225000X0.375000X0*%
%TD*%
%TA.AperFunction,SMDPad,CuDef*%
%ADD15RoundRect,0.225000X0.250000X-0.225000X0.250000X0.225000X-0.250000X0.225000X-0.250000X-0.225000X0*%
%TD*%
%TA.AperFunction,SMDPad,CuDef*%
%ADD16RoundRect,0.200000X0.200000X0.275000X-0.200000X0.275000X-0.200000X-0.275000X0.200000X-0.275000X0*%
%TD*%
%TA.AperFunction,SMDPad,CuDef*%
%ADD17RoundRect,0.225000X0.225000X0.375000X-0.225000X0.375000X-0.225000X-0.375000X0.225000X-0.375000X0*%
%TD*%
%TA.AperFunction,ComponentPad*%
%ADD18RoundRect,0.250000X-0.845000X0.620000X-0.845000X-0.620000X0.845000X-0.620000X0.845000X0.620000X0*%
%TD*%
%TA.AperFunction,ComponentPad*%
%ADD19O,2.190000X1.740000*%
%TD*%
%TA.AperFunction,ComponentPad*%
%ADD20RoundRect,0.250000X0.845000X-0.620000X0.845000X0.620000X-0.845000X0.620000X-0.845000X-0.620000X0*%
%TD*%
%TA.AperFunction,SMDPad,CuDef*%
%ADD21RoundRect,0.200000X0.275000X-0.200000X0.275000X0.200000X-0.275000X0.200000X-0.275000X-0.200000X0*%
%TD*%
%TA.AperFunction,SMDPad,CuDef*%
%ADD22R,0.500000X0.300000*%
%TD*%
%TA.AperFunction,SMDPad,CuDef*%
%ADD23RoundRect,0.150000X-0.587500X-0.150000X0.587500X-0.150000X0.587500X0.150000X-0.587500X0.150000X0*%
%TD*%
%TA.AperFunction,ComponentPad*%
%ADD24R,3.500000X3.500000*%
%TD*%
%TA.AperFunction,ComponentPad*%
%ADD25RoundRect,0.750000X1.000000X-0.750000X1.000000X0.750000X-1.000000X0.750000X-1.000000X-0.750000X0*%
%TD*%
%TA.AperFunction,ComponentPad*%
%ADD26RoundRect,0.875000X0.875000X-0.875000X0.875000X0.875000X-0.875000X0.875000X-0.875000X-0.875000X0*%
%TD*%
%TA.AperFunction,ComponentPad*%
%ADD27C,0.600000*%
%TD*%
%TA.AperFunction,SMDPad,CuDef*%
%ADD28R,2.950000X4.500000*%
%TD*%
%TA.AperFunction,SMDPad,CuDef*%
%ADD29R,2.600000X3.100000*%
%TD*%
%TA.AperFunction,SMDPad,CuDef*%
%ADD30R,1.550000X0.600000*%
%TD*%
%TA.AperFunction,SMDPad,CuDef*%
%ADD31RoundRect,0.200000X-0.275000X0.200000X-0.275000X-0.200000X0.275000X-0.200000X0.275000X0.200000X0*%
%TD*%
%TA.AperFunction,SMDPad,CuDef*%
%ADD32RoundRect,0.250000X-1.075000X0.375000X-1.075000X-0.375000X1.075000X-0.375000X1.075000X0.375000X0*%
%TD*%
%TA.AperFunction,SMDPad,CuDef*%
%ADD33RoundRect,0.225000X-0.250000X0.225000X-0.250000X-0.225000X0.250000X-0.225000X0.250000X0.225000X0*%
%TD*%
%TA.AperFunction,ViaPad*%
%ADD34C,0.800000*%
%TD*%
%TA.AperFunction,Conductor*%
%ADD35C,0.250000*%
%TD*%
%TA.AperFunction,Conductor*%
%ADD36C,0.254000*%
%TD*%
%TA.AperFunction,Conductor*%
%ADD37C,0.508000*%
%TD*%
%TA.AperFunction,Conductor*%
%ADD38C,1.500000*%
%TD*%
G04 APERTURE END LIST*
D10*
%TO.P,C4,2*%
%TO.N,GND*%
X40653500Y-38100000D03*
%TO.P,C4,1*%
%TO.N,+5V*%
X37578500Y-38100000D03*
%TD*%
D11*
%TO.P,U4,30,IO23*%
%TO.N,unconnected-(U4-IO23-Pad30)*%
X33300000Y-65000000D03*
%TO.P,U4,29,IO22*%
%TO.N,SCL*%
X33300000Y-62460000D03*
%TO.P,U4,28,TXD0/IO1*%
%TO.N,unconnected-(U4-TXD0{slash}IO1-Pad28)*%
X33300000Y-59920000D03*
%TO.P,U4,27,RXD0/IO3*%
%TO.N,unconnected-(U4-RXD0{slash}IO3-Pad27)*%
X33300000Y-57380000D03*
%TO.P,U4,26,IO21*%
%TO.N,SDA*%
X33300000Y-54840000D03*
%TO.P,U4,25,IO19*%
%TO.N,unconnected-(U4-IO19-Pad25)*%
X33300000Y-52300000D03*
%TO.P,U4,24,IO18*%
%TO.N,unconnected-(U4-IO18-Pad24)*%
X33300000Y-49760000D03*
%TO.P,U4,23,IO5*%
%TO.N,unconnected-(U4-IO5-Pad23)*%
X33300000Y-47220000D03*
%TO.P,U4,22,IO17*%
%TO.N,TACO_6*%
X33300000Y-44680000D03*
%TO.P,U4,21,IO16*%
%TO.N,TACO_5*%
X33300000Y-42140000D03*
%TO.P,U4,20,IO4*%
%TO.N,TACO_4*%
X33300000Y-39600000D03*
%TO.P,U4,19,IO2*%
%TO.N,unconnected-(U4-IO2-Pad19)*%
X33300000Y-37060000D03*
%TO.P,U4,18,IO15*%
%TO.N,unconnected-(U4-IO15-Pad18)*%
X33300000Y-34520000D03*
%TO.P,U4,17,GND*%
%TO.N,GND*%
X33300000Y-31980000D03*
%TO.P,U4,16,3V3*%
%TO.N,+3.3V*%
X33300000Y-29440000D03*
%TO.P,U4,15,VIN*%
%TO.N,+5V*%
X58700000Y-29440000D03*
%TO.P,U4,14,GND*%
%TO.N,GND*%
X58700000Y-31980000D03*
%TO.P,U4,13,IO13*%
%TO.N,PWM_1*%
X58700000Y-34520000D03*
%TO.P,U4,12,IO12*%
%TO.N,unconnected-(U4-IO12-Pad12)*%
X58700000Y-37060000D03*
%TO.P,U4,11,IO14*%
%TO.N,TACO_1*%
X58700000Y-39600000D03*
%TO.P,U4,10,IO27*%
%TO.N,TACO_2*%
X58700000Y-42140000D03*
%TO.P,U4,9,IO26*%
%TO.N,TACO_3*%
X58700000Y-44680000D03*
%TO.P,U4,8,IO25*%
%TO.N,unconnected-(U4-IO25-Pad8)*%
X58700000Y-47220000D03*
%TO.P,U4,7,IO33*%
%TO.N,unconnected-(U4-IO33-Pad7)*%
X58700000Y-49760000D03*
%TO.P,U4,6,IO32*%
%TO.N,unconnected-(U4-IO32-Pad6)*%
X58700000Y-52300000D03*
%TO.P,U4,5,IO35*%
%TO.N,unconnected-(U4-IO35-Pad5)*%
X58700000Y-54840000D03*
%TO.P,U4,4,IO34*%
%TO.N,unconnected-(U4-IO34-Pad4)*%
X58700000Y-57380000D03*
%TO.P,U4,3,SENSOR_VN*%
%TO.N,unconnected-(U4-SENSOR_VN-Pad3)*%
X58700000Y-59920000D03*
%TO.P,U4,2,SENSOR_VP*%
%TO.N,unconnected-(U4-SENSOR_VP-Pad2)*%
X58700000Y-62460000D03*
D12*
%TO.P,U4,1,EN*%
%TO.N,unconnected-(U4-EN-Pad1)*%
X58700000Y-65000000D03*
%TD*%
D13*
%TO.P,R10,2*%
%TO.N,+3.3V*%
X37994308Y-45211999D03*
%TO.P,R10,1*%
%TO.N,TACO_6*%
X36344308Y-45211999D03*
%TD*%
%TO.P,R8,1*%
%TO.N,TACO_4*%
X36344308Y-42164000D03*
%TO.P,R8,2*%
%TO.N,+3.3V*%
X37994308Y-42164000D03*
%TD*%
D14*
%TO.P,D5,1,K*%
%TO.N,Net-(D5-K)*%
X23350000Y-36319623D03*
%TO.P,D5,2,A*%
%TO.N,TACO_5*%
X26650000Y-36319623D03*
%TD*%
D15*
%TO.P,C3,2*%
%TO.N,Net-(D7-K)*%
X42348396Y-29808219D03*
%TO.P,C3,1*%
%TO.N,Net-(U1-BOOT)*%
X42348396Y-31358219D03*
%TD*%
D16*
%TO.P,R11,1*%
%TO.N,Net-(U1-VSENSE)*%
X42481000Y-35560000D03*
%TO.P,R11,2*%
%TO.N,+5V*%
X40831000Y-35560000D03*
%TD*%
%TO.P,R4,1*%
%TO.N,+3.3V*%
X37994308Y-46745456D03*
%TO.P,R4,2*%
%TO.N,SDA*%
X36344308Y-46745456D03*
%TD*%
D13*
%TO.P,R9,2*%
%TO.N,+3.3V*%
X37994308Y-43688000D03*
%TO.P,R9,1*%
%TO.N,TACO_5*%
X36344308Y-43688000D03*
%TD*%
%TO.P,R5,1*%
%TO.N,SCL*%
X36344308Y-48298307D03*
%TO.P,R5,2*%
%TO.N,+3.3V*%
X37994308Y-48298307D03*
%TD*%
D17*
%TO.P,D2,1,K*%
%TO.N,Net-(D2-K)*%
X68300000Y-36186988D03*
%TO.P,D2,2,A*%
%TO.N,TACO_2*%
X65000000Y-36186988D03*
%TD*%
D18*
%TO.P,J6,1,Pin_1*%
%TO.N,GND*%
X25000000Y-40000000D03*
D19*
%TO.P,J6,2,Pin_2*%
%TO.N,+12V*%
X25000000Y-42540000D03*
%TO.P,J6,3,Pin_3*%
%TO.N,Net-(D5-K)*%
X25000000Y-45080000D03*
%TO.P,J6,4,Pin_4*%
%TO.N,PWM_OUT*%
X25000000Y-47620000D03*
%TD*%
D20*
%TO.P,J4,1,Pin_1*%
%TO.N,GND*%
X67000000Y-62600000D03*
D19*
%TO.P,J4,2,Pin_2*%
%TO.N,+12V*%
X67000000Y-60060000D03*
%TO.P,J4,3,Pin_3*%
%TO.N,Net-(D3-K)*%
X67000000Y-57520000D03*
%TO.P,J4,4,Pin_4*%
%TO.N,PWM_OUT*%
X67000000Y-54980000D03*
%TD*%
D21*
%TO.P,R3,1*%
%TO.N,PWM_1*%
X54102000Y-25018000D03*
%TO.P,R3,2*%
%TO.N,+3.3V*%
X54102000Y-23368000D03*
%TD*%
D22*
%TO.P,U3,1,SDA*%
%TO.N,SDA*%
X69730258Y-75526206D03*
%TO.P,U3,2,SCL*%
%TO.N,SCL*%
X69730258Y-74726206D03*
%TO.P,U3,3,VDD*%
%TO.N,+3.3V*%
X68330258Y-74726206D03*
%TO.P,U3,4,VSS*%
%TO.N,GND*%
X68330258Y-75526206D03*
%TD*%
D14*
%TO.P,D4,1,K*%
%TO.N,Net-(D4-K)*%
X23380181Y-21564682D03*
%TO.P,D4,2,A*%
%TO.N,TACO_4*%
X26680181Y-21564682D03*
%TD*%
D23*
%TO.P,Q1,1,G*%
%TO.N,+3.3V*%
X56037000Y-23180000D03*
%TO.P,Q1,2,S*%
%TO.N,PWM_1*%
X56037000Y-25080000D03*
%TO.P,Q1,3,D*%
%TO.N,PWM_OUT*%
X57912000Y-24130000D03*
%TD*%
D16*
%TO.P,R1,1*%
%TO.N,TACO_1*%
X54105766Y-42418000D03*
%TO.P,R1,2*%
%TO.N,+3.3V*%
X52455766Y-42418000D03*
%TD*%
D14*
%TO.P,D6,1,K*%
%TO.N,Net-(D6-K)*%
X23383759Y-51295199D03*
%TO.P,D6,2,A*%
%TO.N,TACO_6*%
X26683759Y-51295199D03*
%TD*%
D24*
%TO.P,J1,1*%
%TO.N,+12V*%
X25000000Y-67914000D03*
D25*
%TO.P,J1,2*%
%TO.N,GND*%
X25000000Y-73914000D03*
D26*
%TO.P,J1,3*%
%TO.N,N/C*%
X29700000Y-70914000D03*
%TD*%
D27*
%TO.P,U1,9,GNDPAD*%
%TO.N,GND*%
X47682000Y-37198000D03*
X47682000Y-36098000D03*
X47682000Y-34798000D03*
X47682000Y-33598000D03*
D28*
X47082000Y-35398000D03*
D29*
X47082000Y-35398000D03*
D27*
X46482000Y-37198000D03*
X46482000Y-36098000D03*
X46482000Y-34798000D03*
X46482000Y-33598000D03*
D30*
%TO.P,U1,8,PH*%
%TO.N,Net-(D7-K)*%
X49782000Y-33493000D03*
%TO.P,U1,7,VIN*%
%TO.N,+12V*%
X49782000Y-34763000D03*
%TO.P,U1,6,GND*%
%TO.N,GND*%
X49782000Y-36033000D03*
%TO.P,U1,5,EN*%
%TO.N,unconnected-(U1-EN-Pad5)*%
X49782000Y-37303000D03*
%TO.P,U1,4,VSENSE*%
%TO.N,Net-(U1-VSENSE)*%
X44382000Y-37303000D03*
%TO.P,U1,3,NC*%
%TO.N,unconnected-(U1-NC-Pad3)*%
X44382000Y-36033000D03*
%TO.P,U1,2,NC*%
%TO.N,unconnected-(U1-NC-Pad2)*%
X44382000Y-34763000D03*
%TO.P,U1,1,BOOT*%
%TO.N,Net-(U1-BOOT)*%
X44382000Y-33493000D03*
%TD*%
D17*
%TO.P,D3,1,K*%
%TO.N,Net-(D3-K)*%
X68636195Y-51539596D03*
%TO.P,D3,2,A*%
%TO.N,TACO_3*%
X65336195Y-51539596D03*
%TD*%
D31*
%TO.P,R2,1*%
%TO.N,PWM_OUT*%
X59690000Y-23496000D03*
%TO.P,R2,2*%
%TO.N,+5V*%
X59690000Y-25146000D03*
%TD*%
D32*
%TO.P,L1,2,2*%
%TO.N,+5V*%
X39808000Y-32798000D03*
%TO.P,L1,1,1*%
%TO.N,Net-(D7-K)*%
X39808000Y-29998000D03*
%TD*%
D17*
%TO.P,D7,2,A*%
%TO.N,GND*%
X46794000Y-31426000D03*
%TO.P,D7,1,K*%
%TO.N,Net-(D7-K)*%
X50094000Y-31426000D03*
%TD*%
D33*
%TO.P,C2,2*%
%TO.N,GND*%
X52508000Y-36278000D03*
%TO.P,C2,1*%
%TO.N,+12V*%
X52508000Y-34728000D03*
%TD*%
D18*
%TO.P,J5,1,Pin_1*%
%TO.N,GND*%
X25000000Y-25000000D03*
D19*
%TO.P,J5,2,Pin_2*%
%TO.N,+12V*%
X25000000Y-27540000D03*
%TO.P,J5,3,Pin_3*%
%TO.N,Net-(D4-K)*%
X25000000Y-30080000D03*
%TO.P,J5,4,Pin_4*%
%TO.N,PWM_OUT*%
X25000000Y-32620000D03*
%TD*%
D20*
%TO.P,J2,1,Pin_1*%
%TO.N,GND*%
X67000000Y-32600000D03*
D19*
%TO.P,J2,2,Pin_2*%
%TO.N,+12V*%
X67000000Y-30060000D03*
%TO.P,J2,3,Pin_3*%
%TO.N,Net-(D1-K)*%
X67000000Y-27520000D03*
%TO.P,J2,4,Pin_4*%
%TO.N,PWM_OUT*%
X67000000Y-24980000D03*
%TD*%
D21*
%TO.P,R12,1*%
%TO.N,GND*%
X42418000Y-38988000D03*
%TO.P,R12,2*%
%TO.N,Net-(U1-VSENSE)*%
X42418000Y-37338000D03*
%TD*%
D20*
%TO.P,J3,1,Pin_1*%
%TO.N,GND*%
X67000000Y-47600000D03*
D19*
%TO.P,J3,2,Pin_2*%
%TO.N,+12V*%
X67000000Y-45060000D03*
%TO.P,J3,3,Pin_3*%
%TO.N,Net-(D2-K)*%
X67000000Y-42520000D03*
%TO.P,J3,4,Pin_4*%
%TO.N,PWM_OUT*%
X67000000Y-39980000D03*
%TD*%
D16*
%TO.P,R7,1*%
%TO.N,TACO_3*%
X54105766Y-45694068D03*
%TO.P,R7,2*%
%TO.N,+3.3V*%
X52455766Y-45694068D03*
%TD*%
D33*
%TO.P,C1,1*%
%TO.N,+3.3V*%
X67000000Y-74364206D03*
%TO.P,C1,2*%
%TO.N,GND*%
X67000000Y-75914206D03*
%TD*%
D17*
%TO.P,D1,1,K*%
%TO.N,Net-(D1-K)*%
X68565096Y-21620365D03*
%TO.P,D1,2,A*%
%TO.N,TACO_1*%
X65265096Y-21620365D03*
%TD*%
D16*
%TO.P,R6,2*%
%TO.N,+3.3V*%
X52455766Y-44027706D03*
%TO.P,R6,1*%
%TO.N,TACO_2*%
X54105766Y-44027706D03*
%TD*%
D18*
%TO.P,J7,1,Pin_1*%
%TO.N,GND*%
X25000000Y-55000000D03*
D19*
%TO.P,J7,2,Pin_2*%
%TO.N,+12V*%
X25000000Y-57540000D03*
%TO.P,J7,3,Pin_3*%
%TO.N,Net-(D6-K)*%
X25000000Y-60080000D03*
%TO.P,J7,4,Pin_4*%
%TO.N,PWM_OUT*%
X25000000Y-62620000D03*
%TD*%
D34*
%TO.N,PWM_1*%
X54864000Y-25938500D03*
%TO.N,+3.3V*%
X52832000Y-24892000D03*
X50800000Y-28702000D03*
%TO.N,+5V*%
X60960000Y-25400000D03*
%TO.N,PWM_OUT*%
X59690000Y-22098000D03*
%TO.N,+3.3V*%
X58166000Y-73406000D03*
X58166000Y-74930000D03*
%TO.N,GND*%
X53340000Y-37846000D03*
X53340000Y-39370000D03*
X51816000Y-39370000D03*
X50546000Y-39370000D03*
X49022000Y-39370000D03*
X47498000Y-39370000D03*
X45974000Y-39370000D03*
X44450000Y-39370000D03*
X65424062Y-75845337D03*
%TO.N,TACO_1*%
X63878446Y-21649191D03*
%TO.N,TACO_2*%
X63542472Y-36158520D03*
%TO.N,TACO_3*%
X63868556Y-51544691D03*
%TO.N,TACO_4*%
X28099487Y-21542657D03*
%TO.N,TACO_5*%
X28000000Y-36356683D03*
%TO.N,TACO_6*%
X27910567Y-51375374D03*
%TD*%
D35*
%TO.N,+3.3V*%
X37846000Y-65532000D02*
X37846000Y-48446615D01*
X39116000Y-66802000D02*
X37846000Y-65532000D01*
X51562000Y-66802000D02*
X39116000Y-66802000D01*
X58166000Y-73406000D02*
X51562000Y-66802000D01*
X37846000Y-48446615D02*
X37994308Y-48298307D01*
%TO.N,SCL*%
X36344308Y-59415692D02*
X33300000Y-62460000D01*
X36344308Y-48298307D02*
X36344308Y-59415692D01*
%TO.N,SDA*%
X35306000Y-52834000D02*
X33300000Y-54840000D01*
X35306000Y-47783764D02*
X35306000Y-52834000D01*
X36344308Y-46745456D02*
X35306000Y-47783764D01*
%TO.N,+3.3V*%
X37994308Y-46745456D02*
X37994308Y-48298307D01*
X37994308Y-45211999D02*
X37994308Y-46745456D01*
%TO.N,TACO_6*%
X35812309Y-44680000D02*
X33300000Y-44680000D01*
X36344308Y-45211999D02*
X35812309Y-44680000D01*
%TO.N,TACO_5*%
X34796308Y-42140000D02*
X33300000Y-42140000D01*
X36344308Y-43688000D02*
X34796308Y-42140000D01*
%TO.N,TACO_4*%
X36344308Y-42164000D02*
X35864000Y-42164000D01*
X35864000Y-42164000D02*
X33300000Y-39600000D01*
%TO.N,+3.3V*%
X52455766Y-44027706D02*
X52455766Y-45694068D01*
X52455766Y-42418000D02*
X52455766Y-44027706D01*
X52201766Y-42164000D02*
X52455766Y-42418000D01*
X37994308Y-42164000D02*
X52201766Y-42164000D01*
X37994308Y-43688000D02*
X37994308Y-45211999D01*
X37994308Y-42164000D02*
X37994308Y-43688000D01*
X35306000Y-39475692D02*
X37994308Y-42164000D01*
X35306000Y-31496000D02*
X35306000Y-39475692D01*
%TO.N,TACO_3*%
X55119834Y-44680000D02*
X58700000Y-44680000D01*
X54105766Y-45694068D02*
X55119834Y-44680000D01*
%TO.N,TACO_2*%
X56003348Y-42140000D02*
X58700000Y-42140000D01*
X54115642Y-44027706D02*
X56003348Y-42140000D01*
%TO.N,TACO_1*%
X56920000Y-39600000D02*
X58700000Y-39600000D01*
X54102000Y-42418000D02*
X56920000Y-39600000D01*
%TO.N,PWM_1*%
X54864000Y-25780000D02*
X54102000Y-25018000D01*
X54864000Y-25938500D02*
X54864000Y-25780000D01*
%TO.N,+3.3V*%
X52832000Y-24892000D02*
X52832000Y-24638000D01*
X52832000Y-24638000D02*
X54102000Y-23368000D01*
X34292000Y-28448000D02*
X33300000Y-29440000D01*
X50546000Y-28448000D02*
X34292000Y-28448000D01*
X50800000Y-28702000D02*
X50546000Y-28448000D01*
%TO.N,+5V*%
X59944000Y-25400000D02*
X59690000Y-25146000D01*
X60960000Y-25400000D02*
X59944000Y-25400000D01*
%TO.N,+3.3V*%
X55849000Y-23368000D02*
X56037000Y-23180000D01*
X54102000Y-23368000D02*
X55849000Y-23368000D01*
%TO.N,PWM_1*%
X54102000Y-25018000D02*
X55975000Y-25018000D01*
X55975000Y-25018000D02*
X56037000Y-25080000D01*
%TO.N,PWM_OUT*%
X59056000Y-24130000D02*
X59690000Y-23496000D01*
X57912000Y-24130000D02*
X59056000Y-24130000D01*
X59690000Y-23496000D02*
X59690000Y-22098000D01*
%TO.N,+5V*%
X41148000Y-41148000D02*
X39878000Y-41148000D01*
X54356000Y-41148000D02*
X41148000Y-41148000D01*
D36*
%TO.N,SCL*%
X63940792Y-74203000D02*
X57439000Y-74203000D01*
X57439000Y-74203000D02*
X51054000Y-67818000D01*
X64188737Y-74450945D02*
X63940792Y-74203000D01*
D35*
%TO.N,+3.3V*%
X58236000Y-75000000D02*
X58166000Y-74930000D01*
X65635794Y-74364206D02*
X65000000Y-75000000D01*
X67000000Y-74364206D02*
X65635794Y-74364206D01*
X65000000Y-75000000D02*
X58236000Y-75000000D01*
X34387000Y-30577000D02*
X35306000Y-31496000D01*
X34387000Y-30527000D02*
X34387000Y-30577000D01*
X33300000Y-29440000D02*
X34387000Y-30527000D01*
D36*
%TO.N,SCL*%
X38658000Y-67818000D02*
X33300000Y-62460000D01*
X51054000Y-67818000D02*
X38658000Y-67818000D01*
X65052476Y-73587206D02*
X64188737Y-74450945D01*
X69907258Y-74323600D02*
X69170864Y-73587206D01*
X69809864Y-74726206D02*
X69907258Y-74628812D01*
X69170864Y-73587206D02*
X65052476Y-73587206D01*
X69907258Y-74628812D02*
X69907258Y-74323600D01*
X69730258Y-74726206D02*
X69809864Y-74726206D01*
%TO.N,SDA*%
X32211000Y-55929000D02*
X33300000Y-54840000D01*
X32211000Y-65451079D02*
X32211000Y-55929000D01*
X35847921Y-69088000D02*
X32211000Y-65451079D01*
X50546000Y-69088000D02*
X35847921Y-69088000D01*
X57268884Y-75810884D02*
X50546000Y-69088000D01*
X64720566Y-76691206D02*
X63840244Y-75810884D01*
X63840244Y-75810884D02*
X57268884Y-75810884D01*
X69308794Y-76691206D02*
X64720566Y-76691206D01*
X70000000Y-75716342D02*
X70000000Y-76000000D01*
X70000000Y-76000000D02*
X69308794Y-76691206D01*
X69809864Y-75526206D02*
X70000000Y-75716342D01*
X69730258Y-75526206D02*
X69809864Y-75526206D01*
D35*
%TO.N,+5V*%
X38608000Y-41148000D02*
X37592000Y-40132000D01*
X39878000Y-41148000D02*
X38608000Y-41148000D01*
X39116000Y-40132000D02*
X38862000Y-40132000D01*
X55880000Y-39624000D02*
X54356000Y-41148000D01*
X55880000Y-32260000D02*
X55880000Y-39624000D01*
X38862000Y-40132000D02*
X38608000Y-40132000D01*
X58700000Y-29440000D02*
X55880000Y-32260000D01*
X39370000Y-39878000D02*
X39116000Y-40132000D01*
X39370000Y-36322000D02*
X39370000Y-39878000D01*
X40132000Y-35560000D02*
X39370000Y-36322000D01*
X40831000Y-35560000D02*
X40132000Y-35560000D01*
%TO.N,Net-(U1-VSENSE)*%
X44347000Y-37338000D02*
X44382000Y-37303000D01*
X42418000Y-37338000D02*
X44347000Y-37338000D01*
X42481000Y-37275000D02*
X42418000Y-37338000D01*
X42481000Y-35560000D02*
X42481000Y-37275000D01*
D37*
%TO.N,Net-(U1-BOOT)*%
X42637000Y-33493000D02*
X44382000Y-33493000D01*
X42348396Y-33204396D02*
X42637000Y-33493000D01*
X42348396Y-31358219D02*
X42348396Y-33204396D01*
D38*
%TO.N,+12V*%
X53340000Y-27288000D02*
X61000000Y-27288000D01*
X31588000Y-27288000D02*
X53340000Y-27288000D01*
D35*
%TO.N,+3.3V*%
X67362000Y-74726206D02*
X67000000Y-74364206D01*
X68330258Y-74726206D02*
X67362000Y-74726206D01*
%TO.N,GND*%
X67388000Y-75526206D02*
X67000000Y-75914206D01*
D36*
X67000000Y-75914206D02*
X65492931Y-75914206D01*
X65492931Y-75914206D02*
X65424062Y-75845337D01*
D35*
X68330258Y-75526206D02*
X67388000Y-75526206D01*
D38*
%TO.N,+12V*%
X61000000Y-27288000D02*
X63969131Y-27288000D01*
X30000000Y-67000000D02*
X30000000Y-59000000D01*
X25914000Y-67000000D02*
X25000000Y-67914000D01*
X61372648Y-41372648D02*
X61372648Y-56372648D01*
X61000000Y-27288000D02*
X61372648Y-27660648D01*
X28540000Y-57540000D02*
X25000000Y-57540000D01*
X30000000Y-67000000D02*
X25914000Y-67000000D01*
X66741131Y-30060000D02*
X67000000Y-30060000D01*
X61372648Y-27660648D02*
X61372648Y-41372648D01*
X30000000Y-30395000D02*
X30000000Y-28876000D01*
X28540000Y-42540000D02*
X25000000Y-42540000D01*
X27145000Y-27540000D02*
X25000000Y-27540000D01*
X30000000Y-44000000D02*
X28540000Y-42540000D01*
X65060000Y-45060000D02*
X67000000Y-45060000D01*
X61372648Y-41372648D02*
X65060000Y-45060000D01*
X30000000Y-30395000D02*
X27145000Y-27540000D01*
X61372648Y-56372648D02*
X65060000Y-60060000D01*
X30000000Y-59000000D02*
X28540000Y-57540000D01*
X30000000Y-28876000D02*
X31588000Y-27288000D01*
X30000000Y-44000000D02*
X30000000Y-30395000D01*
X65060000Y-60060000D02*
X67000000Y-60060000D01*
X63969131Y-27288000D02*
X66741131Y-30060000D01*
X30000000Y-59000000D02*
X30000000Y-44000000D01*
D35*
%TO.N,Net-(D1-K)*%
X68565096Y-25954904D02*
X67000000Y-27520000D01*
X68565096Y-21620365D02*
X68565096Y-25954904D01*
%TO.N,TACO_1*%
X65236270Y-21649191D02*
X65265096Y-21620365D01*
X63878446Y-21649191D02*
X65236270Y-21649191D01*
%TO.N,Net-(D2-K)*%
X68420000Y-36306988D02*
X68420000Y-41100000D01*
X68420000Y-41100000D02*
X67000000Y-42520000D01*
X68300000Y-36186988D02*
X68420000Y-36306988D01*
%TO.N,TACO_2*%
X64971532Y-36158520D02*
X65000000Y-36186988D01*
X63542472Y-36158520D02*
X64971532Y-36158520D01*
%TO.N,Net-(D3-K)*%
X68636195Y-55883805D02*
X67000000Y-57520000D01*
X68636195Y-51539596D02*
X68636195Y-55883805D01*
%TO.N,TACO_3*%
X63868556Y-51544691D02*
X65331100Y-51544691D01*
X65331100Y-51544691D02*
X65336195Y-51539596D01*
%TO.N,Net-(D4-K)*%
X23380181Y-21564682D02*
X23380181Y-28460181D01*
X23380181Y-28460181D02*
X25000000Y-30080000D01*
%TO.N,TACO_4*%
X26702206Y-21542657D02*
X26680181Y-21564682D01*
X28099487Y-21542657D02*
X26702206Y-21542657D01*
%TO.N,Net-(D5-K)*%
X23350000Y-43430000D02*
X25000000Y-45080000D01*
X23350000Y-36319623D02*
X23350000Y-43430000D01*
%TO.N,TACO_5*%
X26687060Y-36356683D02*
X26650000Y-36319623D01*
X28000000Y-36356683D02*
X26687060Y-36356683D01*
%TO.N,Net-(D6-K)*%
X23383759Y-58463759D02*
X25000000Y-60080000D01*
X23383759Y-51295199D02*
X23383759Y-58463759D01*
%TO.N,TACO_6*%
X26763934Y-51375374D02*
X26683759Y-51295199D01*
X27910567Y-51375374D02*
X26763934Y-51375374D01*
%TD*%
%TA.AperFunction,Conductor*%
%TO.N,Net-(D7-K)*%
G36*
X49970125Y-29093185D02*
G01*
X50010473Y-29135500D01*
X50067466Y-29234216D01*
X50194129Y-29374889D01*
X50347269Y-29486151D01*
X50520196Y-29563144D01*
X50520197Y-29563144D01*
X50701781Y-29601740D01*
X50763262Y-29634932D01*
X50797039Y-29696095D01*
X50800000Y-29723030D01*
X50800000Y-33620985D01*
X50780315Y-33688024D01*
X50727511Y-33733779D01*
X50706085Y-33741280D01*
X50634392Y-33759209D01*
X50634380Y-33759212D01*
X50631032Y-33760050D01*
X50627797Y-33761256D01*
X50627785Y-33761260D01*
X50622716Y-33763151D01*
X50624844Y-33762335D01*
X50577686Y-33779948D01*
X50577061Y-33780181D01*
X50533729Y-33787999D01*
X49181499Y-33787999D01*
X49114460Y-33768314D01*
X49068705Y-33715510D01*
X49057499Y-33663999D01*
X49057499Y-33210217D01*
X49077184Y-33143178D01*
X49090743Y-33125722D01*
X49118290Y-33096134D01*
X49173567Y-33024977D01*
X49233338Y-32894100D01*
X49253023Y-32827061D01*
X49253024Y-32827057D01*
X49273500Y-32684641D01*
X49273500Y-30604000D01*
X49261947Y-30496544D01*
X49250741Y-30445033D01*
X49241700Y-30417869D01*
X49216614Y-30342496D01*
X49138826Y-30221458D01*
X49134004Y-30215894D01*
X49093070Y-30168653D01*
X48984336Y-30074433D01*
X48984335Y-30074432D01*
X48853460Y-30014662D01*
X48788113Y-29995474D01*
X48788111Y-29995473D01*
X48786420Y-29994977D01*
X48786416Y-29994976D01*
X48783290Y-29994526D01*
X48783277Y-29994524D01*
X48644000Y-29974500D01*
X45336000Y-29974500D01*
X45332706Y-29974854D01*
X45332690Y-29974855D01*
X45231854Y-29985697D01*
X45231851Y-29985697D01*
X45228544Y-29986053D01*
X45225309Y-29986756D01*
X45225295Y-29986759D01*
X45180277Y-29996553D01*
X45180272Y-29996554D01*
X45177033Y-29997259D01*
X45173893Y-29998303D01*
X45173875Y-29998309D01*
X45074496Y-30031385D01*
X44953458Y-30109173D01*
X44900652Y-30154931D01*
X44806432Y-30263664D01*
X44746662Y-30394539D01*
X44730883Y-30448277D01*
X44726977Y-30461580D01*
X44726976Y-30461584D01*
X44726527Y-30464706D01*
X44726524Y-30464722D01*
X44706500Y-30604000D01*
X44706500Y-30610000D01*
X44686815Y-30677039D01*
X44634011Y-30722794D01*
X44582500Y-30734000D01*
X43273771Y-30734000D01*
X43206732Y-30714315D01*
X43182452Y-30689583D01*
X43181613Y-30690423D01*
X43051440Y-30560250D01*
X42907095Y-30471216D01*
X42746103Y-30417869D01*
X42649873Y-30408038D01*
X42649854Y-30408037D01*
X42646741Y-30407719D01*
X42643592Y-30407719D01*
X42053201Y-30407719D01*
X42053181Y-30407719D01*
X42050052Y-30407720D01*
X42046920Y-30408039D01*
X42046918Y-30408040D01*
X41950688Y-30417869D01*
X41789696Y-30471216D01*
X41645351Y-30560250D01*
X41515179Y-30690423D01*
X41513446Y-30688690D01*
X41476609Y-30721823D01*
X41423021Y-30734000D01*
X38224000Y-30734000D01*
X38156961Y-30714315D01*
X38111206Y-30661511D01*
X38100000Y-30610000D01*
X38100000Y-29197500D01*
X38119685Y-29130461D01*
X38172489Y-29084706D01*
X38224000Y-29073500D01*
X49903086Y-29073500D01*
X49970125Y-29093185D01*
G37*
%TD.AperFunction*%
%TD*%
%TA.AperFunction,Conductor*%
%TO.N,+12V*%
G36*
X54365551Y-26689685D02*
G01*
X54371388Y-26693675D01*
X54388560Y-26706151D01*
X54411272Y-26722653D01*
X54571518Y-26793999D01*
X54584197Y-26799644D01*
X54765781Y-26838240D01*
X54827262Y-26871432D01*
X54861039Y-26932595D01*
X54864000Y-26959530D01*
X54864000Y-34676500D01*
X54844315Y-34743539D01*
X54791511Y-34789294D01*
X54740000Y-34800500D01*
X53461883Y-34800500D01*
X53458449Y-34800885D01*
X53458436Y-34800886D01*
X53353293Y-34812683D01*
X53353278Y-34812685D01*
X53349860Y-34813069D01*
X53346504Y-34813831D01*
X53346490Y-34813834D01*
X53299649Y-34824479D01*
X53299634Y-34824483D01*
X53296269Y-34825248D01*
X53293008Y-34826383D01*
X53292997Y-34826387D01*
X53189831Y-34862322D01*
X53070250Y-34942335D01*
X53021234Y-34986421D01*
X53021228Y-34986426D01*
X53018303Y-34989058D01*
X53018292Y-34989068D01*
X53015569Y-34992329D01*
X53015559Y-34992341D01*
X52947355Y-35074063D01*
X52939836Y-35082290D01*
X52905632Y-35116494D01*
X52883048Y-35134351D01*
X52863940Y-35146137D01*
X52837849Y-35158304D01*
X52812501Y-35166704D01*
X52773495Y-35172999D01*
X52242504Y-35172999D01*
X52203502Y-35166705D01*
X52178145Y-35158303D01*
X52152054Y-35146136D01*
X52132948Y-35134351D01*
X52110365Y-35116494D01*
X52082549Y-35088678D01*
X52072608Y-35077456D01*
X52055149Y-35055165D01*
X52020385Y-35010778D01*
X52017964Y-35008311D01*
X52017958Y-35008305D01*
X51984306Y-34974026D01*
X51984304Y-34974024D01*
X51981885Y-34971560D01*
X51894453Y-34900433D01*
X51894452Y-34900432D01*
X51763577Y-34840662D01*
X51698230Y-34821474D01*
X51698228Y-34821473D01*
X51696537Y-34820977D01*
X51696533Y-34820976D01*
X51693407Y-34820526D01*
X51693394Y-34820524D01*
X51554117Y-34800500D01*
X51062365Y-34800500D01*
X51059623Y-34800745D01*
X51059609Y-34800746D01*
X50975368Y-34808285D01*
X50975357Y-34808286D01*
X50972613Y-34808532D01*
X50969903Y-34809020D01*
X50969895Y-34809022D01*
X50932006Y-34815858D01*
X50932002Y-34815858D01*
X50929280Y-34816350D01*
X50926626Y-34817077D01*
X50926604Y-34817083D01*
X50842385Y-34840186D01*
X50716104Y-34909138D01*
X50660169Y-34951010D01*
X50660161Y-34951015D01*
X50589497Y-35021680D01*
X50528174Y-35055165D01*
X50501816Y-35057999D01*
X49181499Y-35057999D01*
X49114460Y-35038314D01*
X49068705Y-34985510D01*
X49057499Y-34933999D01*
X49057499Y-34417499D01*
X49077184Y-34350460D01*
X49129988Y-34304705D01*
X49181499Y-34293499D01*
X50601561Y-34293499D01*
X50604872Y-34293499D01*
X50664483Y-34287091D01*
X50799331Y-34236796D01*
X50799335Y-34236792D01*
X50807651Y-34233691D01*
X50862207Y-34226382D01*
X51562000Y-34290000D01*
X51562000Y-34289999D01*
X51562000Y-29216402D01*
X51578612Y-29154404D01*
X51627179Y-29070284D01*
X51685674Y-28890256D01*
X51705460Y-28702000D01*
X51685674Y-28513744D01*
X51627179Y-28333716D01*
X51578611Y-28249593D01*
X51561999Y-28187599D01*
X51562000Y-26793999D01*
X51581685Y-26726960D01*
X51634489Y-26681206D01*
X51686000Y-26670000D01*
X54298512Y-26670000D01*
X54365551Y-26689685D01*
G37*
%TD.AperFunction*%
%TD*%
%TA.AperFunction,Conductor*%
%TO.N,+5V*%
G36*
X41508841Y-32023685D02*
G01*
X41529482Y-32040317D01*
X41557577Y-32068412D01*
X41591062Y-32129733D01*
X41593896Y-32156093D01*
X41593896Y-33140396D01*
X41592587Y-33158366D01*
X41589081Y-33182302D01*
X41593424Y-33231942D01*
X41593896Y-33242749D01*
X41593896Y-33248337D01*
X41594312Y-33251898D01*
X41594313Y-33251913D01*
X41597512Y-33279281D01*
X41597878Y-33282865D01*
X41604558Y-33359215D01*
X41608819Y-33378435D01*
X41635017Y-33450416D01*
X41636200Y-33453818D01*
X41649705Y-33494570D01*
X41656000Y-33533577D01*
X41656000Y-33912000D01*
X41636315Y-33979039D01*
X41583511Y-34024794D01*
X41532000Y-34036000D01*
X39116000Y-34036000D01*
X39116000Y-40262000D01*
X39096315Y-40329039D01*
X39043511Y-40374794D01*
X38992000Y-40386000D01*
X37152261Y-40386000D01*
X37085222Y-40366315D01*
X37064580Y-40349681D01*
X36358319Y-39643420D01*
X36324834Y-39582097D01*
X36322000Y-39555739D01*
X36322000Y-32128000D01*
X36341685Y-32060961D01*
X36394489Y-32015206D01*
X36446000Y-32004000D01*
X41441802Y-32004000D01*
X41508841Y-32023685D01*
G37*
%TD.AperFunction*%
%TD*%
%TA.AperFunction,Conductor*%
%TO.N,GND*%
G36*
X48711039Y-30499685D02*
G01*
X48756794Y-30552489D01*
X48768000Y-30604000D01*
X48768000Y-32684641D01*
X48748315Y-32751680D01*
X48718312Y-32783906D01*
X48649453Y-32835453D01*
X48649454Y-32835454D01*
X48563204Y-32950668D01*
X48512910Y-33085515D01*
X48512909Y-33085517D01*
X48506500Y-33145127D01*
X48506500Y-33148448D01*
X48506500Y-33148449D01*
X48506500Y-33837560D01*
X48506500Y-33837578D01*
X48506501Y-33840872D01*
X48506853Y-33844152D01*
X48506854Y-33844159D01*
X48512909Y-33900484D01*
X48563204Y-34035332D01*
X48576947Y-34053690D01*
X48601364Y-34119155D01*
X48586512Y-34187427D01*
X48576947Y-34202310D01*
X48563205Y-34220666D01*
X48512910Y-34355515D01*
X48512909Y-34355517D01*
X48506500Y-34415127D01*
X48506500Y-34418448D01*
X48506500Y-34418449D01*
X48506500Y-35107560D01*
X48506500Y-35107578D01*
X48506501Y-35110872D01*
X48506853Y-35114152D01*
X48506854Y-35114159D01*
X48512909Y-35170484D01*
X48538056Y-35237906D01*
X48563204Y-35305331D01*
X48649454Y-35420546D01*
X48764669Y-35506796D01*
X48899517Y-35557091D01*
X48959127Y-35563500D01*
X50604872Y-35563499D01*
X50664483Y-35557091D01*
X50799331Y-35506796D01*
X50914546Y-35420546D01*
X50963097Y-35355689D01*
X51019032Y-35313818D01*
X51062365Y-35306000D01*
X51554117Y-35306000D01*
X51621156Y-35325685D01*
X51659656Y-35364903D01*
X51685033Y-35406046D01*
X51804955Y-35525968D01*
X51949300Y-35615002D01*
X52110292Y-35668349D01*
X52206522Y-35678180D01*
X52206523Y-35678180D01*
X52209655Y-35678500D01*
X52806344Y-35678499D01*
X52905708Y-35668349D01*
X53066697Y-35615003D01*
X53211044Y-35525968D01*
X53330968Y-35406044D01*
X53356344Y-35364902D01*
X53408292Y-35318179D01*
X53461883Y-35306000D01*
X54740000Y-35306000D01*
X54807039Y-35325685D01*
X54852794Y-35378489D01*
X54864000Y-35430000D01*
X54864000Y-39704047D01*
X54844315Y-39771086D01*
X54827681Y-39791728D01*
X54269728Y-40349681D01*
X54208405Y-40383166D01*
X54182047Y-40386000D01*
X40020495Y-40386000D01*
X39953456Y-40366315D01*
X39907701Y-40313511D01*
X39897757Y-40244353D01*
X39906693Y-40212755D01*
X39930018Y-40158852D01*
X39935160Y-40148356D01*
X39956197Y-40110092D01*
X39961179Y-40090684D01*
X39967481Y-40072280D01*
X39975437Y-40053896D01*
X39982269Y-40010752D01*
X39984633Y-39999338D01*
X39995500Y-39957019D01*
X39995500Y-39936982D01*
X39997027Y-39917584D01*
X40000160Y-39897804D01*
X39996050Y-39854324D01*
X39995500Y-39842655D01*
X39995500Y-36700000D01*
X40015185Y-36632961D01*
X40067989Y-36587206D01*
X40119500Y-36576000D01*
X41444332Y-36576000D01*
X41511371Y-36595685D01*
X41557126Y-36648489D01*
X41567070Y-36717647D01*
X41550449Y-36764149D01*
X41499523Y-36848390D01*
X41448913Y-37010806D01*
X41442755Y-37078575D01*
X41442500Y-37081384D01*
X41442500Y-37594616D01*
X41442754Y-37597420D01*
X41442755Y-37597424D01*
X41448913Y-37665193D01*
X41448914Y-37665196D01*
X41499522Y-37827606D01*
X41499523Y-37827607D01*
X41587528Y-37973186D01*
X41619680Y-38005337D01*
X41653166Y-38066659D01*
X41656000Y-38093019D01*
X41656000Y-38100000D01*
X41684046Y-38100000D01*
X41748195Y-38117882D01*
X41853394Y-38181478D01*
X42015804Y-38232086D01*
X42086384Y-38238500D01*
X42089203Y-38238500D01*
X42746797Y-38238500D01*
X42749616Y-38238500D01*
X42820196Y-38232086D01*
X42982606Y-38181478D01*
X43087804Y-38117882D01*
X43151954Y-38100000D01*
X43519931Y-38100000D01*
X43533186Y-38100710D01*
X43559127Y-38103500D01*
X45204872Y-38103499D01*
X45264483Y-38097091D01*
X45399331Y-38046796D01*
X45514546Y-37960546D01*
X45600796Y-37845331D01*
X45651091Y-37710483D01*
X45657500Y-37650873D01*
X45657500Y-37647578D01*
X48506500Y-37647578D01*
X48506501Y-37650872D01*
X48506853Y-37654152D01*
X48506854Y-37654159D01*
X48512909Y-37710483D01*
X48563204Y-37845331D01*
X48649454Y-37960546D01*
X48764669Y-38046796D01*
X48899517Y-38097091D01*
X48959127Y-38103500D01*
X50604872Y-38103499D01*
X50664483Y-38097091D01*
X50799331Y-38046796D01*
X50914546Y-37960546D01*
X51000796Y-37845331D01*
X51051091Y-37710483D01*
X51057500Y-37650873D01*
X51057499Y-36955128D01*
X51051091Y-36895517D01*
X51000796Y-36760669D01*
X50914546Y-36645454D01*
X50799331Y-36559204D01*
X50664483Y-36508909D01*
X50604873Y-36502500D01*
X50601550Y-36502500D01*
X48962439Y-36502500D01*
X48962420Y-36502500D01*
X48959128Y-36502501D01*
X48955848Y-36502853D01*
X48955840Y-36502854D01*
X48899515Y-36508909D01*
X48764669Y-36559204D01*
X48649454Y-36645454D01*
X48563204Y-36760668D01*
X48512910Y-36895515D01*
X48512909Y-36895517D01*
X48506500Y-36955127D01*
X48506500Y-36958448D01*
X48506500Y-36958449D01*
X48506500Y-37647560D01*
X48506500Y-37647578D01*
X45657500Y-37647578D01*
X45657499Y-36955128D01*
X45651091Y-36895517D01*
X45600796Y-36760669D01*
X45587053Y-36742311D01*
X45562635Y-36676850D01*
X45577485Y-36608576D01*
X45587050Y-36593691D01*
X45600796Y-36575331D01*
X45651091Y-36440483D01*
X45657500Y-36380873D01*
X45657499Y-35685128D01*
X45651091Y-35625517D01*
X45600796Y-35490669D01*
X45587053Y-35472311D01*
X45562635Y-35406850D01*
X45577485Y-35338576D01*
X45587050Y-35323691D01*
X45600796Y-35305331D01*
X45651091Y-35170483D01*
X45657500Y-35110873D01*
X45657499Y-34415128D01*
X45651091Y-34355517D01*
X45600796Y-34220669D01*
X45587053Y-34202311D01*
X45562635Y-34136850D01*
X45577485Y-34068576D01*
X45587052Y-34053690D01*
X45600796Y-34035331D01*
X45651091Y-33900483D01*
X45657500Y-33840873D01*
X45657499Y-33145128D01*
X45651091Y-33085517D01*
X45600796Y-32950669D01*
X45514546Y-32835454D01*
X45399331Y-32749204D01*
X45292666Y-32709420D01*
X45236733Y-32667550D01*
X45212316Y-32602085D01*
X45212000Y-32593239D01*
X45212000Y-30604000D01*
X45231685Y-30536961D01*
X45284489Y-30491206D01*
X45336000Y-30480000D01*
X48644000Y-30480000D01*
X48711039Y-30499685D01*
G37*
%TD.AperFunction*%
%TD*%
M02*
