%TF.GenerationSoftware,KiCad,Pcbnew,7.0.2*%
%TF.CreationDate,2023-04-23T19:59:56+01:00*%
%TF.ProjectId,fan-controller,66616e2d-636f-46e7-9472-6f6c6c65722e,rev?*%
%TF.SameCoordinates,Original*%
%TF.FileFunction,Copper,L2,Bot*%
%TF.FilePolarity,Positive*%
%FSLAX46Y46*%
G04 Gerber Fmt 4.6, Leading zero omitted, Abs format (unit mm)*
G04 Created by KiCad (PCBNEW 7.0.2) date 2023-04-23 19:59:56*
%MOMM*%
%LPD*%
G01*
G04 APERTURE LIST*
G04 Aperture macros list*
%AMRoundRect*
0 Rectangle with rounded corners*
0 $1 Rounding radius*
0 $2 $3 $4 $5 $6 $7 $8 $9 X,Y pos of 4 corners*
0 Add a 4 corners polygon primitive as box body*
4,1,4,$2,$3,$4,$5,$6,$7,$8,$9,$2,$3,0*
0 Add four circle primitives for the rounded corners*
1,1,$1+$1,$2,$3*
1,1,$1+$1,$4,$5*
1,1,$1+$1,$6,$7*
1,1,$1+$1,$8,$9*
0 Add four rect primitives between the rounded corners*
20,1,$1+$1,$2,$3,$4,$5,0*
20,1,$1+$1,$4,$5,$6,$7,0*
20,1,$1+$1,$6,$7,$8,$9,0*
20,1,$1+$1,$8,$9,$2,$3,0*%
G04 Aperture macros list end*
%TA.AperFunction,ComponentPad*%
%ADD10R,1.524000X1.524000*%
%TD*%
%TA.AperFunction,ComponentPad*%
%ADD11C,1.524000*%
%TD*%
%TA.AperFunction,ComponentPad*%
%ADD12RoundRect,0.250000X-0.845000X0.620000X-0.845000X-0.620000X0.845000X-0.620000X0.845000X0.620000X0*%
%TD*%
%TA.AperFunction,ComponentPad*%
%ADD13O,2.190000X1.740000*%
%TD*%
%TA.AperFunction,ComponentPad*%
%ADD14RoundRect,0.250000X0.845000X-0.620000X0.845000X0.620000X-0.845000X0.620000X-0.845000X-0.620000X0*%
%TD*%
%TA.AperFunction,ComponentPad*%
%ADD15R,3.500000X3.500000*%
%TD*%
%TA.AperFunction,ComponentPad*%
%ADD16RoundRect,0.750000X1.000000X-0.750000X1.000000X0.750000X-1.000000X0.750000X-1.000000X-0.750000X0*%
%TD*%
%TA.AperFunction,ComponentPad*%
%ADD17RoundRect,0.875000X0.875000X-0.875000X0.875000X0.875000X-0.875000X0.875000X-0.875000X-0.875000X0*%
%TD*%
%TA.AperFunction,ViaPad*%
%ADD18C,0.800000*%
%TD*%
%TA.AperFunction,Conductor*%
%ADD19C,0.254000*%
%TD*%
%TA.AperFunction,Conductor*%
%ADD20C,0.250000*%
%TD*%
G04 APERTURE END LIST*
D10*
%TO.P,U4,1,EN*%
%TO.N,unconnected-(U4-EN-Pad1)*%
X33300000Y-29000000D03*
D11*
%TO.P,U4,2,SENSOR_VP*%
%TO.N,unconnected-(U4-SENSOR_VP-Pad2)*%
X33300000Y-31540000D03*
%TO.P,U4,3,SENSOR_VN*%
%TO.N,unconnected-(U4-SENSOR_VN-Pad3)*%
X33300000Y-34080000D03*
%TO.P,U4,4,IO34*%
%TO.N,unconnected-(U4-IO34-Pad4)*%
X33300000Y-36620000D03*
%TO.P,U4,5,IO35*%
%TO.N,unconnected-(U4-IO35-Pad5)*%
X33300000Y-39160000D03*
%TO.P,U4,6,IO32*%
%TO.N,TACO_4*%
X33300000Y-41700000D03*
%TO.P,U4,7,IO33*%
%TO.N,TACO_5*%
X33300000Y-44240000D03*
%TO.P,U4,8,IO25*%
%TO.N,TACO_2*%
X33300000Y-46780000D03*
%TO.P,U4,9,IO26*%
%TO.N,TACO_3*%
X33300000Y-49320000D03*
%TO.P,U4,10,IO27*%
%TO.N,TACO_6*%
X33300000Y-51860000D03*
%TO.P,U4,11,IO14*%
%TO.N,unconnected-(U4-IO14-Pad11)*%
X33300000Y-54400000D03*
%TO.P,U4,12,IO12*%
%TO.N,unconnected-(U4-IO12-Pad12)*%
X33300000Y-56940000D03*
%TO.P,U4,13,IO13*%
%TO.N,PWM_1*%
X33300000Y-59480000D03*
%TO.P,U4,14,GND*%
%TO.N,GND*%
X33300000Y-62020000D03*
%TO.P,U4,15,VIN*%
%TO.N,+5V*%
X33300000Y-64560000D03*
%TO.P,U4,16,3V3*%
%TO.N,+3.3V*%
X58700000Y-64560000D03*
%TO.P,U4,17,GND*%
%TO.N,GND*%
X58700000Y-62020000D03*
%TO.P,U4,18,IO15*%
%TO.N,unconnected-(U4-IO15-Pad18)*%
X58700000Y-59480000D03*
%TO.P,U4,19,IO2*%
%TO.N,unconnected-(U4-IO2-Pad19)*%
X58700000Y-56940000D03*
%TO.P,U4,20,IO4*%
%TO.N,unconnected-(U4-IO4-Pad20)*%
X58700000Y-54400000D03*
%TO.P,U4,21,IO16*%
%TO.N,unconnected-(U4-IO16-Pad21)*%
X58700000Y-51860000D03*
%TO.P,U4,22,IO17*%
%TO.N,unconnected-(U4-IO17-Pad22)*%
X58700000Y-49320000D03*
%TO.P,U4,23,IO5*%
%TO.N,unconnected-(U4-IO5-Pad23)*%
X58700000Y-46780000D03*
%TO.P,U4,24,IO18*%
%TO.N,unconnected-(U4-IO18-Pad24)*%
X58700000Y-44240000D03*
%TO.P,U4,25,IO19*%
%TO.N,unconnected-(U4-IO19-Pad25)*%
X58700000Y-41700000D03*
%TO.P,U4,26,IO21*%
%TO.N,SDA*%
X58700000Y-39160000D03*
%TO.P,U4,27,RXD0/IO3*%
%TO.N,unconnected-(U4-RXD0{slash}IO3-Pad27)*%
X58700000Y-36620000D03*
%TO.P,U4,28,TXD0/IO1*%
%TO.N,unconnected-(U4-TXD0{slash}IO1-Pad28)*%
X58700000Y-34080000D03*
%TO.P,U4,29,IO22*%
%TO.N,SCL*%
X58700000Y-31540000D03*
%TO.P,U4,30,IO23*%
%TO.N,TACO_1*%
X58700000Y-29000000D03*
%TD*%
D12*
%TO.P,J6,1,Pin_1*%
%TO.N,GND*%
X25000000Y-40000000D03*
D13*
%TO.P,J6,2,Pin_2*%
%TO.N,+12V*%
X25000000Y-42540000D03*
%TO.P,J6,3,Pin_3*%
%TO.N,Net-(D5-K)*%
X25000000Y-45080000D03*
%TO.P,J6,4,Pin_4*%
%TO.N,PWM_OUT*%
X25000000Y-47620000D03*
%TD*%
D14*
%TO.P,J4,1,Pin_1*%
%TO.N,GND*%
X67000000Y-62600000D03*
D13*
%TO.P,J4,2,Pin_2*%
%TO.N,+12V*%
X67000000Y-60060000D03*
%TO.P,J4,3,Pin_3*%
%TO.N,Net-(D3-K)*%
X67000000Y-57520000D03*
%TO.P,J4,4,Pin_4*%
%TO.N,PWM_OUT*%
X67000000Y-54980000D03*
%TD*%
D15*
%TO.P,J1,1*%
%TO.N,+12V*%
X25000000Y-67914000D03*
D16*
%TO.P,J1,2*%
%TO.N,GND*%
X25000000Y-73914000D03*
D17*
%TO.P,J1,3*%
%TO.N,N/C*%
X29700000Y-70914000D03*
%TD*%
D12*
%TO.P,J5,1,Pin_1*%
%TO.N,GND*%
X25000000Y-25000000D03*
D13*
%TO.P,J5,2,Pin_2*%
%TO.N,+12V*%
X25000000Y-27540000D03*
%TO.P,J5,3,Pin_3*%
%TO.N,Net-(D4-K)*%
X25000000Y-30080000D03*
%TO.P,J5,4,Pin_4*%
%TO.N,PWM_OUT*%
X25000000Y-32620000D03*
%TD*%
D14*
%TO.P,J2,1,Pin_1*%
%TO.N,GND*%
X67000000Y-32600000D03*
D13*
%TO.P,J2,2,Pin_2*%
%TO.N,+12V*%
X67000000Y-30060000D03*
%TO.P,J2,3,Pin_3*%
%TO.N,Net-(D1-K)*%
X67000000Y-27520000D03*
%TO.P,J2,4,Pin_4*%
%TO.N,PWM_OUT*%
X67000000Y-24980000D03*
%TD*%
D14*
%TO.P,J3,1,Pin_1*%
%TO.N,GND*%
X67000000Y-47600000D03*
D13*
%TO.P,J3,2,Pin_2*%
%TO.N,+12V*%
X67000000Y-45060000D03*
%TO.P,J3,3,Pin_3*%
%TO.N,Net-(D2-K)*%
X67000000Y-42520000D03*
%TO.P,J3,4,Pin_4*%
%TO.N,PWM_OUT*%
X67000000Y-39980000D03*
%TD*%
D12*
%TO.P,J7,1,Pin_1*%
%TO.N,GND*%
X25000000Y-55000000D03*
D13*
%TO.P,J7,2,Pin_2*%
%TO.N,+12V*%
X25000000Y-57540000D03*
%TO.P,J7,3,Pin_3*%
%TO.N,Net-(D6-K)*%
X25000000Y-60080000D03*
%TO.P,J7,4,Pin_4*%
%TO.N,PWM_OUT*%
X25000000Y-62620000D03*
%TD*%
D18*
%TO.N,+3.3V*%
X43000000Y-54000000D03*
%TO.N,GND*%
X65424062Y-75845337D03*
%TO.N,TACO_1*%
X63878446Y-21649191D03*
%TO.N,TACO_2*%
X63542472Y-36158520D03*
%TO.N,TACO_3*%
X63868556Y-51544691D03*
%TO.N,TACO_4*%
X28099487Y-21542657D03*
%TO.N,TACO_5*%
X28000000Y-36356683D03*
%TO.N,TACO_6*%
X27910567Y-51375374D03*
%TO.N,PWM_OUT*%
X45420377Y-36765827D03*
%TD*%
D19*
%TO.N,+3.3V*%
X57000000Y-58000000D02*
X57029000Y-58029000D01*
X57000000Y-58000000D02*
X47000000Y-58000000D01*
X60000000Y-63260000D02*
X58700000Y-64560000D01*
X57029000Y-58029000D02*
X59029000Y-58029000D01*
X60000000Y-59000000D02*
X60000000Y-63260000D01*
X59029000Y-58029000D02*
X60000000Y-59000000D01*
X47000000Y-58000000D02*
X43000000Y-54000000D01*
%TO.N,GND*%
X65424062Y-75845337D02*
X59154663Y-75845337D01*
D20*
%TO.N,TACO_1*%
X58700000Y-26827637D02*
X63878446Y-21649191D01*
X58700000Y-29000000D02*
X58700000Y-26827637D01*
%TO.N,TACO_2*%
X63542472Y-36158520D02*
X59453992Y-40247000D01*
X59453992Y-40247000D02*
X39833000Y-40247000D01*
X39833000Y-40247000D02*
X33300000Y-46780000D01*
%TO.N,TACO_3*%
X36927000Y-52947000D02*
X33300000Y-49320000D01*
X62466247Y-52947000D02*
X36927000Y-52947000D01*
X63868556Y-51544691D02*
X62466247Y-52947000D01*
%TO.N,TACO_4*%
X33300000Y-41700000D02*
X32213000Y-40613000D01*
X32213000Y-40613000D02*
X32213000Y-25656170D01*
X32213000Y-25656170D02*
X28099487Y-21542657D01*
%TO.N,TACO_5*%
X33300000Y-44240000D02*
X28000000Y-38940000D01*
X28000000Y-38940000D02*
X28000000Y-36356683D01*
%TO.N,TACO_6*%
X28395193Y-51860000D02*
X27910567Y-51375374D01*
X33300000Y-51860000D02*
X28395193Y-51860000D01*
%TO.N,PWM_OUT*%
X69000000Y-37000000D02*
X69000000Y-24000000D01*
X68000000Y-23980000D02*
X68000000Y-23000000D01*
X45420377Y-35105413D02*
X59601599Y-20924191D01*
X23125000Y-45745000D02*
X23125000Y-45000000D01*
X67000000Y-54980000D02*
X69000000Y-52980000D01*
X25000000Y-47620000D02*
X23125000Y-45745000D01*
X25000000Y-62620000D02*
X23125000Y-60745000D01*
X31080553Y-20817657D02*
X26307343Y-20817657D01*
X45420377Y-36765827D02*
X45420377Y-35157481D01*
X59601599Y-20924191D02*
X65924191Y-20924191D01*
X69000000Y-52980000D02*
X69000000Y-37000000D01*
X69000000Y-37980000D02*
X69000000Y-37000000D01*
X23125000Y-45000000D02*
X23125000Y-32000000D01*
X23745000Y-32620000D02*
X23125000Y-32000000D01*
X67000000Y-24980000D02*
X68000000Y-23980000D01*
X45420377Y-35157481D02*
X31080553Y-20817657D01*
X67000000Y-39980000D02*
X69000000Y-37980000D01*
X65924191Y-20924191D02*
X68000000Y-23000000D01*
X23125000Y-60745000D02*
X23125000Y-45000000D01*
X45420377Y-36765827D02*
X45420377Y-35105413D01*
X23125000Y-24000000D02*
X23125000Y-32000000D01*
X69000000Y-24000000D02*
X68000000Y-23000000D01*
X26307343Y-20817657D02*
X23125000Y-24000000D01*
X25000000Y-32620000D02*
X23745000Y-32620000D01*
%TD*%
%TA.AperFunction,Conductor*%
%TO.N,GND*%
G36*
X26074073Y-20020185D02*
G01*
X26119828Y-20072989D01*
X26129772Y-20142147D01*
X26100747Y-20205703D01*
X26070149Y-20231236D01*
X26039707Y-20249237D01*
X26022247Y-20257790D01*
X26003610Y-20265169D01*
X25968274Y-20290842D01*
X25958517Y-20297252D01*
X25920923Y-20319486D01*
X25906756Y-20333653D01*
X25891967Y-20346283D01*
X25875756Y-20358061D01*
X25847915Y-20391715D01*
X25840054Y-20400354D01*
X22741208Y-23499199D01*
X22725110Y-23512096D01*
X22677096Y-23563225D01*
X22674392Y-23566016D01*
X22657628Y-23582780D01*
X22657621Y-23582787D01*
X22654880Y-23585529D01*
X22652499Y-23588597D01*
X22652490Y-23588608D01*
X22652411Y-23588711D01*
X22644842Y-23597572D01*
X22614935Y-23629420D01*
X22605285Y-23646974D01*
X22594609Y-23663228D01*
X22582326Y-23679063D01*
X22564975Y-23719158D01*
X22559838Y-23729644D01*
X22538802Y-23767907D01*
X22533821Y-23787309D01*
X22527520Y-23805711D01*
X22519561Y-23824102D01*
X22512728Y-23867242D01*
X22510360Y-23878674D01*
X22499500Y-23920977D01*
X22499500Y-23941016D01*
X22497972Y-23960414D01*
X22494840Y-23980196D01*
X22498950Y-24023673D01*
X22499500Y-24035343D01*
X22499500Y-31917256D01*
X22497235Y-31937766D01*
X22499439Y-32007872D01*
X22499500Y-32011767D01*
X22499500Y-45662256D01*
X22497235Y-45682766D01*
X22499439Y-45752872D01*
X22499500Y-45756767D01*
X22499500Y-60662256D01*
X22497235Y-60682766D01*
X22499439Y-60752872D01*
X22499500Y-60756767D01*
X22499500Y-60784350D01*
X22499988Y-60788219D01*
X22499989Y-60788225D01*
X22500004Y-60788343D01*
X22500918Y-60799967D01*
X22502290Y-60843626D01*
X22507879Y-60862860D01*
X22511825Y-60881916D01*
X22514335Y-60901792D01*
X22530414Y-60942404D01*
X22534197Y-60953451D01*
X22546382Y-60995391D01*
X22556580Y-61012635D01*
X22565136Y-61030100D01*
X22572514Y-61048732D01*
X22572515Y-61048733D01*
X22598180Y-61084059D01*
X22604593Y-61093822D01*
X22626826Y-61131416D01*
X22626829Y-61131419D01*
X22626830Y-61131420D01*
X22640995Y-61145585D01*
X22653627Y-61160375D01*
X22665406Y-61176587D01*
X22699058Y-61204426D01*
X22707699Y-61212289D01*
X23470360Y-61974951D01*
X23503845Y-62036274D01*
X23501244Y-62098941D01*
X23430417Y-62330217D01*
X23400784Y-62561627D01*
X23410685Y-62794704D01*
X23459836Y-63022767D01*
X23539838Y-63221858D01*
X23546821Y-63239235D01*
X23669138Y-63437891D01*
X23816718Y-63605574D01*
X23823270Y-63613019D01*
X24004776Y-63759576D01*
X24208448Y-63873354D01*
X24428418Y-63951074D01*
X24658351Y-63990500D01*
X24658353Y-63990500D01*
X25280585Y-63990500D01*
X25283216Y-63990500D01*
X25457453Y-63975670D01*
X25646911Y-63926339D01*
X25683220Y-63916885D01*
X25789510Y-63868838D01*
X25895802Y-63820792D01*
X26089088Y-63690153D01*
X26257516Y-63528728D01*
X26396240Y-63341161D01*
X26501270Y-63132847D01*
X26569583Y-62909780D01*
X26599216Y-62678376D01*
X26589314Y-62445293D01*
X26540164Y-62217235D01*
X26453179Y-62000765D01*
X26330862Y-61802109D01*
X26176731Y-61626982D01*
X26176729Y-61626980D01*
X25995221Y-61480421D01*
X25954897Y-61457895D01*
X25905971Y-61408015D01*
X25891779Y-61339602D01*
X25916827Y-61274376D01*
X25945931Y-61246910D01*
X26089088Y-61150153D01*
X26257516Y-60988728D01*
X26396240Y-60801161D01*
X26501270Y-60592847D01*
X26569583Y-60369780D01*
X26599216Y-60138376D01*
X26589314Y-59905293D01*
X26540164Y-59677235D01*
X26453179Y-59460765D01*
X26330862Y-59262109D01*
X26176731Y-59086982D01*
X26158782Y-59072489D01*
X25995221Y-58940421D01*
X25954897Y-58917895D01*
X25905971Y-58868015D01*
X25891779Y-58799602D01*
X25916827Y-58734376D01*
X25945931Y-58706910D01*
X26089088Y-58610153D01*
X26257516Y-58448728D01*
X26396240Y-58261161D01*
X26501270Y-58052847D01*
X26569583Y-57829780D01*
X26599216Y-57598376D01*
X26589314Y-57365293D01*
X26540164Y-57137235D01*
X26453179Y-56920765D01*
X26330862Y-56722109D01*
X26176731Y-56546982D01*
X26176730Y-56546982D01*
X26136768Y-56514714D01*
X26096976Y-56457283D01*
X26094550Y-56387456D01*
X26130260Y-56327401D01*
X26153008Y-56313945D01*
X26151787Y-56311966D01*
X26313345Y-56212316D01*
X26437316Y-56088345D01*
X26529357Y-55939122D01*
X26584506Y-55772696D01*
X26594680Y-55673109D01*
X26595000Y-55666831D01*
X26595000Y-55250000D01*
X25540470Y-55250000D01*
X25579685Y-55155326D01*
X25600134Y-55000000D01*
X25579685Y-54844674D01*
X25540470Y-54750000D01*
X26594999Y-54750000D01*
X26594999Y-54333170D01*
X26594678Y-54326888D01*
X26584506Y-54227304D01*
X26529357Y-54060877D01*
X26437316Y-53911654D01*
X26313345Y-53787683D01*
X26164122Y-53695642D01*
X25997696Y-53640493D01*
X25898109Y-53630319D01*
X25891832Y-53630000D01*
X25250000Y-53630000D01*
X25250000Y-54459530D01*
X25155326Y-54420315D01*
X25038997Y-54405000D01*
X24961003Y-54405000D01*
X24844674Y-54420315D01*
X24750000Y-54459530D01*
X24750000Y-53630000D01*
X24108171Y-53630000D01*
X24101888Y-53630321D01*
X24002303Y-53640493D01*
X23913503Y-53669919D01*
X23843675Y-53672321D01*
X23783633Y-53636589D01*
X23752441Y-53574068D01*
X23750500Y-53552213D01*
X23750500Y-48813760D01*
X23770185Y-48746721D01*
X23822989Y-48700966D01*
X23892147Y-48691022D01*
X23952400Y-48717284D01*
X24004780Y-48759578D01*
X24208448Y-48873354D01*
X24428418Y-48951074D01*
X24658351Y-48990500D01*
X24658353Y-48990500D01*
X25280585Y-48990500D01*
X25283216Y-48990500D01*
X25457453Y-48975670D01*
X25607963Y-48936480D01*
X25683220Y-48916885D01*
X25789510Y-48868838D01*
X25895802Y-48820792D01*
X26089088Y-48690153D01*
X26257516Y-48528728D01*
X26396240Y-48341161D01*
X26501270Y-48132847D01*
X26569583Y-47909780D01*
X26599216Y-47678376D01*
X26589314Y-47445293D01*
X26540164Y-47217235D01*
X26453179Y-47000765D01*
X26330862Y-46802109D01*
X26176731Y-46626982D01*
X26176729Y-46626980D01*
X25995221Y-46480421D01*
X25954897Y-46457895D01*
X25905971Y-46408015D01*
X25891779Y-46339602D01*
X25916827Y-46274376D01*
X25945931Y-46246910D01*
X26089088Y-46150153D01*
X26257516Y-45988728D01*
X26396240Y-45801161D01*
X26501270Y-45592847D01*
X26569583Y-45369780D01*
X26599216Y-45138376D01*
X26589314Y-44905293D01*
X26540164Y-44677235D01*
X26453179Y-44460765D01*
X26330862Y-44262109D01*
X26176731Y-44086982D01*
X26176729Y-44086980D01*
X25995221Y-43940421D01*
X25954897Y-43917895D01*
X25905971Y-43868015D01*
X25891779Y-43799602D01*
X25916827Y-43734376D01*
X25945931Y-43706910D01*
X26089088Y-43610153D01*
X26257516Y-43448728D01*
X26396240Y-43261161D01*
X26501270Y-43052847D01*
X26569583Y-42829780D01*
X26599216Y-42598376D01*
X26589314Y-42365293D01*
X26540164Y-42137235D01*
X26453179Y-41920765D01*
X26330862Y-41722109D01*
X26176731Y-41546982D01*
X26168039Y-41539964D01*
X26136768Y-41514714D01*
X26096976Y-41457283D01*
X26094550Y-41387456D01*
X26130260Y-41327401D01*
X26153008Y-41313945D01*
X26151787Y-41311966D01*
X26313345Y-41212316D01*
X26437316Y-41088345D01*
X26529357Y-40939122D01*
X26584506Y-40772696D01*
X26594680Y-40673109D01*
X26595000Y-40666831D01*
X26595000Y-40250000D01*
X25540470Y-40250000D01*
X25579685Y-40155326D01*
X25600134Y-40000000D01*
X25579685Y-39844674D01*
X25540470Y-39750000D01*
X26594999Y-39750000D01*
X26594999Y-39333170D01*
X26594678Y-39326888D01*
X26584506Y-39227304D01*
X26529357Y-39060877D01*
X26437316Y-38911654D01*
X26313345Y-38787683D01*
X26164122Y-38695642D01*
X25997696Y-38640493D01*
X25898109Y-38630319D01*
X25891832Y-38630000D01*
X25250000Y-38630000D01*
X25250000Y-39459530D01*
X25155326Y-39420315D01*
X25038997Y-39405000D01*
X24961003Y-39405000D01*
X24844674Y-39420315D01*
X24750000Y-39459530D01*
X24750000Y-38630000D01*
X24108171Y-38630000D01*
X24101888Y-38630321D01*
X24002303Y-38640493D01*
X23913503Y-38669919D01*
X23843675Y-38672321D01*
X23783633Y-38636589D01*
X23752441Y-38574068D01*
X23750500Y-38552213D01*
X23750500Y-33813760D01*
X23770185Y-33746721D01*
X23822989Y-33700966D01*
X23892147Y-33691022D01*
X23952400Y-33717284D01*
X24004780Y-33759578D01*
X24208448Y-33873354D01*
X24428418Y-33951074D01*
X24658351Y-33990500D01*
X24658353Y-33990500D01*
X25280585Y-33990500D01*
X25283216Y-33990500D01*
X25457453Y-33975670D01*
X25607963Y-33936479D01*
X25683220Y-33916885D01*
X25809214Y-33859932D01*
X25895802Y-33820792D01*
X26089088Y-33690153D01*
X26257516Y-33528728D01*
X26396240Y-33341161D01*
X26501270Y-33132847D01*
X26569583Y-32909780D01*
X26599216Y-32678376D01*
X26589314Y-32445293D01*
X26540164Y-32217235D01*
X26453179Y-32000765D01*
X26330862Y-31802109D01*
X26176731Y-31626982D01*
X26176729Y-31626980D01*
X25995221Y-31480421D01*
X25954897Y-31457895D01*
X25905971Y-31408015D01*
X25891779Y-31339602D01*
X25916827Y-31274376D01*
X25945931Y-31246910D01*
X26089088Y-31150153D01*
X26257516Y-30988728D01*
X26396240Y-30801161D01*
X26501270Y-30592847D01*
X26569583Y-30369780D01*
X26599216Y-30138376D01*
X26589314Y-29905293D01*
X26540164Y-29677235D01*
X26453179Y-29460765D01*
X26330862Y-29262109D01*
X26176731Y-29086982D01*
X26176729Y-29086980D01*
X25995221Y-28940421D01*
X25954897Y-28917895D01*
X25905971Y-28868015D01*
X25891779Y-28799602D01*
X25916827Y-28734376D01*
X25945931Y-28706910D01*
X26089088Y-28610153D01*
X26257516Y-28448728D01*
X26396240Y-28261161D01*
X26501270Y-28052847D01*
X26569583Y-27829780D01*
X26599216Y-27598376D01*
X26589314Y-27365293D01*
X26540164Y-27137235D01*
X26453179Y-26920765D01*
X26330862Y-26722109D01*
X26176731Y-26546982D01*
X26168039Y-26539964D01*
X26136768Y-26514714D01*
X26096976Y-26457283D01*
X26094550Y-26387456D01*
X26130260Y-26327401D01*
X26153008Y-26313945D01*
X26151787Y-26311966D01*
X26313345Y-26212316D01*
X26437316Y-26088345D01*
X26529357Y-25939122D01*
X26584506Y-25772696D01*
X26594680Y-25673109D01*
X26595000Y-25666831D01*
X26595000Y-25250000D01*
X25540470Y-25250000D01*
X25579685Y-25155326D01*
X25600134Y-25000000D01*
X25579685Y-24844674D01*
X25540470Y-24750000D01*
X26594999Y-24750000D01*
X26594999Y-24333170D01*
X26594678Y-24326888D01*
X26584506Y-24227304D01*
X26529357Y-24060877D01*
X26437316Y-23911654D01*
X26313345Y-23787683D01*
X26164122Y-23695642D01*
X25997696Y-23640493D01*
X25898109Y-23630319D01*
X25891832Y-23630000D01*
X25250000Y-23630000D01*
X25250000Y-24459530D01*
X25155326Y-24420315D01*
X25038997Y-24405000D01*
X24961003Y-24405000D01*
X24844674Y-24420315D01*
X24750000Y-24459530D01*
X24750000Y-23630000D01*
X24678951Y-23630000D01*
X24611912Y-23610315D01*
X24566157Y-23557511D01*
X24556213Y-23488353D01*
X24585238Y-23424797D01*
X24591256Y-23418333D01*
X26530114Y-21479476D01*
X26591437Y-21445991D01*
X26617795Y-21443157D01*
X27071919Y-21443157D01*
X27138958Y-21462842D01*
X27184713Y-21515646D01*
X27195239Y-21554194D01*
X27199646Y-21596115D01*
X27213813Y-21730914D01*
X27272307Y-21910941D01*
X27366953Y-22074873D01*
X27493616Y-22215546D01*
X27646756Y-22326808D01*
X27819684Y-22403801D01*
X28004839Y-22443157D01*
X28004841Y-22443157D01*
X28064035Y-22443157D01*
X28131074Y-22462842D01*
X28151716Y-22479476D01*
X28963681Y-23291441D01*
X28997166Y-23352764D01*
X29000000Y-23379122D01*
X29000000Y-35824958D01*
X28980315Y-35891997D01*
X28927511Y-35937752D01*
X28858353Y-35947696D01*
X28794797Y-35918671D01*
X28768613Y-35886958D01*
X28732533Y-35824467D01*
X28605870Y-35683793D01*
X28452730Y-35572531D01*
X28279802Y-35495538D01*
X28094648Y-35456183D01*
X28094646Y-35456183D01*
X27905354Y-35456183D01*
X27905352Y-35456183D01*
X27720197Y-35495538D01*
X27547269Y-35572531D01*
X27394129Y-35683793D01*
X27267466Y-35824466D01*
X27172820Y-35988398D01*
X27114326Y-36168425D01*
X27094540Y-36356683D01*
X27114326Y-36544940D01*
X27172820Y-36724967D01*
X27267464Y-36888896D01*
X27267467Y-36888899D01*
X27342649Y-36972397D01*
X27372879Y-37035388D01*
X27374499Y-37055369D01*
X27374499Y-38857256D01*
X27372235Y-38877763D01*
X27374439Y-38947872D01*
X27374500Y-38951767D01*
X27374500Y-38979350D01*
X27374988Y-38983219D01*
X27374989Y-38983225D01*
X27375004Y-38983343D01*
X27375918Y-38994967D01*
X27377290Y-39038626D01*
X27382879Y-39057860D01*
X27386825Y-39076916D01*
X27389335Y-39096792D01*
X27405414Y-39137404D01*
X27409197Y-39148451D01*
X27421382Y-39190391D01*
X27431580Y-39207635D01*
X27440136Y-39225100D01*
X27447514Y-39243732D01*
X27447515Y-39243733D01*
X27473180Y-39279059D01*
X27479593Y-39288822D01*
X27501826Y-39326416D01*
X27501829Y-39326419D01*
X27501830Y-39326420D01*
X27515995Y-39340585D01*
X27528627Y-39355375D01*
X27540406Y-39371587D01*
X27574058Y-39399426D01*
X27582699Y-39407289D01*
X28963680Y-40788270D01*
X28997165Y-40849593D01*
X28999999Y-40875951D01*
X28999999Y-51031318D01*
X28980314Y-51098357D01*
X28927510Y-51144112D01*
X28858352Y-51154056D01*
X28794796Y-51125031D01*
X28758068Y-51069635D01*
X28737746Y-51007090D01*
X28643100Y-50843157D01*
X28516437Y-50702484D01*
X28363297Y-50591222D01*
X28190369Y-50514229D01*
X28005215Y-50474874D01*
X28005213Y-50474874D01*
X27815921Y-50474874D01*
X27815919Y-50474874D01*
X27630764Y-50514229D01*
X27457836Y-50591222D01*
X27304696Y-50702484D01*
X27178033Y-50843157D01*
X27083387Y-51007089D01*
X27024893Y-51187116D01*
X27005107Y-51375374D01*
X27024893Y-51563631D01*
X27083387Y-51743658D01*
X27178033Y-51907590D01*
X27304696Y-52048263D01*
X27457836Y-52159525D01*
X27630764Y-52236518D01*
X27815919Y-52275874D01*
X27815921Y-52275874D01*
X27875115Y-52275874D01*
X27942154Y-52295559D01*
X27962796Y-52312193D01*
X27980723Y-52330120D01*
X27983808Y-52332513D01*
X27983894Y-52332580D01*
X27992766Y-52340158D01*
X28024611Y-52370062D01*
X28042167Y-52379714D01*
X28058424Y-52390392D01*
X28074257Y-52402674D01*
X28090378Y-52409649D01*
X28114349Y-52420023D01*
X28124836Y-52425160D01*
X28163101Y-52446197D01*
X28182509Y-52451180D01*
X28200903Y-52457478D01*
X28219298Y-52465438D01*
X28262447Y-52472271D01*
X28273873Y-52474638D01*
X28289415Y-52478629D01*
X28316173Y-52485500D01*
X28316174Y-52485500D01*
X28336209Y-52485500D01*
X28355606Y-52487026D01*
X28375389Y-52490160D01*
X28418867Y-52486050D01*
X28430537Y-52485500D01*
X28876000Y-52485500D01*
X28943039Y-52505185D01*
X28988794Y-52557989D01*
X29000000Y-52609500D01*
X29000000Y-66000000D01*
X32000000Y-66000000D01*
X32000000Y-65297787D01*
X32019685Y-65230748D01*
X32072489Y-65184993D01*
X32141647Y-65175049D01*
X32205203Y-65204074D01*
X32225571Y-65226660D01*
X32329174Y-65374620D01*
X32485380Y-65530826D01*
X32666338Y-65657534D01*
X32866550Y-65750894D01*
X33079932Y-65808070D01*
X33300000Y-65827323D01*
X33520068Y-65808070D01*
X33733450Y-65750894D01*
X33933662Y-65657534D01*
X34114620Y-65530826D01*
X34270826Y-65374620D01*
X34397534Y-65193662D01*
X34490894Y-64993450D01*
X34548070Y-64780068D01*
X34567323Y-64560000D01*
X34548070Y-64339932D01*
X34490894Y-64126550D01*
X34397534Y-63926339D01*
X34270826Y-63745380D01*
X34114620Y-63589174D01*
X33933662Y-63462466D01*
X33880961Y-63437891D01*
X33804218Y-63402105D01*
X33751779Y-63355932D01*
X33732627Y-63288739D01*
X33752843Y-63221858D01*
X33804220Y-63177340D01*
X33933411Y-63117098D01*
X33998187Y-63071740D01*
X33327448Y-62401000D01*
X33331569Y-62401000D01*
X33425421Y-62385339D01*
X33537251Y-62324820D01*
X33623371Y-62231269D01*
X33674448Y-62114823D01*
X33680105Y-62046551D01*
X34351740Y-62718186D01*
X34397100Y-62653408D01*
X34490420Y-62453281D01*
X34547575Y-62239978D01*
X34566821Y-62020000D01*
X34547575Y-61800021D01*
X34490421Y-61586720D01*
X34397098Y-61386589D01*
X34351740Y-61321811D01*
X33684903Y-61988647D01*
X33684949Y-61988102D01*
X33653734Y-61864838D01*
X33584187Y-61758388D01*
X33483843Y-61680287D01*
X33363578Y-61639000D01*
X33327447Y-61639000D01*
X33998187Y-60968258D01*
X33933406Y-60922898D01*
X33804219Y-60862658D01*
X33751779Y-60816486D01*
X33732627Y-60749293D01*
X33752843Y-60682411D01*
X33804219Y-60637894D01*
X33933662Y-60577534D01*
X34114620Y-60450826D01*
X34270826Y-60294620D01*
X34397534Y-60113662D01*
X34490894Y-59913450D01*
X34548070Y-59700068D01*
X34567323Y-59480000D01*
X34548070Y-59259932D01*
X34520246Y-59156092D01*
X34521909Y-59086244D01*
X34561071Y-59028382D01*
X34625299Y-59000877D01*
X34640021Y-59000000D01*
X57359979Y-59000000D01*
X57427018Y-59019685D01*
X57472773Y-59072489D01*
X57482717Y-59141647D01*
X57479755Y-59156086D01*
X57465823Y-59208079D01*
X57451929Y-59259934D01*
X57432676Y-59480000D01*
X57451929Y-59700065D01*
X57451930Y-59700068D01*
X57509106Y-59913450D01*
X57602466Y-60113662D01*
X57729174Y-60294620D01*
X57885380Y-60450826D01*
X58066338Y-60577534D01*
X58136173Y-60610098D01*
X58195780Y-60637894D01*
X58248219Y-60684066D01*
X58267371Y-60751260D01*
X58247155Y-60818141D01*
X58195780Y-60862658D01*
X58066589Y-60922900D01*
X58001811Y-60968258D01*
X58672553Y-61639000D01*
X58668431Y-61639000D01*
X58574579Y-61654661D01*
X58462749Y-61715180D01*
X58376629Y-61808731D01*
X58325552Y-61925177D01*
X58319894Y-61993448D01*
X57648258Y-61321811D01*
X57648258Y-61321812D01*
X57602900Y-61386589D01*
X57509578Y-61586719D01*
X57452424Y-61800021D01*
X57433178Y-62020000D01*
X57452424Y-62239978D01*
X57509579Y-62453281D01*
X57602898Y-62653406D01*
X57648258Y-62718187D01*
X58315096Y-62051348D01*
X58315051Y-62051898D01*
X58346266Y-62175162D01*
X58415813Y-62281612D01*
X58516157Y-62359713D01*
X58636422Y-62401000D01*
X58672553Y-62401000D01*
X58001812Y-63071740D01*
X58066592Y-63117100D01*
X58195780Y-63177341D01*
X58248220Y-63223513D01*
X58267372Y-63290706D01*
X58247157Y-63357587D01*
X58195782Y-63402105D01*
X58066336Y-63462467D01*
X57885379Y-63589174D01*
X57729174Y-63745379D01*
X57602466Y-63926338D01*
X57509106Y-64126548D01*
X57451929Y-64339934D01*
X57432676Y-64560000D01*
X57451929Y-64780065D01*
X57509106Y-64993451D01*
X57545545Y-65071595D01*
X57602466Y-65193662D01*
X57729174Y-65374620D01*
X57885380Y-65530826D01*
X58066338Y-65657534D01*
X58266550Y-65750894D01*
X58479932Y-65808070D01*
X58700000Y-65827323D01*
X58920068Y-65808070D01*
X59133450Y-65750894D01*
X59333662Y-65657534D01*
X59514620Y-65530826D01*
X59670826Y-65374620D01*
X59797534Y-65193662D01*
X59854455Y-65071595D01*
X59900628Y-65019156D01*
X59966837Y-65000000D01*
X63000000Y-65000000D01*
X63000000Y-53349198D01*
X63019685Y-53282159D01*
X63036319Y-53261517D01*
X63165160Y-53132677D01*
X63816327Y-52481510D01*
X63877651Y-52448025D01*
X63904009Y-52445191D01*
X63963204Y-52445191D01*
X64086640Y-52418953D01*
X64148359Y-52405835D01*
X64321286Y-52328842D01*
X64331391Y-52321500D01*
X64474426Y-52217580D01*
X64601089Y-52076907D01*
X64695735Y-51912975D01*
X64712948Y-51860000D01*
X64754230Y-51732947D01*
X64774016Y-51544691D01*
X64754230Y-51356435D01*
X64711959Y-51226339D01*
X64695735Y-51176406D01*
X64601089Y-51012474D01*
X64474426Y-50871801D01*
X64321286Y-50760539D01*
X64148358Y-50683546D01*
X63963204Y-50644191D01*
X63963202Y-50644191D01*
X63773910Y-50644191D01*
X63773908Y-50644191D01*
X63588753Y-50683546D01*
X63415825Y-50760539D01*
X63262687Y-50871800D01*
X63216148Y-50923486D01*
X63156660Y-50960133D01*
X63086803Y-50958802D01*
X63028756Y-50919914D01*
X63000947Y-50855817D01*
X63000000Y-50840528D01*
X63000000Y-37636940D01*
X63019684Y-37569905D01*
X63036310Y-37549271D01*
X63490243Y-37095339D01*
X63551567Y-37061854D01*
X63577925Y-37059020D01*
X63637120Y-37059020D01*
X63760556Y-37032782D01*
X63822275Y-37019664D01*
X63995202Y-36942671D01*
X64069890Y-36888407D01*
X64148342Y-36831409D01*
X64275005Y-36690736D01*
X64369651Y-36526804D01*
X64410874Y-36399932D01*
X64428146Y-36346776D01*
X64447932Y-36158520D01*
X64428146Y-35970264D01*
X64380933Y-35824958D01*
X64369651Y-35790235D01*
X64275005Y-35626303D01*
X64148342Y-35485630D01*
X63995202Y-35374368D01*
X63822274Y-35297375D01*
X63637120Y-35258020D01*
X63637118Y-35258020D01*
X63447826Y-35258020D01*
X63447824Y-35258020D01*
X63262671Y-35297374D01*
X63174435Y-35336660D01*
X63105185Y-35345944D01*
X63041909Y-35316316D01*
X63004696Y-35257180D01*
X63000000Y-35223380D01*
X63000000Y-23463588D01*
X63019685Y-23396549D01*
X63036315Y-23375911D01*
X63826216Y-22586010D01*
X63887540Y-22552525D01*
X63913898Y-22549691D01*
X63973094Y-22549691D01*
X64096530Y-22523453D01*
X64158249Y-22510335D01*
X64331176Y-22433342D01*
X64484317Y-22322079D01*
X64610979Y-22181407D01*
X64705625Y-22017475D01*
X64764120Y-21837447D01*
X64782693Y-21660729D01*
X64809278Y-21596115D01*
X64866575Y-21556130D01*
X64906014Y-21549691D01*
X65613739Y-21549691D01*
X65680778Y-21569376D01*
X65701420Y-21586010D01*
X67338181Y-23222771D01*
X67371666Y-23284094D01*
X67374500Y-23310452D01*
X67374500Y-23485500D01*
X67354815Y-23552539D01*
X67302011Y-23598294D01*
X67250500Y-23609500D01*
X66716784Y-23609500D01*
X66714168Y-23609722D01*
X66714159Y-23609723D01*
X66542548Y-23624329D01*
X66316779Y-23683114D01*
X66104198Y-23779207D01*
X65910912Y-23909846D01*
X65742483Y-24071272D01*
X65603760Y-24258838D01*
X65498730Y-24467152D01*
X65430417Y-24690219D01*
X65400784Y-24921627D01*
X65410685Y-25154704D01*
X65459836Y-25382767D01*
X65538965Y-25579685D01*
X65546821Y-25599235D01*
X65669138Y-25797891D01*
X65696576Y-25829066D01*
X65823270Y-25973019D01*
X66004776Y-26119576D01*
X66045101Y-26142103D01*
X66094028Y-26191983D01*
X66108220Y-26260396D01*
X66083172Y-26325622D01*
X66054064Y-26353092D01*
X65910912Y-26449846D01*
X65742483Y-26611272D01*
X65603760Y-26798838D01*
X65498730Y-27007152D01*
X65430417Y-27230219D01*
X65400784Y-27461627D01*
X65410685Y-27694704D01*
X65459836Y-27922767D01*
X65546819Y-28139231D01*
X65669139Y-28337892D01*
X65823270Y-28513019D01*
X66004776Y-28659576D01*
X66045101Y-28682103D01*
X66094028Y-28731983D01*
X66108220Y-28800396D01*
X66083172Y-28865622D01*
X66054064Y-28893092D01*
X65910912Y-28989846D01*
X65742483Y-29151272D01*
X65603760Y-29338838D01*
X65498730Y-29547152D01*
X65430417Y-29770219D01*
X65400784Y-30001627D01*
X65410685Y-30234704D01*
X65459836Y-30462767D01*
X65546819Y-30679231D01*
X65669139Y-30877892D01*
X65823270Y-31053019D01*
X65863230Y-31085285D01*
X65903023Y-31142715D01*
X65905450Y-31212543D01*
X65869739Y-31272597D01*
X65846994Y-31286058D01*
X65848213Y-31288034D01*
X65686654Y-31387683D01*
X65562683Y-31511654D01*
X65470642Y-31660877D01*
X65415493Y-31827303D01*
X65405319Y-31926890D01*
X65405000Y-31933168D01*
X65405000Y-32350000D01*
X66459530Y-32350000D01*
X66420315Y-32444674D01*
X66399866Y-32600000D01*
X66420315Y-32755326D01*
X66459530Y-32850000D01*
X65405001Y-32850000D01*
X65405001Y-33266829D01*
X65405321Y-33273111D01*
X65415493Y-33372695D01*
X65470642Y-33539122D01*
X65562683Y-33688345D01*
X65686654Y-33812316D01*
X65835877Y-33904357D01*
X66002303Y-33959506D01*
X66101890Y-33969680D01*
X66108168Y-33969999D01*
X66749999Y-33969999D01*
X66750000Y-33969998D01*
X66750000Y-33140469D01*
X66844674Y-33179685D01*
X66961003Y-33195000D01*
X67038997Y-33195000D01*
X67155326Y-33179685D01*
X67250000Y-33140469D01*
X67250000Y-33969999D01*
X67891829Y-33969999D01*
X67898111Y-33969678D01*
X67997695Y-33959506D01*
X68164121Y-33904357D01*
X68185401Y-33891232D01*
X68252793Y-33872790D01*
X68319457Y-33893711D01*
X68364228Y-33947352D01*
X68374500Y-33996769D01*
X68374500Y-37669546D01*
X68354815Y-37736585D01*
X68338181Y-37757227D01*
X67510174Y-38585233D01*
X67448851Y-38618718D01*
X67401538Y-38619769D01*
X67388121Y-38617468D01*
X67341647Y-38609500D01*
X66716784Y-38609500D01*
X66714168Y-38609722D01*
X66714159Y-38609723D01*
X66542548Y-38624329D01*
X66316779Y-38683114D01*
X66104198Y-38779207D01*
X65910912Y-38909846D01*
X65742483Y-39071272D01*
X65603760Y-39258838D01*
X65498730Y-39467152D01*
X65432461Y-39683547D01*
X65430417Y-39690220D01*
X65417171Y-39793662D01*
X65400784Y-39921627D01*
X65410685Y-40154704D01*
X65459836Y-40382767D01*
X65528510Y-40553667D01*
X65546821Y-40599235D01*
X65669138Y-40797891D01*
X65714642Y-40849593D01*
X65823270Y-40973019D01*
X66004776Y-41119576D01*
X66045101Y-41142103D01*
X66094028Y-41191983D01*
X66108220Y-41260396D01*
X66083172Y-41325622D01*
X66054064Y-41353092D01*
X65910912Y-41449846D01*
X65742483Y-41611272D01*
X65603760Y-41798838D01*
X65498730Y-42007152D01*
X65498730Y-42007153D01*
X65430417Y-42230220D01*
X65417171Y-42333662D01*
X65400784Y-42461627D01*
X65410685Y-42694704D01*
X65459836Y-42922767D01*
X65510604Y-43049106D01*
X65546821Y-43139235D01*
X65627678Y-43270555D01*
X65669139Y-43337892D01*
X65823270Y-43513019D01*
X66004776Y-43659576D01*
X66045101Y-43682103D01*
X66094028Y-43731983D01*
X66108220Y-43800396D01*
X66083172Y-43865622D01*
X66054064Y-43893092D01*
X65910912Y-43989846D01*
X65742483Y-44151272D01*
X65603760Y-44338838D01*
X65498730Y-44547152D01*
X65442227Y-44731657D01*
X65430417Y-44770220D01*
X65417171Y-44873662D01*
X65400784Y-45001627D01*
X65410685Y-45234704D01*
X65459836Y-45462767D01*
X65510604Y-45589106D01*
X65546821Y-45679235D01*
X65627678Y-45810555D01*
X65669139Y-45877892D01*
X65823270Y-46053019D01*
X65863230Y-46085285D01*
X65903023Y-46142715D01*
X65905450Y-46212543D01*
X65869739Y-46272597D01*
X65846994Y-46286058D01*
X65848213Y-46288034D01*
X65686654Y-46387683D01*
X65562683Y-46511654D01*
X65470642Y-46660877D01*
X65415493Y-46827303D01*
X65405319Y-46926890D01*
X65405000Y-46933168D01*
X65405000Y-47350000D01*
X66459530Y-47350000D01*
X66420315Y-47444674D01*
X66399866Y-47600000D01*
X66420315Y-47755326D01*
X66459530Y-47850000D01*
X65405001Y-47850000D01*
X65405001Y-48266829D01*
X65405321Y-48273111D01*
X65415493Y-48372695D01*
X65470642Y-48539122D01*
X65562683Y-48688345D01*
X65686654Y-48812316D01*
X65835877Y-48904357D01*
X66002303Y-48959506D01*
X66101890Y-48969680D01*
X66108168Y-48969999D01*
X66749999Y-48969999D01*
X66750000Y-48969998D01*
X66750000Y-48140469D01*
X66844674Y-48179685D01*
X66961003Y-48195000D01*
X67038997Y-48195000D01*
X67155326Y-48179685D01*
X67250000Y-48140469D01*
X67250000Y-48969999D01*
X67891829Y-48969999D01*
X67898111Y-48969678D01*
X67997695Y-48959506D01*
X68164121Y-48904357D01*
X68185401Y-48891232D01*
X68252793Y-48872790D01*
X68319457Y-48893711D01*
X68364228Y-48947352D01*
X68374500Y-48996769D01*
X68374500Y-52669546D01*
X68354815Y-52736585D01*
X68338181Y-52757227D01*
X67510174Y-53585233D01*
X67448851Y-53618718D01*
X67401538Y-53619769D01*
X67388121Y-53617468D01*
X67341647Y-53609500D01*
X66716784Y-53609500D01*
X66714168Y-53609722D01*
X66714159Y-53609723D01*
X66542548Y-53624329D01*
X66316779Y-53683114D01*
X66104198Y-53779207D01*
X65910912Y-53909846D01*
X65742483Y-54071272D01*
X65603760Y-54258838D01*
X65498730Y-54467152D01*
X65451901Y-54620068D01*
X65430417Y-54690220D01*
X65412076Y-54833450D01*
X65400784Y-54921627D01*
X65410685Y-55154704D01*
X65459836Y-55382767D01*
X65538965Y-55579685D01*
X65546821Y-55599235D01*
X65639100Y-55749106D01*
X65669139Y-55797892D01*
X65823270Y-55973019D01*
X66004776Y-56119576D01*
X66045101Y-56142103D01*
X66094028Y-56191983D01*
X66108220Y-56260396D01*
X66083172Y-56325622D01*
X66054064Y-56353092D01*
X65910912Y-56449846D01*
X65742483Y-56611272D01*
X65603760Y-56798838D01*
X65498730Y-57007152D01*
X65451901Y-57160068D01*
X65430417Y-57230220D01*
X65408484Y-57401500D01*
X65400784Y-57461627D01*
X65410685Y-57694704D01*
X65459836Y-57922767D01*
X65512107Y-58052847D01*
X65546821Y-58139235D01*
X65621894Y-58261161D01*
X65669139Y-58337892D01*
X65823270Y-58513019D01*
X66004776Y-58659576D01*
X66045101Y-58682103D01*
X66094028Y-58731983D01*
X66108220Y-58800396D01*
X66083172Y-58865622D01*
X66054064Y-58893092D01*
X65910912Y-58989846D01*
X65742483Y-59151272D01*
X65603760Y-59338838D01*
X65498730Y-59547152D01*
X65451901Y-59700068D01*
X65430417Y-59770220D01*
X65412076Y-59913450D01*
X65400784Y-60001627D01*
X65410685Y-60234704D01*
X65459836Y-60462767D01*
X65539998Y-60662256D01*
X65546821Y-60679235D01*
X65669138Y-60877891D01*
X65672681Y-60881916D01*
X65823270Y-61053019D01*
X65863230Y-61085285D01*
X65903023Y-61142715D01*
X65905450Y-61212543D01*
X65869739Y-61272597D01*
X65846994Y-61286058D01*
X65848213Y-61288034D01*
X65686654Y-61387683D01*
X65562683Y-61511654D01*
X65470642Y-61660877D01*
X65415493Y-61827303D01*
X65405319Y-61926890D01*
X65405000Y-61933168D01*
X65405000Y-62350000D01*
X66459530Y-62350000D01*
X66420315Y-62444674D01*
X66399866Y-62600000D01*
X66420315Y-62755326D01*
X66459530Y-62850000D01*
X65405001Y-62850000D01*
X65405001Y-63266829D01*
X65405321Y-63273111D01*
X65415493Y-63372695D01*
X65470642Y-63539122D01*
X65562683Y-63688345D01*
X65686654Y-63812316D01*
X65835877Y-63904357D01*
X66002303Y-63959506D01*
X66101890Y-63969680D01*
X66108168Y-63969999D01*
X66749999Y-63969999D01*
X66750000Y-63969998D01*
X66750000Y-63140469D01*
X66844674Y-63179685D01*
X66961003Y-63195000D01*
X67038997Y-63195000D01*
X67155326Y-63179685D01*
X67250000Y-63140469D01*
X67250000Y-63969999D01*
X67891829Y-63969999D01*
X67898111Y-63969678D01*
X67997695Y-63959506D01*
X68164122Y-63904357D01*
X68313345Y-63812316D01*
X68437316Y-63688345D01*
X68529357Y-63539122D01*
X68584506Y-63372696D01*
X68594680Y-63273109D01*
X68595000Y-63266831D01*
X68595000Y-62850000D01*
X67540470Y-62850000D01*
X67579685Y-62755326D01*
X67600134Y-62600000D01*
X67579685Y-62444674D01*
X67540470Y-62350000D01*
X68594999Y-62350000D01*
X68594999Y-61933170D01*
X68594678Y-61926888D01*
X68584506Y-61827304D01*
X68529357Y-61660877D01*
X68437316Y-61511654D01*
X68313345Y-61387683D01*
X68151787Y-61288034D01*
X68153964Y-61284504D01*
X68118035Y-61259615D01*
X68091229Y-61195092D01*
X68103561Y-61126319D01*
X68128701Y-61092187D01*
X68257516Y-60968728D01*
X68396240Y-60781161D01*
X68501270Y-60572847D01*
X68569583Y-60349780D01*
X68599216Y-60118376D01*
X68589314Y-59885293D01*
X68540164Y-59657235D01*
X68453179Y-59440765D01*
X68330862Y-59242109D01*
X68176731Y-59066982D01*
X68176729Y-59066980D01*
X67995221Y-58920421D01*
X67954897Y-58897895D01*
X67905971Y-58848015D01*
X67891779Y-58779602D01*
X67916827Y-58714376D01*
X67945931Y-58686910D01*
X68089088Y-58590153D01*
X68257516Y-58428728D01*
X68396240Y-58241161D01*
X68501270Y-58032847D01*
X68569583Y-57809780D01*
X68599216Y-57578376D01*
X68589314Y-57345293D01*
X68540164Y-57117235D01*
X68453179Y-56900765D01*
X68330862Y-56702109D01*
X68176731Y-56526982D01*
X68176729Y-56526980D01*
X67995221Y-56380421D01*
X67954897Y-56357895D01*
X67905971Y-56308015D01*
X67891779Y-56239602D01*
X67916827Y-56174376D01*
X67945931Y-56146910D01*
X68089088Y-56050153D01*
X68257516Y-55888728D01*
X68396240Y-55701161D01*
X68501270Y-55492847D01*
X68569583Y-55269780D01*
X68599216Y-55038376D01*
X68589314Y-54805293D01*
X68540164Y-54577235D01*
X68540163Y-54577232D01*
X68498235Y-54472891D01*
X68491504Y-54403346D01*
X68523440Y-54341203D01*
X68525570Y-54339019D01*
X69383788Y-53480801D01*
X69399886Y-53467905D01*
X69401874Y-53465787D01*
X69401877Y-53465786D01*
X69447914Y-53416760D01*
X69450601Y-53413989D01*
X69457996Y-53406594D01*
X69470120Y-53394471D01*
X69472585Y-53391292D01*
X69480167Y-53382416D01*
X69510062Y-53350582D01*
X69519717Y-53333018D01*
X69530394Y-53316764D01*
X69542673Y-53300936D01*
X69560018Y-53260852D01*
X69565160Y-53250356D01*
X69586197Y-53212092D01*
X69591179Y-53192684D01*
X69597481Y-53174280D01*
X69605437Y-53155896D01*
X69612269Y-53112752D01*
X69614633Y-53101338D01*
X69625500Y-53059019D01*
X69625500Y-53038982D01*
X69627027Y-53019584D01*
X69630160Y-52999804D01*
X69626050Y-52956324D01*
X69625500Y-52944655D01*
X69625500Y-38038983D01*
X69627027Y-38019584D01*
X69630160Y-37999804D01*
X69626050Y-37956324D01*
X69625500Y-37944655D01*
X69625500Y-24082743D01*
X69627764Y-24062239D01*
X69626552Y-24023673D01*
X69625561Y-23992112D01*
X69625500Y-23988218D01*
X69625500Y-23964541D01*
X69625500Y-23960650D01*
X69624998Y-23956683D01*
X69624081Y-23945027D01*
X69623955Y-23941016D01*
X69622710Y-23901373D01*
X69617118Y-23882126D01*
X69613174Y-23863085D01*
X69610664Y-23843208D01*
X69594579Y-23802583D01*
X69590808Y-23791568D01*
X69578618Y-23749610D01*
X69568414Y-23732355D01*
X69559861Y-23714895D01*
X69552486Y-23696269D01*
X69552486Y-23696268D01*
X69526808Y-23660925D01*
X69520401Y-23651171D01*
X69508069Y-23630319D01*
X69498170Y-23613580D01*
X69484006Y-23599416D01*
X69471367Y-23584617D01*
X69459595Y-23568413D01*
X69425941Y-23540573D01*
X69417299Y-23532709D01*
X68484006Y-22599415D01*
X68471369Y-22584620D01*
X68459595Y-22568414D01*
X68459594Y-22568413D01*
X68425935Y-22540568D01*
X68417305Y-22532714D01*
X68397031Y-22512440D01*
X68397028Y-22512438D01*
X66424993Y-20540402D01*
X66412097Y-20524304D01*
X66360966Y-20476289D01*
X66358169Y-20473578D01*
X66341418Y-20456827D01*
X66338662Y-20454071D01*
X66335481Y-20451603D01*
X66326613Y-20444028D01*
X66294773Y-20414129D01*
X66277215Y-20404476D01*
X66260955Y-20393795D01*
X66245127Y-20381518D01*
X66205042Y-20364171D01*
X66194552Y-20359032D01*
X66156282Y-20337993D01*
X66136882Y-20333012D01*
X66118475Y-20326710D01*
X66100088Y-20318753D01*
X66056949Y-20311920D01*
X66045515Y-20309552D01*
X66003210Y-20298691D01*
X65983175Y-20298691D01*
X65963777Y-20297164D01*
X65956353Y-20295988D01*
X65943996Y-20294031D01*
X65943995Y-20294031D01*
X65917675Y-20296519D01*
X65900516Y-20298141D01*
X65888847Y-20298691D01*
X63124000Y-20298691D01*
X63056961Y-20279006D01*
X63011206Y-20226202D01*
X63000000Y-20174691D01*
X63000000Y-20124500D01*
X63019685Y-20057461D01*
X63072489Y-20011706D01*
X63124000Y-20000500D01*
X71875500Y-20000500D01*
X71942539Y-20020185D01*
X71988294Y-20072989D01*
X71999500Y-20124500D01*
X71999500Y-71875500D01*
X71979815Y-71942539D01*
X71927011Y-71988294D01*
X71875500Y-71999500D01*
X62904502Y-71999500D01*
X62898784Y-72000000D01*
X60000000Y-72000000D01*
X60000000Y-77876000D01*
X59980315Y-77943039D01*
X59927511Y-77988794D01*
X59876000Y-78000000D01*
X20124500Y-78000000D01*
X20057461Y-77980315D01*
X20011706Y-77927511D01*
X20000500Y-77876000D01*
X20000500Y-73664000D01*
X22750000Y-73664000D01*
X23566314Y-73664000D01*
X23540507Y-73704156D01*
X23500000Y-73842111D01*
X23500000Y-73985889D01*
X23540507Y-74123844D01*
X23566314Y-74164000D01*
X22750001Y-74164000D01*
X22750001Y-74725744D01*
X22750192Y-74730625D01*
X22760400Y-74860331D01*
X22815377Y-75078518D01*
X22908430Y-75283379D01*
X23036565Y-75468332D01*
X23195667Y-75627434D01*
X23380620Y-75755569D01*
X23585481Y-75848622D01*
X23803668Y-75903599D01*
X23933374Y-75913808D01*
X23938254Y-75913999D01*
X24749999Y-75913999D01*
X24750000Y-75913998D01*
X24750000Y-74414000D01*
X25250000Y-74414000D01*
X25250000Y-75913999D01*
X26061744Y-75913999D01*
X26066625Y-75913807D01*
X26196331Y-75903599D01*
X26414518Y-75848622D01*
X26619379Y-75755569D01*
X26804332Y-75627434D01*
X26963434Y-75468332D01*
X27091569Y-75283379D01*
X27184622Y-75078518D01*
X27239599Y-74860331D01*
X27249808Y-74730625D01*
X27250000Y-74725745D01*
X27250000Y-74164000D01*
X26433686Y-74164000D01*
X26459493Y-74123844D01*
X26495857Y-74000000D01*
X43494556Y-74000000D01*
X43514312Y-74314015D01*
X43515039Y-74317827D01*
X43515041Y-74317841D01*
X43572538Y-74619249D01*
X43573269Y-74623079D01*
X43670497Y-74922315D01*
X43804463Y-75207007D01*
X43806545Y-75210288D01*
X43806548Y-75210293D01*
X43970962Y-75469369D01*
X43970966Y-75469375D01*
X43973053Y-75472663D01*
X44173610Y-75715094D01*
X44402970Y-75930478D01*
X44657516Y-76115416D01*
X44933234Y-76266994D01*
X45225775Y-76382819D01*
X45530527Y-76461066D01*
X45842682Y-76500500D01*
X45846577Y-76500500D01*
X46153423Y-76500500D01*
X46157318Y-76500500D01*
X46469473Y-76461066D01*
X46774225Y-76382819D01*
X47066766Y-76266994D01*
X47342484Y-76115416D01*
X47597030Y-75930478D01*
X47826390Y-75715094D01*
X48026947Y-75472663D01*
X48195537Y-75207007D01*
X48329503Y-74922315D01*
X48426731Y-74623079D01*
X48485688Y-74314015D01*
X48505444Y-74000000D01*
X48485688Y-73685985D01*
X48426731Y-73376921D01*
X48329503Y-73077685D01*
X48195537Y-72792993D01*
X48109964Y-72658151D01*
X48029037Y-72530630D01*
X48029035Y-72530627D01*
X48026947Y-72527337D01*
X47826390Y-72284906D01*
X47597030Y-72069522D01*
X47542493Y-72029899D01*
X47345633Y-71886872D01*
X47345634Y-71886872D01*
X47342484Y-71884584D01*
X47339081Y-71882713D01*
X47339076Y-71882710D01*
X47070183Y-71734884D01*
X47070176Y-71734880D01*
X47066766Y-71733006D01*
X47063140Y-71731570D01*
X47063135Y-71731568D01*
X46777847Y-71618615D01*
X46777846Y-71618614D01*
X46774225Y-71617181D01*
X46770455Y-71616213D01*
X46770452Y-71616212D01*
X46473256Y-71539905D01*
X46473251Y-71539904D01*
X46469473Y-71538934D01*
X46465602Y-71538445D01*
X46465597Y-71538444D01*
X46161184Y-71499988D01*
X46161177Y-71499987D01*
X46157318Y-71499500D01*
X45842682Y-71499500D01*
X45838823Y-71499987D01*
X45838815Y-71499988D01*
X45534402Y-71538444D01*
X45534394Y-71538445D01*
X45530527Y-71538934D01*
X45526751Y-71539903D01*
X45526743Y-71539905D01*
X45229547Y-71616212D01*
X45229539Y-71616214D01*
X45225775Y-71617181D01*
X45222158Y-71618612D01*
X45222152Y-71618615D01*
X44936864Y-71731568D01*
X44936853Y-71731572D01*
X44933234Y-71733006D01*
X44929829Y-71734877D01*
X44929816Y-71734884D01*
X44660923Y-71882710D01*
X44660911Y-71882717D01*
X44657516Y-71884584D01*
X44654372Y-71886867D01*
X44654366Y-71886872D01*
X44406126Y-72067228D01*
X44406115Y-72067236D01*
X44402970Y-72069522D01*
X44400135Y-72072183D01*
X44400128Y-72072190D01*
X44176447Y-72282241D01*
X44176440Y-72282248D01*
X44173610Y-72284906D01*
X44171135Y-72287897D01*
X44171131Y-72287902D01*
X43975536Y-72524334D01*
X43975526Y-72524346D01*
X43973053Y-72527337D01*
X43970971Y-72530616D01*
X43970962Y-72530630D01*
X43806548Y-72789706D01*
X43806541Y-72789717D01*
X43804463Y-72792993D01*
X43802810Y-72796504D01*
X43802807Y-72796511D01*
X43672153Y-73074165D01*
X43670497Y-73077685D01*
X43669295Y-73081382D01*
X43669293Y-73081389D01*
X43642289Y-73164500D01*
X43573269Y-73376921D01*
X43572540Y-73380741D01*
X43572538Y-73380750D01*
X43515041Y-73682158D01*
X43515038Y-73682174D01*
X43514312Y-73685985D01*
X43514067Y-73689876D01*
X43514067Y-73689878D01*
X43507289Y-73797618D01*
X43494556Y-74000000D01*
X26495857Y-74000000D01*
X26500000Y-73985889D01*
X26500000Y-73842111D01*
X26459493Y-73704156D01*
X26433686Y-73664000D01*
X27249999Y-73664000D01*
X27249999Y-73102255D01*
X27249807Y-73097374D01*
X27239599Y-72967668D01*
X27184622Y-72749481D01*
X27091569Y-72544620D01*
X26963434Y-72359667D01*
X26804332Y-72200565D01*
X26619379Y-72072430D01*
X26414518Y-71979377D01*
X26196331Y-71924400D01*
X26066625Y-71914191D01*
X26061746Y-71914000D01*
X25250000Y-71914000D01*
X25250000Y-73414000D01*
X24750000Y-73414000D01*
X24750000Y-71914000D01*
X23938255Y-71914000D01*
X23933374Y-71914192D01*
X23803668Y-71924400D01*
X23585481Y-71979377D01*
X23380620Y-72072430D01*
X23195667Y-72200565D01*
X23036565Y-72359667D01*
X22908430Y-72544620D01*
X22815377Y-72749481D01*
X22760400Y-72967668D01*
X22750191Y-73097374D01*
X22750000Y-73102254D01*
X22750000Y-73664000D01*
X20000500Y-73664000D01*
X20000500Y-69708578D01*
X22749500Y-69708578D01*
X22749501Y-69711872D01*
X22749853Y-69715152D01*
X22749854Y-69715159D01*
X22755909Y-69771484D01*
X22764143Y-69793559D01*
X22806204Y-69906331D01*
X22892454Y-70021546D01*
X23007669Y-70107796D01*
X23142517Y-70158091D01*
X23202127Y-70164500D01*
X26797872Y-70164499D01*
X26857483Y-70158091D01*
X26992331Y-70107796D01*
X27107546Y-70021546D01*
X27193796Y-69906331D01*
X27211427Y-69859057D01*
X27253296Y-69803126D01*
X27318760Y-69778708D01*
X27387033Y-69793559D01*
X27436439Y-69842963D01*
X27451434Y-69908966D01*
X27449500Y-69945378D01*
X27449500Y-71882622D01*
X27449586Y-71884247D01*
X27449587Y-71884272D01*
X27452067Y-71930959D01*
X27452067Y-71930966D01*
X27452295Y-71935241D01*
X27453107Y-71939440D01*
X27453108Y-71939447D01*
X27477821Y-72067228D01*
X27496755Y-72165126D01*
X27579426Y-72384190D01*
X27697930Y-72586132D01*
X27848858Y-72765142D01*
X28027868Y-72916070D01*
X28229810Y-73034574D01*
X28448874Y-73117245D01*
X28678759Y-73161705D01*
X28731378Y-73164500D01*
X28733022Y-73164500D01*
X30666978Y-73164500D01*
X30668622Y-73164500D01*
X30721241Y-73161705D01*
X30951126Y-73117245D01*
X31170190Y-73034574D01*
X31372132Y-72916070D01*
X31551142Y-72765142D01*
X31702070Y-72586132D01*
X31820574Y-72384190D01*
X31903245Y-72165126D01*
X31947705Y-71935241D01*
X31950500Y-71882622D01*
X31950500Y-69945378D01*
X31947705Y-69892759D01*
X31903245Y-69662874D01*
X31820574Y-69443810D01*
X31702070Y-69241868D01*
X31551142Y-69062858D01*
X31372132Y-68911930D01*
X31170190Y-68793426D01*
X30951126Y-68710755D01*
X30951123Y-68710754D01*
X30951122Y-68710754D01*
X30725447Y-68667108D01*
X30725440Y-68667107D01*
X30721241Y-68666295D01*
X30716966Y-68666067D01*
X30716959Y-68666067D01*
X30670272Y-68663587D01*
X30670247Y-68663586D01*
X30668622Y-68663500D01*
X28731378Y-68663500D01*
X28729753Y-68663586D01*
X28729727Y-68663587D01*
X28683040Y-68666067D01*
X28683031Y-68666068D01*
X28678759Y-68666295D01*
X28674561Y-68667106D01*
X28674552Y-68667108D01*
X28448877Y-68710754D01*
X28229807Y-68793427D01*
X28027868Y-68911930D01*
X27848858Y-69062858D01*
X27697930Y-69241868D01*
X27579427Y-69443807D01*
X27496752Y-69662882D01*
X27496241Y-69665526D01*
X27494435Y-69669022D01*
X27493029Y-69672749D01*
X27492595Y-69672585D01*
X27464181Y-69727605D01*
X27403647Y-69762497D01*
X27333858Y-69759122D01*
X27276973Y-69718553D01*
X27251052Y-69653669D01*
X27250499Y-69641991D01*
X27250499Y-66116128D01*
X27244091Y-66056517D01*
X27193796Y-65921669D01*
X27107546Y-65806454D01*
X26992331Y-65720204D01*
X26857483Y-65669909D01*
X26797873Y-65663500D01*
X26794550Y-65663500D01*
X23205439Y-65663500D01*
X23205420Y-65663500D01*
X23202128Y-65663501D01*
X23198848Y-65663853D01*
X23198840Y-65663854D01*
X23142515Y-65669909D01*
X23007669Y-65720204D01*
X22892454Y-65806454D01*
X22806204Y-65921668D01*
X22755910Y-66056515D01*
X22755909Y-66056517D01*
X22749500Y-66116127D01*
X22749500Y-66119448D01*
X22749500Y-66119449D01*
X22749500Y-69708560D01*
X22749500Y-69708578D01*
X20000500Y-69708578D01*
X20000500Y-20124500D01*
X20020185Y-20057461D01*
X20072989Y-20011706D01*
X20124500Y-20000500D01*
X26007034Y-20000500D01*
X26074073Y-20020185D01*
G37*
%TD.AperFunction*%
%TA.AperFunction,Conductor*%
G36*
X32915051Y-62051898D02*
G01*
X32946266Y-62175162D01*
X33015813Y-62281612D01*
X33116157Y-62359713D01*
X33236422Y-62401000D01*
X33272553Y-62401000D01*
X32601812Y-63071740D01*
X32666592Y-63117100D01*
X32795780Y-63177341D01*
X32848220Y-63223513D01*
X32867372Y-63290706D01*
X32847157Y-63357587D01*
X32795782Y-63402105D01*
X32666336Y-63462467D01*
X32485379Y-63589174D01*
X32329174Y-63745379D01*
X32225575Y-63893335D01*
X32170998Y-63936960D01*
X32101500Y-63944153D01*
X32039145Y-63912631D01*
X32003731Y-63852401D01*
X32000000Y-63822212D01*
X32000000Y-62756915D01*
X32019685Y-62689876D01*
X32072489Y-62644121D01*
X32141647Y-62634177D01*
X32205203Y-62663202D01*
X32225575Y-62685792D01*
X32248258Y-62718187D01*
X32915096Y-62051348D01*
X32915051Y-62051898D01*
G37*
%TD.AperFunction*%
%TA.AperFunction,Conductor*%
G36*
X32205203Y-60124074D02*
G01*
X32225571Y-60146660D01*
X32329174Y-60294620D01*
X32485380Y-60450826D01*
X32666338Y-60577534D01*
X32736173Y-60610098D01*
X32795780Y-60637894D01*
X32848219Y-60684066D01*
X32867371Y-60751260D01*
X32847155Y-60818141D01*
X32795780Y-60862658D01*
X32666589Y-60922900D01*
X32601812Y-60968258D01*
X32601811Y-60968258D01*
X33272554Y-61639000D01*
X33268431Y-61639000D01*
X33174579Y-61654661D01*
X33062749Y-61715180D01*
X32976629Y-61808731D01*
X32925552Y-61925177D01*
X32919894Y-61993447D01*
X32248258Y-61321811D01*
X32248257Y-61321812D01*
X32225575Y-61354207D01*
X32170998Y-61397832D01*
X32101500Y-61405026D01*
X32039145Y-61373503D01*
X32003731Y-61313274D01*
X32000000Y-61283084D01*
X32000000Y-60217787D01*
X32019685Y-60150748D01*
X32072489Y-60104993D01*
X32141647Y-60095049D01*
X32205203Y-60124074D01*
G37*
%TD.AperFunction*%
%TD*%
M02*
